<svg width="60" height="60" viewBox="0 0 60 60" fill="none" xmlns="http://www.w3.org/2000/svg">
<g id="Frame" clip-path="url(#clip0_1078_341)">
<path id="Vector" fill-rule="evenodd" clip-rule="evenodd" d="M29.9996 54.545C43.5556 54.545 54.545 43.5556 54.545 29.9996C54.545 16.4435 43.5556 5.4541 29.9996 5.4541C16.4435 5.4541 5.4541 16.4435 5.4541 29.9996C5.4541 43.5556 16.4435 54.545 29.9996 54.545Z" fill="#D9D9D9"/>
<g id="Mask group">
<mask id="mask0_1078_341" style="mask-type:luminance" maskUnits="userSpaceOnUse" x="0" y="0" width="60" height="60">
<g id="Group">
<path id="Vector_2" d="M60 0H0V60H60V0Z" fill="white"/>
<path id="Vector_3" fill-rule="evenodd" clip-rule="evenodd" d="M29.9996 54.545C43.5556 54.545 54.545 43.5556 54.545 29.9996C54.545 16.4435 43.5556 5.4541 29.9996 5.4541C16.4435 5.4541 5.4541 16.4435 5.4541 29.9996C5.4541 43.5556 16.4435 54.545 29.9996 54.545Z" fill="black"/>
</g>
</mask>
<g mask="url(#mask0_1078_341)">
<path id="Vector_4" d="M49.0909 30C49.0909 40.5436 40.5436 49.0909 30 49.0909V60C46.5686 60 60 46.5686 60 30H49.0909ZM30 10.9091C40.5436 10.9091 49.0909 19.4564 49.0909 30H60C60 13.4315 46.5686 0 30 0V10.9091ZM10.9091 30C10.9091 19.4564 19.4564 10.9091 30 10.9091V0C13.4315 0 0 13.4315 0 30H10.9091ZM30 49.0909C19.4564 49.0909 10.9091 40.5436 10.9091 30H0C0 46.5686 13.4315 60 30 60V49.0909Z" fill="white"/>
</g>
</g>
<path id="Vector_5" d="M29.9996 54.545C43.5556 54.545 54.545 43.5556 54.545 29.9996C54.545 16.4435 43.5556 5.4541 29.9996 5.4541C16.4435 5.4541 5.4541 16.4435 5.4541 29.9996C5.4541 43.5556 16.4435 54.545 29.9996 54.545Z" fill="#FFCC4D"/>
<path id="Vector_6" d="M30 34.0912C25.0595 34.0912 21.7814 33.5158 17.7273 32.7276C16.8014 32.549 15 32.7276 15 35.4549C15 40.9094 21.2659 47.7276 30 47.7276C38.7327 47.7276 45 40.9094 45 35.4549C45 32.7276 43.1986 32.5476 42.2727 32.7276C38.2186 33.5158 34.9405 34.0912 30 34.0912Z" fill="#664500"/>
<path id="Vector_7" d="M17.7275 35.4541C17.7275 35.4541 21.8184 36.8177 30.0003 36.8177C38.1821 36.8177 42.273 35.4541 42.273 35.4541C42.273 35.4541 39.5457 40.9086 30.0003 40.9086C20.4548 40.9086 17.7275 35.4541 17.7275 35.4541Z" fill="white"/>
<path id="Vector_8" d="M21.8183 28.6363C23.701 28.6363 25.2274 26.4995 25.2274 23.8635C25.2274 21.2276 23.701 19.0908 21.8183 19.0908C19.9355 19.0908 18.4092 21.2276 18.4092 23.8635C18.4092 26.4995 19.9355 28.6363 21.8183 28.6363Z" fill="#664500"/>
<path id="Vector_9" d="M38.1816 28.6363C40.0643 28.6363 41.5906 26.4995 41.5906 23.8635C41.5906 21.2276 40.0643 19.0908 38.1816 19.0908C36.2988 19.0908 34.7725 21.2276 34.7725 23.8635C34.7725 26.4995 36.2988 28.6363 38.1816 28.6363Z" fill="#664500"/>
</g>
<defs>
<clipPath id="clip0_1078_341">
<rect width="60" height="60" fill="white"/>
</clipPath>
</defs>
</svg>
