<svg width="25" height="24" viewBox="0 0 25 24" fill="none" xmlns="http://www.w3.org/2000/svg">
<path d="M2.5 8C2.5 8 6.97715 3 12.5 3C18.0228 3 22.5 8 22.5 8" stroke="#141B34" stroke-width="1.5" stroke-linecap="round"/>
<path d="M22.044 13.045C22.348 13.4713 22.5 13.6845 22.5 14C22.5 14.3155 22.348 14.5287 22.044 14.955C20.6779 16.8706 17.1892 21 12.5 21C7.81078 21 4.3221 16.8706 2.95604 14.955C2.65201 14.5287 2.5 14.3155 2.5 14C2.5 13.6845 2.65201 13.4713 2.95604 13.045C4.3221 11.1294 7.81078 7 12.5 7C17.1892 7 20.6779 11.1294 22.044 13.045Z" stroke="#141B34" stroke-width="1.5"/>
<path d="M15.5 14C15.5 12.3431 14.1569 11 12.5 11C10.8431 11 9.5 12.3431 9.5 14C9.5 15.6569 10.8431 17 12.5 17C14.1569 17 15.5 15.6569 15.5 14Z" stroke="#141B34" stroke-width="1.5"/>
</svg>
