<svg width="1143" height="523" viewBox="0 0 1143 523" fill="none" xmlns="http://www.w3.org/2000/svg">
<g clip-path="url(#clip0_42_2623)">
<g clip-path="url(#clip1_42_2623)">
<path d="M1161.19 -95.6582H-9.42969V617.279H1161.19V-95.6582Z" fill="#DEFAE2"/>
<path d="M1047.81 -10.4813C1004.11 -29.1258 966.649 12.4658 954.163 45.4522C952.602 52.6232 944.798 45.4522 936.994 46.8864C908.899 55.4916 905.777 81.307 896.412 101.386C852.506 83.9029 801.748 92.8953 777.57 130.729H1161.19V-58.2112C1116.11 -66.1566 1063.8 -50.8538 1047.81 -10.4813Z" fill="#DEFAE2"/>
<path d="M232.561 148.398C179.649 95.0321 113.267 67.6104 47.8528 83.3865C25.9387 89.7256 7.14633 105.072 -9.42969 125.58V196.028H351.996C320.78 154.207 274.595 136.394 232.561 148.384V148.398Z" fill="#DEFAE2"/>
<path d="M806.823 59.4213H495.484C506.129 40.5187 530.15 32.9892 552.299 39.2423C575.149 17.0696 600.918 -7.36898 633.477 -13.45C666.036 -19.5309 704.401 -7.6128 718.293 20.1245C748.823 12.8961 799.909 31.1678 806.808 59.4357L806.823 59.4213Z" fill="#DEFAE2"/>
<path d="M1161.19 211.574H-9.42969V271.681H1161.19V211.574Z" fill="#DEFAE2"/>
<path d="M1161.19 271.681H-9.42969V617.278H1161.19V271.681Z" fill="#DEFAE2"/>
<path d="M1161.19 318.579H-9.42969V617.278H1161.19V318.579Z" fill="#DEFAE2"/>
<path d="M133.605 178.588C130.483 179.362 132.044 180.925 130.483 181.714C164.821 184.052 197.599 188.742 231.937 187.179C231.937 187.179 228.815 185.615 227.255 184.052C245.985 183.278 263.154 183.278 281.884 186.39C311.539 190.291 339.634 194.966 367.729 196.53C487.913 202.768 601.854 192.628 720.477 177.799C725.815 177.268 787.686 169.237 809.444 162.195C796.957 161.42 784.471 162.969 771.984 162.969C850.026 136.437 945.236 155.942 1031.08 156.731C1013.91 156.731 996.744 157.505 981.135 161.406C1041.4 163.514 1102.93 159.327 1161.19 167.487V215.819H-9.42969V177.699C16.9483 175.949 43.3264 174.228 69.6107 173.123C91.4624 172.349 114.875 172.349 133.605 178.588Z" fill="#DEFAE2"/>
<path d="M14.7007 174.457C54.1741 171.474 93.8816 169.452 133.605 168.434C147.652 167.659 161.7 169.208 174.186 173.109C164.821 173.109 155.456 173.109 147.652 174.673C174.186 179.348 200.72 180.137 228.815 181.7C221.011 180.137 214.768 176.236 205.403 174.673C247.545 175.447 285.005 184.038 327.148 187.939C408.311 196.515 481.67 189.502 561.272 180.911C576.88 179.348 594.05 177.785 609.658 174.673C623.705 172.335 637.753 169.997 651.8 168.434C640.874 169.997 631.509 174.673 622.144 177.799C676.774 179.362 728.281 166.871 773.545 152.83C754.815 153.604 737.646 157.505 718.916 156.731C770.423 149.703 818.809 137.226 873.438 135.663C872.189 135.032 870.941 134.472 869.645 133.97C880.399 135.663 891.731 136.652 903.094 137.226C935.871 139.564 965.527 142.69 998.305 145.802C1043.57 149.703 1087.27 147.366 1132.54 152.83C1142.71 153.963 1152.06 156.315 1161.19 159.011V167.487C1102.93 159.327 1041.4 163.5 981.135 161.406C996.744 157.505 1013.91 156.731 1031.08 156.731C945.236 155.956 850.026 136.437 771.984 162.97C784.471 162.97 796.957 161.406 809.444 162.195C787.686 169.237 725.815 177.268 720.477 177.799C601.854 192.629 487.913 202.768 367.729 196.53C339.634 194.966 311.539 190.291 281.884 186.39C263.154 183.263 245.985 183.263 227.255 184.052C228.815 185.615 231.937 187.179 231.937 187.179C197.599 188.742 164.821 184.052 130.483 181.714C132.044 180.94 130.483 179.377 133.605 178.588C114.875 172.349 91.4624 172.349 69.6107 173.124C43.3264 174.228 16.9483 175.963 -9.42969 177.699V177.297C-1.37581 176.394 6.66247 175.447 14.7007 174.457Z" fill="#DEFAE2"/>
<path d="M998.303 145.817C965.526 142.69 935.87 139.578 903.093 137.24C891.745 136.666 872.188 135.06 873.437 135.677C818.808 137.24 770.422 149.718 718.915 156.745C737.645 157.52 754.814 153.619 773.544 152.844C728.28 166.885 676.772 179.377 622.143 177.813C631.508 174.687 640.873 170.011 651.799 168.448C637.751 170.011 623.704 172.349 609.656 174.687C594.048 177.813 576.879 179.362 561.271 180.926C481.668 189.502 408.309 196.53 327.146 187.953C285.004 184.052 247.544 175.461 205.401 174.687C214.766 176.25 221.01 180.151 228.814 181.714C200.719 180.151 174.185 179.377 147.651 174.687C155.455 173.124 164.82 173.124 174.185 173.124C161.698 169.223 147.651 167.659 133.603 168.448C93.8801 169.452 54.1726 171.489 14.6992 174.472C38.3302 171.575 61.8519 168.333 85.2175 164.547C124.238 158.308 163.259 160.646 203.841 164.547C314.66 174.687 423.918 198.882 534.737 178.588C633.069 160.646 736.084 151.281 829.734 126.312C856.268 119.284 887.484 126.312 915.579 129.438C1000.35 139.004 1081.51 144.382 1161.19 156.057V159.025C1152.06 156.329 1142.71 153.963 1132.53 152.844C1087.27 147.38 1043.57 149.718 998.303 145.817Z" fill="#DEFAE2"/>
<path d="M915.581 203.356C887.486 202.912 856.269 201.893 829.735 202.912C736.085 206.512 633.07 207.874 534.738 210.456C423.919 213.381 314.661 209.896 203.842 208.433C163.261 207.874 124.24 207.53 85.219 208.433C61.8534 208.978 38.3317 209.452 14.7007 209.868C6.66247 210.011 -1.37581 210.14 -9.42969 210.284V215.848H1161.19V207.214C1081.51 205.522 1000.35 204.748 915.581 203.371V203.356Z" fill="#DEFAE2"/>
<g style="mix-blend-mode:multiply" opacity="0.34">
<path d="M-9.42969 215.834V234.565C-1.37581 235.009 6.66247 235.468 14.7007 235.941C38.3317 237.347 61.8534 238.924 85.219 240.76C124.24 243.801 163.261 242.653 203.842 240.76C314.661 235.827 423.919 224.081 534.738 233.933C633.07 242.653 736.085 247.214 829.735 259.347C856.269 262.761 887.486 259.347 915.581 257.827C1000.35 253.18 1081.51 250.556 1161.19 244.891V215.834H-9.42969Z" fill="#DEFAE2"/>
</g>
<path d="M1127.04 -97.7378H1109.08V414.226H1127.04V-97.7378Z" fill="#DEFAE2"/>
<path d="M454.823 21.874C298.054 21.874 141.378 2.92833 -9.63281 -35.1925L-9.227 -36.5693C338.932 51.318 717.527 37.2198 1056.82 -76.2534L1057.35 -74.9053C864.916 -10.5387 659.807 21.874 454.808 21.874H454.823Z" fill="#DEFAE2"/>
<path d="M466.233 21.8737C305.608 21.8737 145.092 2.92802 -9.63281 -35.1928L-9.227 -36.584C347.501 51.3033 735.414 37.2196 1083.06 -76.2681L1083.57 -74.9199C886.424 -10.5677 676.258 21.8594 466.233 21.8594V21.8737Z" fill="#DEFAE2"/>
<path d="M487.039 21.8738C319.406 21.8738 151.866 4.66353 -9.60156 -29.9722L-9.24257 -31.3634C363.125 48.4924 768.02 35.6851 1130.9 -67.4189L1131.35 -66.0421C925.585 -7.58447 706.242 21.8738 487.039 21.8738Z" fill="#DEFAE2"/>
<path d="M499.245 21.8738C327.491 21.8738 155.846 4.66353 -9.60156 -29.9722L-9.25818 -31.3634C372.271 48.4924 787.14 35.6851 1158.93 -67.4189L1159.38 -66.0421C948.561 -7.58447 723.832 21.8738 499.245 21.8738Z" fill="#DEFAE2"/>
<mask id="mask0_42_2623" style="mask-type:luminance" maskUnits="userSpaceOnUse" x="-10" y="-98" width="1172" height="718">
<path d="M1161.19 -97.7378H-9.42969V619.358H1161.19V-97.7378Z" fill="white"/>
</mask>
<g mask="url(#mask0_42_2623)">
<path d="M25.7659 327.916C26.7961 314.722 28.1852 301.57 30.1987 288.491C36.5825 246.87 50.0368 205.451 76.6178 170.786C80.6135 165.566 71.7168 159.987 67.721 165.193C52.6746 184.827 41.4835 206.799 33.5232 229.631C22.4257 261.485 17.5247 294.629 15.0898 327.902H25.7659V327.916Z" fill="#3E2723"/>
<path d="M-43.1456 89.6539C-40.2269 88.3775 -37.5579 89.7543 -35.9658 92.006C0.104969 143.192 21.7381 202.941 26.4986 263.75C27.8409 280.875 27.9034 298.071 26.6235 315.209C26.1552 321.563 15.4167 320.717 15.885 314.349C20.3489 254.744 8.04959 194.35 -19.2961 140.152C-26.9598 124.964 -35.7941 110.292 -45.7054 96.2369C-47.2974 93.9852 -45.5181 90.6865 -43.1456 89.6396V89.6539Z" fill="#3E2723"/>
<path d="M101.841 186.935C133.526 159.456 146.075 114.795 132.855 76.6456C124.988 53.9567 109.068 34.1505 101.591 11.3469C94.7706 -9.46324 95.3325 -31.6502 96.8309 -53.3352C98.3293 -75.0202 100.717 -96.8916 97.3304 -118.404C93.959 -139.917 84.0321 -161.488 65.3178 -174.768C46.6034 -188.049 18.0246 -190.716 -0.424393 -177.12C-14.3782 -166.837 -20.2001 -149.713 -21.7765 -133.349C-25.3352 -96.4183 -11.2565 -58.527 -21.121 -22.5718C-32.0624 17.2558 -70.2091 46.5706 -83.9444 85.6524C-92.0919 108.815 -90.9057 134.63 -80.6979 157.089C-74.595 170.513 -65.2769 182.675 -53.7267 192.614C-45.2982 199.871 -35.2777 207.616 -23.9617 210.613C-19.2948 211.847 -14.425 212.378 -9.61768 212.951C-2.39104 213.812 4.82 215.002 12.0779 215.49C27.3584 216.537 42.8574 214.83 57.4668 210.599C72.0606 206.368 85.8115 199.599 97.5021 190.506C98.9849 189.344 100.436 188.154 101.857 186.935H101.841Z" fill="#7F9C5C"/>
<path d="M90.1984 186.95C117.123 159.47 127.783 114.853 116.545 76.7176C109.865 54.043 96.3325 34.2368 89.9799 11.4619C84.1736 -9.33391 84.6575 -31.5209 85.9374 -53.1915C87.2173 -74.8621 89.2307 -96.7192 86.3588 -118.218C83.4869 -139.716 75.0584 -161.287 59.1535 -174.553C43.2487 -187.819 18.9621 -190.501 3.2914 -176.905C-8.5709 -166.622 -13.5031 -149.512 -14.861 -133.148C-17.8891 -96.2316 -5.91749 -58.3546 -14.3148 -22.4281C-23.6017 17.3851 -56.0201 46.6713 -67.6951 85.7387C-74.6096 108.887 -73.6107 134.688 -64.9325 157.133C-59.7505 170.557 -51.8371 182.704 -42.0195 192.643C-34.8553 199.886 -26.3488 207.631 -16.734 210.642C-12.7695 211.876 -8.63334 212.407 -4.54396 212.98C1.5901 213.841 7.72416 215.031 13.8894 215.519C26.8755 216.566 40.049 214.859 52.4576 210.628C64.8661 206.397 76.5412 199.628 86.4837 190.535C87.7479 189.388 88.981 188.197 90.1828 186.964L90.1984 186.95Z" fill="#003E1B"/>
<path d="M851.711 327.916C852.741 314.722 854.131 301.57 856.144 288.491C862.528 246.87 875.982 205.451 902.563 170.786C906.559 165.566 897.662 159.987 893.666 165.193C878.62 184.827 867.429 206.799 859.469 229.631C848.371 261.485 843.47 294.629 841.035 327.902H851.711V327.916Z" fill="#3E2723"/>
<path d="M782.784 89.6539C785.703 88.3775 788.372 89.7543 789.964 92.006C826.035 143.192 847.668 202.941 852.428 263.75C853.771 280.875 853.833 298.071 852.553 315.209C852.085 321.563 841.346 320.717 841.815 314.349C846.279 254.744 833.979 194.35 806.634 140.152C798.97 124.964 790.136 110.292 780.224 96.2369C778.632 93.9852 780.412 90.6865 782.784 89.6396V89.6539Z" fill="#3E2723"/>
<path d="M927.771 186.935C959.456 159.456 972.005 114.795 958.785 76.6456C950.918 53.9567 934.998 34.1505 927.521 11.3469C920.7 -9.46324 921.262 -31.6502 922.761 -53.3352C924.259 -75.0202 926.647 -96.8916 923.26 -118.404C919.889 -139.917 909.962 -161.488 891.247 -174.768C872.518 -188.049 843.954 -190.716 825.505 -177.12C811.551 -166.837 805.73 -149.713 804.153 -133.349C800.594 -96.4183 814.673 -58.527 804.809 -22.5718C793.867 17.2558 755.721 46.5706 741.985 85.6524C733.838 108.815 735.024 134.63 745.232 157.089C751.335 170.513 760.653 182.675 772.203 192.614C780.631 199.871 790.652 207.616 801.968 210.613C806.635 211.847 811.505 212.378 816.312 212.951C823.539 213.812 830.75 215.002 838.008 215.49C853.288 216.537 868.787 214.83 883.397 210.599C897.99 206.368 911.741 199.599 923.432 190.506C924.915 189.344 926.366 188.154 927.787 186.935H927.771Z" fill="#7F9C5C"/>
<path d="M916.128 186.95C943.052 159.47 953.713 114.853 942.475 76.7176C935.795 54.043 922.262 34.2368 915.91 11.4619C910.103 -9.33391 910.587 -31.5209 911.867 -53.1915C913.147 -74.8621 915.16 -96.7192 912.288 -118.218C909.417 -139.716 900.988 -161.287 885.083 -174.553C869.178 -187.819 844.892 -190.501 829.221 -176.905C817.359 -166.622 812.427 -149.512 811.069 -133.148C808.041 -96.2316 820.012 -58.3546 811.615 -22.4281C802.328 17.3851 769.91 46.6713 758.235 85.7387C751.32 108.887 752.319 134.688 760.997 157.133C766.179 170.557 774.093 182.704 783.91 192.643C791.074 199.886 799.581 207.631 809.196 210.642C813.16 211.876 817.296 212.407 821.386 212.98C827.52 213.841 833.654 215.031 839.819 215.519C852.805 216.566 865.979 214.859 878.387 210.628C890.796 206.397 902.471 199.628 912.413 190.535C913.678 189.388 914.911 188.197 916.112 186.964L916.128 186.95Z" fill="#003E1B"/>
<path d="M969.444 271.682L856.487 329.121L48.6172 334.04V392.756H983.492V271.682H969.444Z" fill="#7D1F26"/>
<path d="M393.511 255.174C385.925 256.15 378.418 257.541 371.004 259.29L378.746 278.365C385.286 273.934 391.56 269.129 397.647 264.167C396.43 261.6 394.729 257.742 393.511 255.174Z" fill="#A15633"/>
<path d="M424.618 255.619C424.447 254.457 423.104 253.367 421.778 253.639C417.439 254.543 413.1 255.447 408.76 256.336C413.053 254.572 417.329 252.793 421.622 251.029C422.87 250.513 423.651 249.337 423.167 248.075C422.746 246.97 421.2 246.153 419.952 246.655C414.738 248.806 409.525 250.957 404.312 253.109C404.187 252.894 404.078 252.693 403.953 252.478C408.511 250.24 413.053 248.017 417.61 245.78C418.812 245.192 419.499 243.973 418.921 242.74C418.422 241.664 416.814 240.933 415.613 241.535C410.821 243.887 406.045 246.225 401.253 248.577C399.474 249.437 399.193 249.538 397.351 250.412C399.442 248.189 400.082 246.784 402.423 244.762C403.422 243.901 403.75 242.567 402.845 241.506C402.049 240.588 400.301 240.258 399.302 241.119C393.355 246.253 391.794 248.763 387.361 255.045C384.349 260.495 388.204 264.941 388.204 264.941C393.777 269.272 402.127 268.799 408.511 265.543C408.511 265.529 408.511 265.515 408.511 265.5C412.272 265.07 416.018 264.64 419.78 264.209C420.919 264.08 421.871 263.306 421.825 262.187C421.778 261.198 420.748 260.179 419.624 260.308C415.675 260.753 411.726 261.212 407.777 261.657C407.746 261.528 407.715 261.413 407.683 261.284C412.616 260.265 417.548 259.233 422.496 258.214C423.822 257.942 424.837 256.924 424.65 255.604L424.618 255.619Z" fill="#A15633"/>
<path d="M375.936 254.643C383.35 265.486 385.301 279.354 381.149 291.574C362.966 301.627 343.892 309.544 323.804 315.84C305.995 321.433 286.298 325.42 268.629 319.497C264.571 318.135 260.606 316.199 257.844 313.144C255.081 310.089 253.676 305.786 255.097 302.043C257.141 296.679 263.759 294.284 269.612 292.477C306.308 281.133 341.239 270.419 375.952 254.643H375.936Z" fill="#2C4E63"/>
<path d="M249.805 266.82C252.77 275.683 253.519 285.149 251.974 294.313C260.621 295.231 268.738 294.629 277.369 293.553C276.979 286.081 276.604 278.609 276.214 271.137C276.167 270.276 276.105 269.358 275.496 268.713C274.856 268.024 273.81 267.824 272.843 267.68C264.586 266.447 258.155 266.404 249.805 266.82Z" fill="#6E311F"/>
<path d="M276.075 225.73C281.366 229.502 281.366 232.958 284.222 238.523C285.331 240.674 289.826 239.986 292.698 239.756C294.758 239.584 296.584 241.019 296.6 242.912C296.6 244.246 296.366 245.594 295.866 246.827C295.429 247.931 294.774 248.892 293.962 249.781C293.369 250.427 293.431 251.259 293.431 251.259C294.087 252.363 299.831 265.4 294.555 270.204C283.66 280.143 267.053 284.03 253.958 271.997C250.914 274.765 245.67 274.593 242.033 272.542C238.396 270.477 236.757 265.773 238.646 262.245C240.535 258.716 245.81 257.053 249.556 258.96C250.508 254.285 251.476 248.218 250.961 243.485C250.305 242.768 249.556 241.908 248.791 241.004C246.419 238.193 246.325 234.307 248.526 231.395C250.727 228.484 252.99 225.558 255.94 223.679C260.607 220.725 271.595 222.532 276.075 225.73Z" fill="#A15633"/>
<path d="M282.254 258.659C285.813 258.716 289.387 258.329 292.821 257.483C293.164 258.429 293.305 259.147 293.32 260.136C293.32 261.126 292.992 262.173 292.165 262.818C291.416 263.406 290.355 263.578 289.387 263.463C288.419 263.349 287.498 262.961 286.64 262.517C284.939 261.642 283.596 259.935 282.254 258.659Z" fill="white"/>
<path d="M275.309 237.461C276.323 238.652 277.322 239.842 278.337 241.033" stroke="#231F20" stroke-width="1.4" stroke-linecap="round" stroke-linejoin="round"/>
<path d="M273.405 229.588C271.173 229.459 269.05 230.65 267.63 232.241C266.209 233.819 265.366 235.77 264.555 237.677" stroke="#231F20" stroke-width="1.4" stroke-linecap="round" stroke-linejoin="round"/>
<path d="M250.088 264.511C247.607 262.79 243.954 262.603 241.285 264.08" stroke="#231F20" stroke-width="1.4" stroke-linecap="round" stroke-linejoin="round"/>
<path d="M246.561 295.662C245.858 291.029 240.395 291.904 241.285 287.315C241.878 284.274 288.094 278.753 289.827 279.484C296.382 282.252 289.187 285.809 292.324 291.775C300.269 296.02 305.638 302.574 309.993 310.075C312.724 314.779 314.925 319.713 316.798 324.747L351.776 403.642C352.604 405.879 297.428 406.295 282.007 409.981C279.838 410.497 277.559 410.985 275.358 410.569C270.878 409.723 268.241 405.549 266.305 401.749C256.16 381.799 244.579 340.523 242.159 318.623C241.348 311.28 241.753 301.599 246.53 295.662H246.561Z" fill="#457B9D"/>
<path d="M216.513 223.134C220.494 222.647 224.411 221.729 227.627 219.534C232.325 216.336 238.24 214.543 244.125 214.285C252.896 213.912 262.059 217.455 269.644 221.528C258.781 238.208 252.662 257.483 252.069 276.916C245.514 276.515 238.053 275.396 232.059 272.944C226.066 270.491 220.743 265.945 219.198 260.079C218.324 256.766 218.449 252.836 215.624 250.642C213.61 249.079 210.395 248.735 209.224 246.555C208.116 244.475 209.568 241.836 208.569 239.714C207.445 237.333 204.167 236.989 201.498 235.87C199.953 235.224 198.798 234.034 198.205 232.571C196.332 227.953 201.436 224.927 205.151 226.203C206.29 226.591 207.305 227.336 208.522 227.437C210.036 227.58 211.425 226.691 212.533 225.744C213.642 224.798 214.687 223.694 216.108 223.206C216.233 223.163 216.357 223.134 216.513 223.12V223.134Z" fill="#A8DADC"/>
<path d="M257.343 217.598C245.825 234.048 239.347 253.439 238.801 272.987" stroke="#457B9D" stroke-miterlimit="10"/>
<path d="M373.658 225.73C366.806 228.885 360.173 232.385 353.742 236.228L367.696 252.047C372.347 245.923 376.64 239.541 380.698 233.059C378.653 230.979 375.703 227.824 373.658 225.744V225.73Z" fill="#A15633"/>
<path d="M403.313 217.039C402.735 215.992 401.096 215.347 399.926 216.006C396.117 218.129 392.324 220.252 388.516 222.374C391.965 219.448 395.415 216.508 398.864 213.583C399.863 212.736 400.191 211.388 399.301 210.327C398.521 209.395 396.757 209.079 395.758 209.925C391.559 213.497 387.361 217.053 383.162 220.624C382.975 220.467 382.803 220.295 382.6 220.137C386.143 216.695 389.687 213.238 393.23 209.796C394.166 208.878 394.4 207.53 393.417 206.526C392.558 205.651 390.795 205.436 389.858 206.354C386.128 209.983 382.413 213.597 378.683 217.225C377.294 218.559 377.059 218.746 375.608 220.108C376.825 217.383 376.95 215.863 378.464 213.267C379.104 212.163 378.964 210.8 377.731 210.054C376.669 209.409 374.89 209.624 374.234 210.729C370.379 217.34 369.77 220.18 367.741 227.422C366.773 233.46 371.971 236.558 371.971 236.558C378.761 239.039 386.502 236.142 391.435 231.18C391.435 231.166 391.419 231.151 391.403 231.137C394.822 229.631 398.224 228.125 401.642 226.619C402.673 226.16 403.313 225.156 402.876 224.095C402.485 223.163 401.174 222.518 400.128 222.962C396.539 224.54 392.949 226.132 389.374 227.709C389.296 227.609 389.234 227.494 389.171 227.379C393.495 224.97 397.818 222.546 402.142 220.137C403.313 219.491 403.921 218.229 403.266 217.025L403.313 217.039Z" fill="#A15633"/>
<path d="M356.817 230.377C367.603 238.494 374.252 251.058 374.549 263.865C360.798 278.709 345.455 291.803 328.613 303.65C313.676 314.162 296.382 323.714 277.574 323.255C273.251 323.155 268.833 322.466 265.15 320.401C261.466 318.322 258.641 314.65 258.688 310.677C258.766 304.998 264.213 300.781 269.13 297.354C299.988 275.855 329.378 255.49 356.817 230.377Z" fill="#457B9D"/>
<path d="M356.817 230.377C367.603 238.494 374.252 251.058 374.549 263.865C360.798 278.709 345.455 291.803 328.613 303.65C313.676 314.162 296.382 323.714 277.574 323.255C273.251 323.155 268.833 322.466 265.15 320.401C261.466 318.322 258.641 314.65 258.688 310.677" stroke="#231F20" stroke-width="1.5" stroke-linecap="round" stroke-linejoin="round"/>
<path d="M377.437 96.0645C374.346 93.3395 373.816 87.8752 377.499 85.853C372.224 85.6379 367.619 81.1058 367.728 76.2583C367.838 71.4107 372.661 67.0651 377.936 67.0651C375.548 63.9673 373.956 60.0089 375.096 56.3517C376.235 52.6945 380.949 49.9408 384.679 51.5902C383.493 47.7465 385.054 43.3292 388.441 40.8337C391.828 38.3382 396.869 37.9367 400.693 39.8585C402.691 36.8897 404.954 33.7201 408.513 32.5011C412.072 31.282 417.082 33.3472 416.91 36.8467C420.001 33.7775 423.403 30.5506 427.867 29.7187C432.331 28.8869 437.841 31.8844 437.357 36.0435C439.87 32.6158 445.458 31.4828 449.297 33.6197C453.153 35.7567 454.667 40.8194 452.544 44.4622C455.869 42.1245 461.144 42.5978 463.907 45.4805C466.67 48.3632 466.513 53.2395 463.563 55.9645C467.169 54.143 472.226 55.4051 474.333 58.6464C476.44 61.8877 475.254 66.5775 471.805 68.6427C475.129 70.5072 477.127 74.2217 476.706 77.7785C476.3 81.3497 473.49 84.5766 469.807 85.767C473.99 85.896 476.113 91.1882 474.068 94.5442C472.023 97.9002 467.544 99.3488 463.376 99.6356C466.529 101.041 465.842 105.774 462.97 107.595C460.098 109.431 456.29 109.216 452.809 108.929C455.057 109.388 456.009 112.213 454.885 114.064C453.761 115.914 451.264 116.76 448.954 116.674C446.644 116.588 444.475 115.742 442.336 114.924C433.627 111.597 424.73 108.642 415.708 106.104C411.151 104.813 406.562 103.637 401.926 102.547C397.868 101.6 393.716 100.482 389.533 100.052C385.319 99.6213 380.59 98.8468 377.406 96.0358L377.437 96.0645Z" fill="#231F20"/>
<path d="M437.451 98.488C447.737 111.037 458.741 123.099 470.322 134.572C471.852 140.28 470.712 145.788 468.106 150.018C465.499 154.264 460.91 157.017 455.525 157.577C445.598 147.638 436.483 138 428.102 126.885L437.451 98.4736V98.488Z" fill="#E28450"/>
<path d="M437.451 98.4878C440.385 102.059 443.382 105.587 446.426 109.086C447.222 122.668 449.563 137.025 447.612 149.502C440.698 142.288 434.204 134.988 428.117 126.899L437.467 98.4878H437.451Z" fill="#6E311F"/>
<path d="M449.531 91.3457C447.471 88.3913 443.241 86.7707 439.589 87.7889C435.936 88.8072 433.345 92.5361 434.173 95.9638C430.676 91.1593 420.437 89.6247 420.437 89.6247C420.359 86.7133 410.105 75.5409 407.202 75.6557C403.456 75.7991 389.783 78.4093 385.568 85.3938C381.557 92.0628 389.111 102.389 391.343 109.818C392.342 113.848 390.064 117.477 391.297 123.787C391.531 124.963 396.962 124.92 398.258 124.805C400.381 129.223 413.632 141.815 416.473 140.668C436.686 132.507 439.464 114.909 440.213 106.806C443.99 106.347 447.596 104.354 449.547 101.328C451.482 98.3016 451.592 94.2858 449.547 91.3314L449.531 91.3457Z" fill="#E28450"/>
<path d="M446.723 92.0055C446.442 90.8151 445.021 90.0263 443.71 90.1554C442.384 90.2701 441.244 91.1306 440.589 92.1919C439.933 93.2533 439.699 94.4867 439.621 95.7057C439.543 96.9248 439.59 98.1438 439.465 99.3629" stroke="#231F20" stroke-width="1.5" stroke-linecap="round" stroke-linejoin="round"/>
<path d="M399.242 96.1504C397.276 95.462 395.044 95.4476 393.077 96.1217C391.11 96.7958 389.425 98.1583 388.441 99.865" stroke="#231F20" stroke-width="1.5" stroke-linecap="round" stroke-linejoin="round"/>
<path d="M394.793 102.475C395.776 104.239 396.76 105.989 397.743 107.753" stroke="#231F20" stroke-width="1.5" stroke-linecap="round" stroke-linejoin="round"/>
<path d="M403.254 128.104C406.75 126.455 408.967 125.422 412.463 123.773C412.681 127.502 411.058 131.087 407.827 133.353L403.254 128.104Z" fill="white"/>
<path d="M415.429 93.7123C413.587 94.8166 411.948 93.6263 412.01 91.7905C412.073 89.9547 410.793 88.5205 408.67 89.1946C407.952 89.4241 407.421 89.9404 406.625 89.7826C405.845 89.6249 405.189 89.0655 404.799 88.4632C403.675 86.6848 404.643 84.261 405.236 82.4682C405.533 81.5934 404.737 80.6468 403.754 80.6468C400.632 80.6468 398.369 82.6117 395.419 83.1136C392.094 83.6873 391.454 80.4317 392.937 78.3234C394.03 76.7745 391.329 75.326 390.237 76.8749C388.239 79.7146 388.551 84.3327 392.422 85.7095C394.108 86.3119 395.996 86.0537 397.666 85.4944C398.977 85.0498 400.242 84.347 401.568 83.9024C401.1 85.7956 400.944 87.7748 401.896 89.5675C402.864 91.3889 405.018 92.7944 407.265 92.6797C407.796 92.651 408.311 92.5363 408.795 92.3355C408.826 92.3355 408.842 92.3211 408.873 92.3068C408.904 93.3968 409.294 94.4438 410.044 95.3043C411.714 97.1974 414.726 97.5416 416.927 96.2365C418.597 95.2326 417.114 92.7084 415.429 93.7267V93.7123Z" fill="#231F20"/>
<path d="M573.055 210.083C543.087 171.431 511.403 111.97 474.661 125.164C474.52 125.207 474.38 125.279 474.255 125.322C473.755 124.619 473.256 123.917 472.788 123.2C471.477 121.249 468.808 120.446 466.544 121.393C456.305 125.709 447.471 132.837 441.54 141.658C439.277 145.014 437.372 148.943 438.215 152.816C439.433 158.452 445.77 161.808 450.046 166.068C450.249 183.264 437.95 197.735 455.182 211.833C466.654 221.212 473.974 211.876 486.757 232.327C492.454 241.449 507.188 268.125 507.766 278.637L504.27 302.689C539.248 320.516 612.732 333.796 635.676 309.774C635.676 309.774 606.52 253.209 573.055 210.069V210.083Z" fill="#F1FAEE"/>
<path d="M475.645 216.293C463.018 216.221 450.391 216.149 437.748 216.078C433.487 222.46 429.304 228.655 425.043 235.052C427.884 239.01 429.367 243.37 429.523 248.103C429.585 249.882 429.694 252.047 431.427 252.822C432.629 253.352 434.143 252.865 435.064 251.961C435.969 251.058 436.39 249.824 436.671 248.634C437.592 244.847 437.498 240.846 436.437 237.103C438.622 234.607 441.322 232.499 443.508 230.018C446.208 226.934 451.796 229.817 455.791 231.309C459.787 232.8 463.705 234.722 467.997 235.009C474.209 235.411 479.969 232.313 485.275 229.33C483.09 225.543 477.83 220.093 475.629 216.307L475.645 216.293Z" fill="#E28450"/>
<path d="M463.065 139.349C461.77 150.464 468.996 160.876 477.004 169.295C489.053 181.987 503.631 192.643 519.786 200.603C502.648 200.933 485.604 204.992 470.432 212.349C470.432 212.349 484.012 224.683 486.743 232.327" stroke="black" stroke-width="1.5" stroke-linecap="round" stroke-linejoin="round"/>
<path d="M495.844 233.618C517.118 233.446 538.33 230.921 559.167 226.977C564.989 225.873 571.653 224.023 573.807 218.932C575.867 214.07 572.73 208.763 569.624 204.403C551.597 179.219 530.135 156.114 505.895 135.792" stroke="black" stroke-width="1.5" stroke-linecap="round" stroke-linejoin="round"/>
<path d="M518.957 200.373C531.584 200.459 544.164 204.346 554.279 211.302" stroke="black" stroke-width="1.5" stroke-linecap="round" stroke-linejoin="round"/>
<path d="M827.691 262.474C806.51 295.934 784.674 329.035 762.198 361.778C759.67 365.463 766.116 368.748 768.645 365.062C791.121 332.319 812.957 299.218 834.137 265.758C836.525 261.986 830.079 258.702 827.691 262.474Z" fill="#231F20"/>
<path d="M804.652 306.762C800.672 304.41 797.035 310.29 801.015 312.642C813.596 320.085 834.511 332.075 847.2 339.375L849.198 331.745C836.587 324.488 817.17 314.162 804.652 306.747V306.762Z" fill="#231F20"/>
<path d="M623.515 158.251C623.515 159.011 621.986 159.714 621.939 160.474C621.892 161.234 623.297 162.124 623.203 162.855C623.094 163.601 621.486 164.132 621.315 164.863C621.159 165.609 622.439 166.656 622.22 167.373C622.001 168.104 620.331 168.42 620.066 169.137C619.801 169.854 620.925 171.044 620.612 171.747C620.3 172.45 618.583 172.565 618.224 173.239C617.865 173.913 618.802 175.232 618.38 175.892C617.975 176.552 616.258 176.451 615.805 177.082C615.352 177.713 616.086 179.133 615.586 179.721C615.087 180.324 613.401 180.022 612.855 180.596C612.309 181.17 612.855 182.661 612.262 183.192C611.684 183.723 610.061 183.235 609.437 183.737C608.812 184.239 609.14 185.788 608.485 186.247C607.829 186.706 606.284 186.017 605.613 186.448C604.926 186.863 605.035 188.441 604.317 188.814C603.615 189.187 602.179 188.326 601.43 188.671C600.696 189 600.571 190.578 599.806 190.865C599.057 191.152 597.746 190.119 596.966 190.363C596.185 190.607 595.842 192.141 595.046 192.342C594.25 192.543 593.111 191.367 592.314 191.51C591.518 191.654 590.941 193.145 590.129 193.246C589.318 193.346 588.35 192.041 587.538 192.084C586.727 192.127 585.946 193.532 585.119 193.532C584.292 193.532 583.527 192.127 582.7 192.084C581.873 192.041 580.905 193.332 580.109 193.246C579.297 193.145 578.72 191.668 577.924 191.51C577.112 191.367 575.973 192.543 575.192 192.342C574.396 192.141 574.053 190.607 573.272 190.363C572.492 190.119 571.196 191.152 570.432 190.865C569.667 190.578 569.542 189 568.808 188.671C568.075 188.341 566.639 189.201 565.921 188.814C565.203 188.441 565.312 186.863 564.625 186.448C563.939 186.032 562.393 186.706 561.753 186.247C561.098 185.788 561.426 184.239 560.801 183.737C560.177 183.235 558.554 183.737 557.976 183.192C557.399 182.661 557.929 181.17 557.383 180.596C556.837 180.022 555.151 180.324 554.652 179.721C554.152 179.119 554.901 177.699 554.433 177.082C553.981 176.451 552.264 176.552 551.858 175.892C551.452 175.247 552.388 173.927 552.014 173.239C551.655 172.565 549.938 172.45 549.626 171.747C549.314 171.059 550.437 169.854 550.172 169.137C549.907 168.42 548.237 168.104 548.018 167.373C547.8 166.641 549.08 165.594 548.923 164.863C548.767 164.132 547.144 163.601 547.035 162.855C546.926 162.109 548.346 161.22 548.299 160.474C548.252 159.729 546.723 159.011 546.723 158.251C546.723 157.491 548.252 156.788 548.299 156.028C548.346 155.268 546.941 154.379 547.035 153.648C547.144 152.902 548.752 152.371 548.923 151.64C549.08 150.894 547.8 149.847 548.018 149.13C548.237 148.398 549.907 148.083 550.172 147.366C550.437 146.649 549.314 145.458 549.626 144.756C549.938 144.053 551.655 143.938 552.014 143.264C552.373 142.59 551.436 141.271 551.858 140.611C552.264 139.951 553.981 140.051 554.433 139.42C554.886 138.789 554.152 137.37 554.652 136.781C555.151 136.179 556.837 136.48 557.383 135.907C557.929 135.333 557.383 133.841 557.976 133.311C558.554 132.78 560.177 133.268 560.801 132.766C561.41 132.264 561.098 130.715 561.753 130.256C562.409 129.797 563.954 130.485 564.625 130.055C565.312 129.639 565.203 128.062 565.921 127.689C566.623 127.316 568.059 128.176 568.808 127.832C569.542 127.502 569.667 125.925 570.432 125.638C571.181 125.351 572.492 126.384 573.272 126.14C574.053 125.896 574.396 124.361 575.192 124.161C575.988 123.96 577.128 125.136 577.924 124.992C578.72 124.849 579.297 123.357 580.109 123.257C580.92 123.157 581.888 124.462 582.7 124.419C583.511 124.376 584.292 122.97 585.119 122.97C585.946 122.97 586.711 124.376 587.538 124.419C588.366 124.462 589.333 123.171 590.129 123.257C590.941 123.357 591.518 124.835 592.314 124.992C593.126 125.136 594.266 123.96 595.046 124.161C595.842 124.361 596.185 125.896 596.966 126.14C597.746 126.384 599.042 125.351 599.806 125.638C600.571 125.925 600.696 127.502 601.43 127.832C602.163 128.162 603.599 127.301 604.317 127.689C605.035 128.062 604.926 129.639 605.613 130.055C606.3 130.471 607.845 129.797 608.485 130.256C609.14 130.715 608.812 132.264 609.437 132.766C610.061 133.268 611.684 132.766 612.262 133.311C612.839 133.841 612.309 135.333 612.855 135.907C613.401 136.466 615.087 136.179 615.586 136.781C616.086 137.384 615.337 138.804 615.805 139.42C616.258 140.051 617.975 139.951 618.38 140.611C618.786 141.256 617.85 142.576 618.224 143.264C618.583 143.938 620.3 144.053 620.612 144.756C620.925 145.444 619.801 146.649 620.066 147.366C620.331 148.083 622.001 148.398 622.22 149.13C622.439 149.861 621.159 150.908 621.315 151.64C621.471 152.371 623.094 152.902 623.203 153.648C623.313 154.393 621.892 155.283 621.939 156.028C621.986 156.774 623.515 157.491 623.515 158.251Z" fill="#231F20"/>
<path d="M571.574 173.597C570.044 188.398 567.437 203.098 563.754 217.569C566.36 222.948 571.605 226.978 577.474 229.344C583.342 231.711 590.163 231.997 596.235 230.119C599.31 217.627 601.744 205.737 602.322 192.944L571.574 173.597Z" fill="#E28450"/>
<path d="M571.572 173.597C571.135 177.814 570.605 182.016 569.996 186.218C579.174 197.763 587.321 210.585 598.575 220.022C600.495 211.087 601.915 202.267 602.321 192.959L571.572 173.612V173.597Z" fill="#6E311F"/>
<path d="M562.301 171.762C563.206 168.549 566.234 165.853 569.84 165.767C573.446 165.695 577.238 168.678 577.597 171.977C579.189 166.713 590.037 161.808 590.037 161.808C589.179 159.169 598.669 147.094 601.322 146.405C604.725 145.516 615.432 144.211 621.457 149.345C627.201 154.25 624.625 163.558 625.015 170.844C626.857 173.927 628.699 177.025 630.541 180.109C631.274 181.342 632.023 182.705 631.54 184.124C631.118 185.329 629.87 186.333 628.465 186.964C627.372 187.452 626.17 187.753 624.984 188.011C624.5 192.557 621.394 209.667 611.826 208.678C585.105 205.895 578.659 191.611 576.115 183.393C572.571 184.01 570.886 183.751 568.17 181.557C565.454 179.363 561.412 174.989 562.301 171.762Z" fill="#E28450"/>
<path d="M631.523 184.124C631.101 185.329 629.837 186.333 628.432 186.964C627.34 187.466 626.154 187.767 624.952 188.011C624.92 188.355 624.874 188.757 624.796 189.216C624.702 189.904 624.577 190.707 624.405 191.597C623.781 194.809 622.626 199.112 620.722 202.597C612.371 203.056 603.974 202.066 597.294 198.552C595.046 197.376 593.017 195.913 591.238 194.121C589.755 192.615 588.444 190.879 587.367 188.9C582.481 181.729 580.312 173.712 583.356 165.638C586.633 163.357 590.036 161.823 590.036 161.823C589.162 159.184 598.667 147.094 601.321 146.405C604.723 145.516 615.431 144.211 621.455 149.345C627.199 154.25 624.624 163.558 625.014 170.844C626.856 173.927 628.698 177.025 630.539 180.109C631.273 181.342 632.022 182.705 631.538 184.124H631.523Z" fill="#E28450"/>
<path d="M565.751 171.532C565.595 170.414 566.532 169.381 567.64 169.152C571.823 168.32 573.493 171.791 574.039 176.194" stroke="#231F20" stroke-width="1.5" stroke-linecap="round" stroke-linejoin="round"/>
<path d="M612.621 162.697C614.166 161.55 616.164 160.933 618.162 161.005C620.16 161.077 622.095 161.837 623.531 163.113" stroke="#231F20" stroke-width="2" stroke-linecap="round" stroke-linejoin="round"/>
<path d="M618.648 167.187C618.32 169.037 618.008 170.887 617.68 172.723" stroke="#231F20" stroke-width="1.5" stroke-linecap="round" stroke-linejoin="round"/>
<path d="M620.425 195.411C616.164 195.584 611.84 194.336 608.453 191.955" stroke="#231F20" stroke-width="2" stroke-linecap="round" stroke-linejoin="round"/>
<path d="M624.405 191.596C624.577 190.707 624.702 189.904 624.796 189.216C619.66 188.212 614.541 187.079 609.5 185.745C603.022 187.681 596.857 190.506 591.269 194.092C589.786 192.586 588.46 190.879 587.383 188.886C582.497 181.7 580.328 173.698 583.371 165.623C581.155 167.158 579.001 169.051 578.002 171.016L576.191 183.636C578.798 191.897 585.385 205.909 611.81 208.663C615.836 209.079 618.708 206.297 620.722 202.582C612.371 203.041 603.974 202.052 597.309 198.523C601.196 194.995 605.363 191.84 609.687 188.656C614.744 189.273 619.551 190.348 624.405 191.568V191.596Z" fill="#231F20"/>
<path d="M605.692 236.831C605.567 229.688 605.645 233.116 605.52 225.974C589.1 223.464 571.744 221.169 559.226 210.083C558.024 218.258 553.872 224.683 553.872 224.683C541.355 232.829 535.127 246.024 531.084 259.62C510.497 328.848 567.936 464.896 567.936 464.896C573.726 465.283 580.516 464.437 587.742 462.788C624.453 454.383 653.453 428.51 664.723 395.323L668.328 384.696C629.058 311.796 629.495 272.442 605.676 236.845L605.692 236.831Z" fill="#457B9D"/>
<path d="M561.473 226.247C573.507 228.871 585.556 231.496 597.59 234.106" stroke="#231F20" stroke-width="1.5" stroke-linecap="round" stroke-linejoin="round"/>
<path d="M741.531 322.638C749.491 319.655 757.467 316.686 765.428 313.703C777.524 309.186 786.936 298.917 799.984 298.472C800.406 298.458 800.827 298.472 801.249 298.472C804.339 298.601 805.853 302.187 803.527 304.051L803.481 304.094C806.712 303.09 811.207 303.119 814.578 303.635C816.888 303.994 819.401 304.883 819.682 307.465C819.76 308.167 819.62 308.87 819.323 309.53C818.371 311.652 816.295 312.886 814.282 314.062C815.889 317.862 814.016 322.308 809.864 323.771C810.348 326.152 809.755 329.365 807.554 330.713C807.523 334.886 804.058 339.002 799.563 339.576C782.238 341.813 765.115 343.276 747.79 345.585" fill="#E28450"/>
<path d="M805.415 303.851C797.096 305.113 788.886 306.977 780.895 309.444" stroke="#231F20" stroke-width="1.5" stroke-linecap="round" stroke-linejoin="round"/>
<path d="M561.473 276.888C581.186 310.706 603.147 343.42 627.184 374.8C632.881 382.229 639.155 389.931 648.317 393.358C658.588 397.216 670.294 394.879 680.798 391.609C709.018 382.846 734.834 367.6 755.234 347.636C758.059 336.564 758.449 323.814 752.768 315.582C731.697 321.964 696.266 334.169 675.195 340.537C654.155 313.46 643.916 278.953 619.177 254.658C612.137 247.745 603.412 241.592 593.204 240.258C582.997 238.925 571.322 243.844 568.418 252.937" fill="#457B9D"/>
<path d="M561.473 276.888C581.186 310.706 603.147 343.42 627.184 374.8C632.881 382.229 639.155 389.931 648.317 393.358C658.588 397.216 670.294 394.879 680.798 391.609C709.018 382.846 734.834 367.6 755.234 347.636C758.122 336.321 758.449 323.814 752.768 315.582C731.697 321.964 696.266 334.169 675.195 340.537C654.155 313.46 643.916 278.953 619.177 254.658C612.137 247.745 603.412 241.592 593.204 240.258C582.997 238.925 571.322 243.844 568.418 252.937" stroke="#231F20" stroke-width="1.5" stroke-linecap="round" stroke-linejoin="round"/>
<path d="M562.816 318.58C574.226 325.78 586.432 331.918 599.168 336.88" stroke="#231F20" stroke-width="1.5" stroke-linecap="round" stroke-linejoin="round"/>
<path d="M674.6 340.609C667.826 346.589 663.362 354.75 662.176 363.312" stroke="#231F20" stroke-width="1.5" stroke-linecap="round" stroke-linejoin="round"/>
<path d="M145.981 375.345L129.92 262.216C128.125 249.624 112.017 243.686 101.263 251.675L14.9023 315.826L30.0424 380.207L145.981 375.359V375.345Z" fill="#231F20"/>
<path d="M802.293 365.392L838.411 304.941C853.41 279.842 884.205 266.39 914.86 271.553L1028.07 290.642L936.228 362.251L802.309 365.392H802.293Z" fill="#231F20"/>
<path opacity="0.6" d="M811.754 104.555H854.802L1075.57 341.641L971.52 300.538L811.754 104.555Z" fill="#A8DADC"/>
<path d="M547.756 383.133C542.496 354.592 535.145 326.396 525.795 298.759C521.066 284.819 515.759 270.879 507.268 258.545C498.762 246.21 486.743 235.468 471.822 230.434C461.505 226.949 448.253 227.007 441.323 234.866C435.423 241.549 436.297 251.158 437.468 259.706C446.802 327.314 456.135 394.907 465.469 462.501C465.578 463.318 473.258 464.867 474.35 465.126C477.488 465.886 480.672 466.488 483.887 466.933C490.177 467.807 496.576 468.08 502.929 467.75C513.433 467.219 524.593 465.283 534.114 460.995C549.036 454.269 550.612 439.281 551.486 425.527C552.392 411.315 550.347 397.102 547.772 383.118L547.756 383.133Z" fill="#4A73C5"/>
<path d="M471.806 230.434C461.489 226.949 448.238 227.007 441.307 234.866C435.408 241.549 436.282 251.158 437.452 259.706C446.786 327.314 456.12 394.907 465.453 462.501C465.563 463.318 473.242 464.867 474.335 465.126C477.472 465.886 480.656 466.488 483.871 466.933C490.161 467.807 496.561 468.08 502.913 467.75C513.418 467.219 524.578 465.283 534.099 460.995C549.02 454.269 550.597 439.281 551.471 425.527C552.376 411.315 550.331 397.102 547.756 383.118C542.496 354.578 535.145 326.382 525.795 298.745" stroke="#231F20" stroke-width="1.5" stroke-linecap="round" stroke-linejoin="round"/>
<path d="M257.127 383.133C251.867 354.592 244.516 326.396 235.166 298.759C230.437 284.819 225.13 270.879 216.639 258.545C208.133 246.21 196.114 235.468 181.193 230.434C170.876 226.949 157.624 227.007 150.694 234.866C144.794 241.549 145.668 251.158 146.839 259.706C156.173 327.314 165.506 394.907 174.84 462.501C174.949 463.318 182.629 464.867 183.721 465.126C186.859 465.886 190.043 466.488 193.258 466.933C199.548 467.807 205.948 468.08 212.3 467.75C222.805 467.219 233.964 465.283 243.486 460.995C258.407 454.269 259.983 439.281 260.858 425.527C261.763 411.315 259.718 397.102 257.143 383.118L257.127 383.133Z" fill="#4A73C5"/>
<path d="M181.177 230.434C170.86 226.949 157.609 227.007 150.679 234.866C144.779 241.549 145.653 251.158 146.823 259.706C156.157 327.314 165.491 394.907 174.825 462.501C174.934 463.318 182.613 464.867 183.706 465.126C186.843 465.886 190.027 466.488 193.242 466.933C199.533 467.807 205.932 468.08 212.285 467.75C222.789 467.219 233.949 465.283 243.47 460.995C258.391 454.269 259.968 439.281 260.842 425.527C261.747 411.315 259.703 397.102 257.127 383.118C251.867 354.578 244.516 326.382 235.166 298.745" stroke="#231F20" stroke-width="1.5" stroke-linecap="round" stroke-linejoin="round"/>
<path d="M979.918 325.349L806.354 114.537C802.983 110.435 806.167 104.555 811.755 104.555L1004.88 332.247L979.918 325.349Z" fill="#F9BB8C"/>
<path d="M1411.38 621.438H-32.3438V335.646L14.8714 315.826L39.6573 353.043L856.487 348.066L969.444 290.627H1028.05L1088.41 324.101L1396.38 343.047C1423.74 349.085 1443.76 370.612 1445.98 396.384L1457.23 575.845C1459.34 600.427 1438.21 621.438 1411.38 621.438Z" fill="#F9BB8C"/>
<path d="M1446.82 409.737C1350.05 373.179 1247.76 356.485 1139.9 373.409C1096.35 379.662 1049.26 384.825 1016.18 411.702C1011.31 415.66 1006.75 420.063 1002.55 425.04C1006.75 420.077 1011.32 415.66 1016.18 411.702H-32.3438V541.826H1455.1L1446.81 409.737H1446.82Z" fill="#F8A96E"/>
<path d="M1396.38 343.047L1088.41 324.101L1028.05 290.627H969.444L856.487 348.066L39.6573 353.043L14.8714 315.826L-32.3438 335.646V411.701H1016.18C1049.25 384.825 1096.35 379.647 1139.9 373.409C1247.76 356.485 1350.05 373.179 1446.82 409.737L1445.98 396.384C1443.76 370.612 1423.74 349.085 1396.38 343.047Z" fill="#F9BB8C"/>
<path d="M1376.38 581.395C1376.38 595.221 1374.49 608.631 1370.93 621.438H1030.42C1026.87 608.631 1024.98 595.221 1024.98 581.395C1024.98 492.232 1103.64 419.948 1200.68 419.948C1297.72 419.948 1376.38 492.232 1376.38 581.395Z" fill="#7D1F26"/>
<path d="M1316.16 687.5C1379.94 628.898 1379.94 533.885 1316.16 475.284C1252.38 416.682 1148.98 416.682 1085.2 475.284C1021.43 533.885 1021.43 628.898 1085.2 687.5C1148.98 746.102 1252.38 746.102 1316.16 687.5Z" fill="#231F20"/>
<path d="M1200.68 676.855C1258.07 676.855 1304.59 634.11 1304.59 581.381C1304.59 528.652 1258.07 485.907 1200.68 485.907C1143.3 485.907 1096.78 528.652 1096.78 581.381C1096.78 634.11 1143.3 676.855 1200.68 676.855Z" fill="#5D5E61"/>
<path d="M1265.05 640.535C1300.6 607.871 1300.6 554.912 1265.05 522.248C1229.5 489.583 1171.86 489.583 1136.32 522.248C1100.77 554.912 1100.77 607.871 1136.32 640.535C1171.86 673.2 1229.5 673.2 1265.05 640.535Z" fill="#A3A5A8"/>
<path d="M-0.316406 322.208L31.1499 369.465L847.979 364.488L866.834 396.628V621.438" stroke="#231F20" stroke-width="1.5" stroke-linecap="round" stroke-linejoin="round"/>
<path d="M1088.41 324.101L1075.57 369.708H1440.07" stroke="#231F20" stroke-width="1.5" stroke-linecap="round" stroke-linejoin="round"/>
<path d="M957.676 298.329L1075.57 369.709" stroke="#231F20" stroke-width="1.5" stroke-linecap="round" stroke-linejoin="round"/>
<path d="M541.465 349.902V621.438" stroke="#231F20" stroke-width="1.5" stroke-linecap="round" stroke-linejoin="round"/>
<path d="M451.031 349.902V621.438" stroke="#231F20" stroke-width="1.5" stroke-linecap="round" stroke-linejoin="round"/>
<path d="M138.488 349.902V621.438" stroke="#231F20" stroke-width="1.5" stroke-linecap="round" stroke-linejoin="round"/>
<path d="M847.98 364.488L965.901 303.32" stroke="#231F20" stroke-width="1.5" stroke-linecap="round" stroke-linejoin="round"/>
<path d="M894.15 269.674H899.691C912.443 269.674 922.791 279.183 922.791 290.9V326.583C922.791 338.3 912.443 347.809 899.691 347.809H894.15C890.825 347.809 888.125 345.327 888.125 342.273V275.224C888.125 272.169 890.825 269.688 894.15 269.688V269.674Z" fill="#F9BB8C"/>
<path d="M902.766 271.165V345.614" stroke="#231F20" stroke-width="1.5" stroke-linecap="round" stroke-linejoin="round"/>
<path d="M231.858 397.432H167.77C160.124 397.432 153.926 403.127 153.926 410.153V410.167C153.926 417.193 160.124 422.889 167.77 422.889H231.858C239.504 422.889 245.703 417.193 245.703 410.167V410.153C245.703 403.127 239.504 397.432 231.858 397.432Z" stroke="#231F20" stroke-width="1.5" stroke-linecap="round" stroke-linejoin="round"/>
<path d="M640.499 397.432H576.411C568.765 397.432 562.566 403.127 562.566 410.153V410.167C562.566 417.193 568.765 422.889 576.411 422.889H640.499C648.145 422.889 654.343 417.193 654.343 410.167V410.153C654.343 403.127 648.145 397.432 640.499 397.432Z" stroke="#231F20" stroke-width="1.5" stroke-linecap="round" stroke-linejoin="round"/>
</g>
<path d="M1161.19 461.038H-9.42969V501.468H1161.19V461.038Z" fill="#231F20"/>
<path d="M1161.19 461.038H-9.42969V466.359H1161.19V461.038Z" fill="#393B59"/>
<path d="M110.146 481.246H63.7578V619.359H110.146V481.246Z" fill="#231F20"/>
<path d="M491.814 481.246H445.426V619.359H491.814V481.246Z" fill="#231F20"/>
<path d="M873.485 481.246H827.098V619.359H873.485V481.246Z" fill="#231F20"/>
<path d="M757.156 353.502H95.8945" stroke="#F1FAEE" stroke-miterlimit="10"/>
<path d="M830.951 112.357H708.301" stroke="#F1FAEE" stroke-miterlimit="10"/>
<path d="M743.872 98.8042H631.461" stroke="#F1FAEE" stroke-miterlimit="10"/>
<path d="M909.916 348.999H831.016" stroke="#F1FAEE" stroke-miterlimit="10"/>
<path d="M1155.65 375.445H939.555" stroke="#F1FAEE" stroke-miterlimit="10"/>
<path d="M537.984 450.038H318.078" stroke="#F1FAEE" stroke-miterlimit="10"/>
<path d="M166.802 233.733H83.9375" stroke="#F1FAEE" stroke-miterlimit="10"/>
<path d="M488.536 321.878H430.973" stroke="#F1FAEE" stroke-miterlimit="10"/>
</g>
</g>
<defs>
<clipPath id="clip0_42_2623">
<path d="M0 72C0 32.2355 32.2355 0 72 0H1071C1110.76 0 1143 32.2355 1143 72V523H0V72Z" fill="white"/>
</clipPath>
<clipPath id="clip1_42_2623">
<path d="M-9.63281 -13.7378C-9.63281 -60.1297 27.9753 -97.7378 74.3672 -97.7378H1029.19C1102.09 -97.7378 1161.19 -38.6394 1161.19 34.2622V619.698H-9.63281V-13.7378Z" fill="white"/>
</clipPath>
</defs>
</svg>
