<svg width="60" height="60" viewBox="0 0 60 60" fill="none" xmlns="http://www.w3.org/2000/svg">
<g id="Frame" clip-path="url(#clip0_1079_397)">
<path id="Vector" fill-rule="evenodd" clip-rule="evenodd" d="M29.9996 54.545C43.5555 54.545 54.545 43.5555 54.545 29.9996C54.545 16.445 43.5555 5.4541 29.9996 5.4541C16.445 5.4541 5.4541 16.445 5.4541 29.9996C5.4541 43.5555 16.445 54.545 29.9996 54.545Z" fill="#D9D9D9"/>
<g id="Mask group">
<mask id="mask0_1079_397" style="mask-type:luminance" maskUnits="userSpaceOnUse" x="0" y="0" width="60" height="60">
<g id="Group">
<path id="Vector_2" d="M60 0H0V60H60V0Z" fill="white"/>
<path id="Vector_3" fill-rule="evenodd" clip-rule="evenodd" d="M29.9996 54.545C43.5555 54.545 54.545 43.5555 54.545 29.9996C54.545 16.445 43.5555 5.4541 29.9996 5.4541C16.445 5.4541 5.4541 16.445 5.4541 29.9996C5.4541 43.5555 16.445 54.545 29.9996 54.545Z" fill="black"/>
</g>
</mask>
<g mask="url(#mask0_1079_397)">
<path id="Vector_4" d="M49.0909 30C49.0909 40.5435 40.5435 49.0909 30 49.0909V60C46.5683 60 60 46.5683 60 30H49.0909ZM30 10.9091C40.5432 10.9091 49.0909 19.4577 49.0909 30H60C60 13.4332 46.5686 0 30 0V10.9091ZM10.9091 30C10.9091 19.4579 19.4579 10.9091 30 10.9091V0C13.433 0 0 13.433 0 30H10.9091ZM30 49.0909C19.4577 49.0909 10.9091 40.5432 10.9091 30H0C0 46.5686 13.4332 60 30 60V49.0909Z" fill="white"/>
</g>
</g>
<path id="Vector_5" d="M54.545 29.9996C54.545 43.5555 43.5555 54.545 29.9996 54.545C16.445 54.545 5.4541 43.5555 5.4541 29.9996C5.4541 16.445 16.445 5.4541 29.9996 5.4541C43.5555 5.4541 54.545 16.445 54.545 29.9996Z" fill="#FFCC4D"/>
<path id="Vector_6" d="M29.0616 29.4707C28.8216 29.2757 28.4793 29.2702 28.2297 29.4516C28.2134 29.4639 26.5116 30.6816 23.1816 30.6816C19.8529 30.6816 18.1497 29.4639 18.1361 29.4543C17.8866 29.2675 17.5429 29.273 17.3029 29.4666C17.0602 29.6602 16.9784 29.993 17.1038 30.2766C17.1856 30.4607 19.1493 34.7725 23.1816 34.7725C27.2152 34.7725 29.1775 30.4607 29.2593 30.2766C29.3847 29.9943 29.3029 29.6643 29.0616 29.4707ZM42.6979 29.4707C42.4579 29.2757 42.117 29.2689 41.8661 29.4516C41.8497 29.4639 40.1465 30.6816 36.8179 30.6816C33.4906 30.6816 31.7861 29.4639 31.7725 29.4543C31.5229 29.2675 31.1806 29.273 30.9393 29.4666C30.6965 29.6602 30.6147 29.993 30.7402 30.2766C30.822 30.4607 32.7856 34.7725 36.8179 34.7725C40.8515 34.7725 42.8138 30.4607 42.8956 30.2766C43.0211 29.9943 42.9393 29.6643 42.6979 29.4707ZM35.4543 43.6361H24.5452C23.7925 43.6361 23.1816 43.0266 23.1816 42.2725C23.1816 41.5184 23.7925 40.9089 24.5452 40.9089H35.4543C36.2084 40.9089 36.8179 41.5184 36.8179 42.2725C36.8179 43.0266 36.2084 43.6361 35.4543 43.6361ZM13.6361 24.5452C12.8834 24.5452 12.2725 23.9343 12.2725 23.1816C12.2725 22.4302 12.8793 21.8207 13.6306 21.818C13.8434 21.8152 18.4975 21.7007 22.092 16.9089C22.5434 16.3089 23.397 16.1834 24.0011 16.6361C24.6038 17.0875 24.7252 17.9425 24.2738 18.5452C19.8243 24.477 13.887 24.5452 13.6361 24.5452ZM46.3634 24.5452C46.1125 24.5452 40.1765 24.477 35.727 18.5452C35.2743 17.9425 35.397 17.0875 35.9997 16.6361C36.6011 16.182 37.4547 16.3061 37.9075 16.9089C41.5088 21.7102 46.1725 21.8166 46.3702 21.818C47.1202 21.8261 47.7256 22.4398 47.7215 23.1884C47.7188 23.9398 47.1134 24.5452 46.3634 24.5452Z" fill="#664500"/>
</g>
<defs>
<clipPath id="clip0_1079_397">
<rect width="60" height="60" fill="white"/>
</clipPath>
</defs>
</svg>
