<svg width="49" height="49" viewBox="0 0 49 49" fill="none" xmlns="http://www.w3.org/2000/svg">
<rect x="0.5" y="0.5" width="48" height="48" rx="24" fill="#FFCC00" fill-opacity="0.1"/>
<path d="M24.4472 40.0272C32.7422 40.0272 39.4666 33.3027 39.4666 25.0077C39.4666 16.7127 32.7422 9.98828 24.4472 9.98828C16.1522 9.98828 9.42773 16.7127 9.42773 25.0077C9.42773 33.3027 16.1522 40.0272 24.4472 40.0272Z" fill="#FCEA2B"/>
<path d="M24.5031 37.1712C31.2137 37.1712 36.6537 31.7312 36.6537 25.0207C36.6537 18.3101 31.2137 12.8701 24.5031 12.8701C17.7925 12.8701 12.3525 18.3101 12.3525 25.0207C12.3525 31.7312 17.7925 37.1712 24.5031 37.1712Z" fill="white"/>
<path d="M35.117 19.1001C36.5496 21.6685 37.0016 24.6693 36.3893 27.5457C35.777 30.4222 34.1418 32.9787 31.7874 34.7409C29.4329 36.5031 26.5191 37.3512 23.5867 37.1278C20.6544 36.9044 17.9027 35.6246 15.8423 33.5261C13.782 31.4276 12.553 28.6529 12.3835 25.7169C12.214 22.7809 13.1154 19.8832 14.9205 17.5615C16.7256 15.2398 19.3118 13.6518 22.1989 13.0924C25.0861 12.533 28.0782 13.0401 30.6198 14.5195" stroke="black" stroke-width="1.11111" stroke-linecap="round" stroke-linejoin="round"/>
<path d="M39.4671 24.9983C39.4667 28.5717 38.1927 32.0281 35.8738 34.747C33.5549 37.4659 30.3429 39.2693 26.8142 39.8336C23.2856 40.3978 19.6713 39.686 16.6201 37.8259C13.569 35.9657 11.2806 33.079 10.1659 29.6839C9.05108 26.2887 9.18283 22.6074 10.5375 19.3006C11.8921 15.9939 14.3809 13.2781 17.5573 11.6409C20.7336 10.0036 24.3895 9.55197 27.8688 10.367C31.3481 11.1821 34.4229 13.2105 36.5416 16.0883" stroke="black" stroke-width="1.11111" stroke-linecap="round" stroke-linejoin="round"/>
<path d="M30.8301 16.9878L36.9623 16.3434L36.3179 10.2112M32.264 25.1967H24.4395V15.289M24.4395 34.9506V32.8145M16.2462 25.1967H14.5479" stroke="black" stroke-width="1.11111" stroke-linecap="round" stroke-linejoin="round"/>
<path d="M24.4394 27.2728C25.586 27.2728 26.5155 26.3433 26.5155 25.1967C26.5155 24.0501 25.586 23.1206 24.4394 23.1206C23.2928 23.1206 22.3633 24.0501 22.3633 25.1967C22.3633 26.3433 23.2928 27.2728 24.4394 27.2728Z" fill="black"/>
<path d="M31.5527 32.4538C32.0068 32.4538 32.3749 32.0856 32.3749 31.6315C32.3749 31.1774 32.0068 30.8093 31.5527 30.8093C31.0986 30.8093 30.7305 31.1774 30.7305 31.6315C30.7305 32.0856 31.0986 32.4538 31.5527 32.4538Z" fill="black"/>
<path d="M17.3261 19.5539C17.7802 19.5539 18.1484 19.1857 18.1484 18.7316C18.1484 18.2775 17.7802 17.9094 17.3261 17.9094C16.872 17.9094 16.5039 18.2775 16.5039 18.7316C16.5039 19.1857 16.872 19.5539 17.3261 19.5539Z" fill="black"/>
<path d="M17.3261 32.4538C17.7802 32.4538 18.1484 32.0856 18.1484 31.6315C18.1484 31.1774 17.7802 30.8093 17.3261 30.8093C16.872 30.8093 16.5039 31.1774 16.5039 31.6315C16.5039 32.0856 16.872 32.4538 17.3261 32.4538Z" fill="black"/>
</svg>
