<svg width="49" height="49" viewBox="0 0 49 49" fill="none" xmlns="http://www.w3.org/2000/svg">
<g clip-path="url(#clip0_238_5053)">
<rect x="0.5" y="0.5" width="48" height="48" rx="24" fill="#DFE8FF"/>
<g clip-path="url(#clip1_238_5053)">
<path d="M38.4055 24.0506C38.4055 24.7134 37.8326 25.2529 37.1238 25.2529H13.7416C13.0329 25.2529 12.46 24.7134 12.46 24.0506L19.4556 16.5005C20.1184 15.7687 20.9315 15.2975 21.6376 15.2975L34.552 14.7922C35.2607 14.7922 35.8336 15.3317 35.8336 15.9945L38.4055 24.0506Z" fill="#C2C2C2"/>
<path d="M36.1085 22.3128C36.1085 22.7754 35.6629 23.1521 35.1156 23.1521H16.9532C16.4059 23.1521 15.9609 22.7754 15.9609 22.3128L20.9209 17.0628C21.4354 16.5561 22.5221 16.2273 23.0694 16.2273L33.179 16.0259C33.7263 16.0259 34.1712 16.4006 34.1712 16.8619L36.1085 22.3141" fill="#3F5AA1"/>
<path d="M27.6065 23.0834C27.6175 23.1567 27.6138 23.2316 27.5957 23.3035C27.5776 23.3755 27.5455 23.4431 27.5011 23.5026C27.4568 23.5621 27.4011 23.6122 27.3373 23.65C27.2735 23.6879 27.2029 23.7128 27.1294 23.7232C27.056 23.7343 26.9811 23.7308 26.909 23.7128C26.8369 23.6949 26.7691 23.6629 26.7094 23.6187C26.6497 23.5745 26.5994 23.5189 26.5612 23.4552C26.523 23.3915 26.4978 23.3209 26.487 23.2474L25.437 16.0818C25.4259 16.0085 25.4294 15.9337 25.4474 15.8618C25.4654 15.7898 25.4974 15.7221 25.5416 15.6626C25.5858 15.6031 25.6414 15.5529 25.7051 15.5149C25.7688 15.4769 25.8393 15.4519 25.9127 15.4413C26.061 15.4195 26.2118 15.4573 26.3322 15.5465C26.4527 15.6357 26.5328 15.769 26.5552 15.9171L27.6065 23.0834Z" fill="#BBBABA"/>
<path d="M22.3121 22.095C22.4348 19.863 23.3785 17.9061 24.7015 16.2012L23.0694 16.2228C22.5221 16.2228 21.4347 16.5516 20.9209 17.0582L15.9609 22.3082C15.9609 22.7709 16.4059 23.1476 16.9532 23.1476H22.3272C22.2987 22.797 22.2936 22.4449 22.3121 22.0936" fill="#5978BA"/>
<path d="M44.2793 27.0963C44.2793 28.2027 43.8399 29.2637 43.0577 30.046C42.2754 30.8283 41.2145 31.2679 40.1082 31.2681H8.58194C7.47551 31.2681 6.4144 30.8286 5.63204 30.0462C4.84968 29.2639 4.41016 28.2028 4.41016 27.0963C4.41016 25.9899 4.84968 24.9288 5.63204 24.1464C6.4144 23.3641 7.47551 22.9246 8.58194 22.9246H40.1016C40.6496 22.9244 41.1922 23.0322 41.6985 23.2417C42.2048 23.4513 42.6648 23.7586 43.0524 24.146C43.4399 24.5334 43.7473 24.9933 43.957 25.4996C44.1668 26.0058 44.2747 26.5484 44.2747 27.0963" fill="#E3E4E3"/>
<path d="M45.1847 28.5656C45.1847 30.0959 43.2324 31.3395 40.8213 31.3395H7.85787C5.44812 31.3395 3.49512 30.0959 3.49512 28.5656C3.49512 27.0313 5.44812 25.7903 7.85787 25.7903H40.8213C43.2337 25.7903 45.1847 27.0313 45.1847 28.5656Z" fill="#243438"/>
<path d="M17.2645 31.2694C17.2645 34.0125 15.0371 36.2392 12.2901 36.2392C9.54761 36.2392 7.32227 34.0106 7.32227 31.2694C7.32192 30.6168 7.45016 29.9705 7.69967 29.3675C7.94917 28.7645 8.31504 28.2165 8.77638 27.7549C9.23771 27.2933 9.78548 26.9272 10.3884 26.6774C10.9913 26.4275 11.6375 26.299 12.2901 26.299C12.9431 26.2986 13.5898 26.4269 14.1932 26.6765C14.7966 26.9262 15.3449 27.2922 15.8069 27.7538C16.2688 28.2153 16.6353 28.7634 16.8854 29.3666C17.1355 29.9698 17.2643 30.6164 17.2645 31.2694ZM41.1487 31.2103C41.1487 33.9548 38.922 36.1801 36.1736 36.1801C33.4338 36.1801 31.2058 33.9528 31.2058 31.2103C31.2062 29.8928 31.7296 28.6293 32.6612 27.6975C33.5927 26.7657 34.8561 26.2419 36.1736 26.2412C36.8267 26.2405 37.4734 26.3685 38.077 26.6179C38.6805 26.8674 39.2289 27.2333 39.691 27.6947C40.153 28.1562 40.5196 28.7042 40.7697 29.3075C41.0198 29.9107 41.1486 30.5573 41.1487 31.2103Z" fill="white"/>
<path d="M16.3826 31.2694C16.3821 32.3535 15.951 33.393 15.1842 34.1593C14.4174 34.9257 13.3776 35.3561 12.2935 35.3559C11.2099 35.3554 10.1708 34.9247 9.40451 34.1584C8.63826 33.3922 8.20755 32.3531 8.20703 31.2694C8.20721 30.1856 8.63776 29.1461 9.40404 28.3796C10.1703 27.613 11.2096 27.1822 12.2935 27.1816C12.8304 27.1816 13.3621 27.2872 13.8581 27.4926C14.3542 27.698 14.8049 27.9991 15.1847 28.3787C15.5644 28.7582 15.8656 29.2089 16.0711 29.7049C16.2767 30.2009 16.3825 30.7325 16.3826 31.2694Z" fill="#243438"/>
<path d="M14.9431 31.2104C14.9431 31.9135 14.6638 32.5879 14.1666 33.0851C13.6694 33.5823 12.995 33.8616 12.2919 33.8616C11.5887 33.8616 10.9144 33.5823 10.4172 33.0851C9.91995 32.5879 9.64062 31.9135 9.64062 31.2104C9.64167 30.5081 9.92154 29.8351 10.4187 29.3391C10.9159 28.8432 11.5896 28.565 12.2919 28.5657C12.6396 28.5652 12.9841 28.6332 13.3056 28.7658C13.627 28.8985 13.9192 29.0931 14.1654 29.3387C14.4116 29.5843 14.607 29.876 14.7405 30.1972C14.8739 30.5183 14.9428 30.8626 14.9431 31.2104Z" fill="#969796"/>
<path d="M40.2693 31.2694C40.2693 32.3538 39.8385 33.3938 39.0718 34.1606C38.305 34.9274 37.265 35.3582 36.1806 35.3582C35.0962 35.3582 34.0562 34.9274 33.2894 34.1606C32.5226 33.3938 32.0918 32.3538 32.0918 31.2694C32.0918 30.185 32.5226 29.145 33.2894 28.3782C34.0562 27.6114 35.0962 27.1807 36.1806 27.1807C37.265 27.1807 38.305 27.6114 39.0718 28.3782C39.8385 29.145 40.2693 30.185 40.2693 31.2694Z" fill="#243438"/>
<path d="M38.8282 31.2104C38.8282 31.9135 38.5488 32.5879 38.0516 33.0851C37.5544 33.5823 36.8801 33.8616 36.1769 33.8616C35.4749 33.8599 34.8022 33.5798 34.3064 33.0828C33.8107 32.5857 33.5322 31.9124 33.5322 31.2104C33.5327 30.5091 33.8116 29.8367 34.3074 29.3409C34.8033 28.845 35.4757 28.5662 36.1769 28.5657C36.5247 28.5652 36.8691 28.6332 37.1906 28.7658C37.5121 28.8985 37.8043 29.0931 38.0505 29.3387C38.2967 29.5843 38.4921 29.876 38.6255 30.1972C38.759 30.5183 38.8278 30.8626 38.8282 31.2104Z" fill="#969796"/>
<path d="M5.76758 26.0456C5.76758 27.133 5.32789 28.0143 4.78255 28.0143C4.24048 28.0143 3.79883 27.133 3.79883 26.0456V26.0029C3.79883 24.9149 4.23983 24.0342 4.78255 24.0342C5.32789 24.0342 5.76758 24.9149 5.76758 26.0029V26.0456Z" fill="#E3E4E3"/>
<path d="M45.2634 26.3211C45.2634 27.4072 44.823 28.2886 44.2783 28.2886C43.7369 28.2886 43.2939 27.4072 43.2939 26.3211V26.2752C43.2939 25.1891 43.7369 24.3091 44.2783 24.3091C44.823 24.3091 45.2634 25.1891 45.2634 26.2752V26.3211Z" fill="#DF394C"/>
<path d="M27.4453 25.7778L26.2686 30.5383C26.1918 30.8487 26.4045 31.1663 26.7398 31.2483C27.0745 31.3317 27.4098 31.1492 27.484 30.8382L28.7348 25.7791H27.4453V25.7778Z" fill="white"/>
</g>
</g>
<defs>
<clipPath id="clip0_238_5053">
<rect x="0.5" y="0.5" width="48" height="48" rx="24" fill="white"/>
</clipPath>
<clipPath id="clip1_238_5053">
<rect width="42" height="42" fill="white" transform="translate(3.5 -3)"/>
</clipPath>
</defs>
</svg>
