<svg width="645" height="166" viewBox="0 0 645 166" fill="none" xmlns="http://www.w3.org/2000/svg">
<g clip-path="url(#clip0_2293_1963)">
<g opacity="0.4">
<path d="M0 13.0674V31.8899L51.8681 16.8397L0 13.0674Z" fill="#E0DBD5"/>
<path d="M0 0.0185547V8.49646L64.5437 13.1826L109.855 0.0185547H0Z" fill="#E0DBD5"/>
<path d="M126.465 0.0185547L0 36.6913V38.2469L129.962 0.0185547H126.465Z" fill="#E0DBD5"/>
<path d="M242.294 0.0185547C242.586 0.310226 242.732 0.582452 242.732 0.835234C242.732 1.45747 242.149 1.96303 240.692 2.41026C237.924 3.12971 237.778 3.30472 220.877 7.56311C217.963 8.30201 216.943 8.96314 216.943 9.60481C216.798 11.3159 225.539 12.8715 231.659 13.7271L257.301 7.01866L308.441 0.0185547H242.294Z" fill="#E0DBD5"/>
<path d="M169.011 0.0194447L111.752 16.9364L196.548 22.8865L226.27 15.128C219.276 14.2724 205.872 12.3085 205.581 9.6057C205.581 8.73069 207.183 7.79734 210.826 6.86399C227.727 2.58615 227.581 2.52782 230.495 1.73058C230.641 1.71114 231.515 1.28335 231.369 0.816679C231.369 0.563897 231.223 0.272226 230.786 0H169.011V0.0194447Z" fill="#E0DBD5"/>
<path d="M522.904 53.92L448.308 44.0615L400.811 63.3896L579.289 62.7868L522.904 53.92Z" fill="#E0DBD5"/>
<path d="M26.6641 42.117L90.4793 45.792L170.03 24.4223L102.426 19.6777L26.6641 42.117Z" fill="#E0DBD5"/>
<path d="M252.929 83.7098C258.174 77.9736 264.148 71.7901 269.247 66.3262L243.167 66.4039L231.512 82.9125L252.929 83.7098Z" fill="#E0DBD5"/>
<path d="M236.757 58.2768L243.022 47.835L228.161 44.7627L212.572 45.8127L0 62.9241V64.713L233.406 63.9352L235.883 59.8324L190.426 57.6351L194.214 56.2156L236.757 58.2768Z" fill="#E0DBD5"/>
<path d="M22.0002 43.4785L0 50.012V57.4204L76.3452 52.2481L85.8155 47.1536L22.0002 43.4785Z" fill="#E0DBD5"/>
<path d="M531.211 52.89L538.058 53.9789L572.152 44.0038C568.655 43.7315 565.012 43.4204 561.079 43.0899C543.012 41.4954 522.469 39.3954 512.562 36.9648C506.588 35.487 494.204 32.6286 480.508 29.498L449.766 31.8702L444.375 30.548L475.117 28.1952C472.204 27.5341 469.29 26.8535 466.376 26.1924L380.852 33.0564L435.925 40.3287L472.495 35.4481L480.508 36.5175L444.084 41.3787L463.17 43.8871L489.687 40.562L497.409 41.651L471.184 44.9371L531.211 52.89Z" fill="#E0DBD5"/>
<path d="M596.629 18.8418L582.205 16.8584L475.992 25.3752C478.906 26.0558 481.966 26.7363 484.88 27.4169L596.629 18.8418Z" fill="#E0DBD5"/>
<path d="M434.324 15.9641C439.132 17.053 451.954 19.9308 466.378 23.2364L568.657 15.0308L504.987 6.3584L434.324 15.9641Z" fill="#E0DBD5"/>
<path d="M284.254 50.6929L284.4 50.6346C284.4 50.6346 284.4 50.6346 284.545 50.5763C284.545 50.5179 284.691 50.4207 284.837 50.304C284.982 50.0707 285.274 49.7012 285.274 49.2735C285.274 48.1846 283.817 46.6484 278.135 45.3067C275.803 44.7428 270.995 43.6539 264.876 42.2539L238.359 44.0623L254.677 47.4262L244.916 63.8959L271.724 63.7987C278.863 56.293 284.254 50.7318 284.254 50.7318V50.6929Z" fill="#E0DBD5"/>
<path d="M490.707 4.41307L467.832 6.84366L406.64 0.0185547H324.175L266.625 7.93256L240.254 14.7966L366.865 31.2274L456.759 24.0134C443.647 21.0383 431.991 18.4133 426.309 17.1105L365.699 25.3162L357.686 24.2661L497.118 5.28808L490.707 4.41307Z" fill="#E0DBD5"/>
<path d="M594.734 43.9647L619.648 36.459L611.052 36.2451L586.721 43.3813C588.032 43.4786 589.198 43.5563 590.363 43.6341C591.966 43.7702 593.423 43.8675 594.734 43.9647Z" fill="#E0DBD5"/>
<path d="M644.707 25.4337L604.64 19.9697L490.414 28.7393C504.11 31.8699 516.348 34.7283 522.467 36.245C531.938 38.6172 557.58 41.0673 576.812 42.6229L600.269 35.7783L558.892 32.4921L564.719 31.1893L605.077 34.3977L629.117 27.3782L639.316 28.0004L616.005 34.8255L624.455 35.0394L644.707 28.9338V25.4337Z" fill="#E0DBD5"/>
<path d="M644.709 32.6475L627.371 37.8392L644.709 38.8698V32.6475Z" fill="#E0DBD5"/>
<path d="M590.219 45.346C588.034 45.1905 585.266 44.996 582.06 44.7627L546.219 55.2629L553.504 56.4101L590.219 45.346Z" fill="#E0DBD5"/>
<path d="M442.189 87.8511L455.302 79.276L426.017 78.8288L411.156 85.4789V85.4983L400.374 85.0705V85.0316L417.567 77.176H417.858L432.865 70.487L431.991 65.8202L431.117 65.8008L423.54 65.8202L419.752 70.2342L405.474 76.6898L394.692 76.2621L408.679 69.9231L412.176 65.8397L327.672 66.1119L315.725 85.2455C346.03 85.9261 384.202 86.7428 420.626 87.4039C427.62 87.54 434.905 87.6956 442.189 87.8511Z" fill="#E0DBD5"/>
<path d="M316.306 66.1709L291.975 66.2487C290.664 67.6876 289.207 69.2043 287.75 70.7404C283.525 75.1738 279.154 79.8794 275.074 84.3128C282.796 84.5073 292.849 84.7406 304.651 85.0129L316.306 66.1709Z" fill="#E0DBD5"/>
<path d="M203.539 43.6141L253.075 39.6279C245.645 37.9557 237.486 36.1279 229.618 34.3584C212.863 30.5861 197.128 27.0861 192.028 25.9777L180.081 25.1416L100.822 46.3753L134.187 48.3003L203.539 43.6141Z" fill="#E0DBD5"/>
<path d="M368.905 104.106L360.018 111.223L433.594 112.293L441.025 107.198L369.779 104.126L368.905 104.106Z" fill="#E0DBD5"/>
<path d="M438.254 114.257L431.115 119.721L457.632 121.432L487.646 112.799L494.493 113.227L464.48 121.86L488.957 123.455L517.659 114.977L524.507 115.385L495.659 123.882L540.388 126.78L544.759 110.524L450.784 105.799L438.254 114.257Z" fill="#E0DBD5"/>
<path d="M356.813 32.0253L234.865 16.1973L206.6 23.5863L208.202 23.7029L209.805 24.0724C209.805 24.0918 248.269 32.6281 274.786 38.6171L356.813 32.0253Z" fill="#E0DBD5"/>
<path d="M579.436 79.5093L613.966 80.9094L579.581 79.4121L579.436 79.5093Z" fill="#E0DBD5"/>
<path d="M524.801 0.913939C551.755 4.72511 580.894 8.18627 610.033 11.7252L610.179 11.7058L526.403 0.447266C526.258 0.525045 526.112 0.583379 525.966 0.641713C525.675 0.738937 525.238 0.83616 524.801 0.913939Z" fill="#E0DBD5"/>
<path d="M275.365 115.074L271.723 125.652L290.809 118.672L349.962 122.561L358.995 116.455L277.405 113.558L275.365 115.074Z" fill="#E0DBD5"/>
<path d="M610.762 68.3293L644.71 69.8265V65.082L613.676 65.1987L584.1 77.5656L610.762 68.3293Z" fill="#E0DBD5"/>
<path d="M644.709 94.6377V90.1265L637.424 89.8154L644.709 86.8209V83.7486L575.94 80.9486L557.874 88.5126L547.092 88.0459L547.675 87.7931L568.51 79.0624H568.655L601.729 65.2178L559.622 65.3539L515.622 86.4709L504.694 86.0625L547.821 65.4122L488.668 65.6067L476.138 75.6207L465.065 75.3679L477.158 65.6456L443.356 65.7622L444.23 70.7012L429.369 77.3707L468.853 77.993L453.409 88.1042C525.092 89.7959 609.45 92.8488 644.709 94.6377Z" fill="#E0DBD5"/>
<path d="M245.211 142.939L269.251 144.475V144.456L269.542 144.397C273.185 143.522 277.264 142.842 281.635 142.297L248.999 140.839L245.211 142.939Z" fill="#E0DBD5"/>
<path d="M644.711 58.976L639.32 58.8398L636.989 59.6954L636.406 62.6121L644.711 62.5732V58.976Z" fill="#E0DBD5"/>
<path d="M388.866 63.429L439.277 42.8953L370.654 33.8535L284.256 40.7758C290.375 42.1564 295.183 43.2648 297.66 43.8481C305.965 45.8315 307.567 47.8732 307.567 49.2732C307.567 50.2649 306.693 50.9454 306.402 51.1593C306.256 51.3343 305.382 52.151 304.216 53.4538L334.521 55.0288L329.13 63.604L388.866 63.429Z" fill="#E0DBD5"/>
<path d="M644.71 40.5031L622.856 39.2197L561.518 57.6728L593.862 62.7479L625.041 62.6312L625.77 59.4034L637.426 55.1644L644.71 55.5144V40.5031Z" fill="#E0DBD5"/>
<path d="M89.748 51.3338L121.219 49.1949L96.3044 47.7754L89.748 51.3338Z" fill="#E0DBD5"/>
<path d="M294.455 63.7395L317.912 63.6617L322.72 56.0394L302.905 55.0088C300.72 57.2255 297.806 60.2589 294.455 63.7395Z" fill="#E0DBD5"/>
<path d="M644.71 115.56L552.193 110.913L543.742 142.472L557.729 143.172L593.57 129.483L604.206 129.988L568.365 143.677L583.372 144.416L644.71 119.663V115.56Z" fill="#E0DBD5"/>
<path d="M644.707 11.8809L640.336 12.2309L644.707 12.8142V11.8809Z" fill="#E0DBD5"/>
<path d="M518.969 149.724L612.943 154.119L630.281 148.849L538.055 144.338L518.969 149.724Z" fill="#E0DBD5"/>
<path d="M644.707 149.569L640.919 149.375L623.727 154.625L644.707 155.617V149.569Z" fill="#E0DBD5"/>
<path d="M644.708 165.981V162.461L636.549 162.111C634.364 163.317 631.45 164.62 627.953 165.961H644.708V165.981Z" fill="#E0DBD5"/>
<path d="M499.449 155.286L595.901 159.35L610.033 155.053L515.767 150.639L499.449 155.286Z" fill="#E0DBD5"/>
<path d="M511.978 165.981L477.302 163.861L482.11 162.5L476.428 162.111L463.461 165.981H511.978Z" fill="#E0DBD5"/>
<path d="M616.151 165.981C620.23 164.445 623.581 162.986 625.912 161.683L603.766 160.75L586.574 166H616.151V165.981Z" fill="#E0DBD5"/>
<path d="M9.3246 165.981L0 165.164V165.981H9.3246Z" fill="#E0DBD5"/>
<path d="M405.037 148.169L399.209 150.405L492.164 154.955L508.627 150.308L492.892 149.55L484.733 151.825L405.037 148.169Z" fill="#E0DBD5"/>
<path d="M82.7563 165.98L76.4913 165.494C75.9085 165.65 75.4715 165.825 74.8887 165.98H82.7563Z" fill="#E0DBD5"/>
<path d="M254.824 137.864L267.791 132.38L265.314 132.283L254.824 137.864Z" fill="#E0DBD5"/>
<path d="M486.049 161.353L554.235 165.981H574.049L592.844 160.284L496.247 156.2L479.492 161.197L485.174 161.586L486.049 161.353Z" fill="#E0DBD5"/>
<path d="M401.104 165.981L364.388 163.589L358.123 165.981H401.104Z" fill="#E0DBD5"/>
<path d="M455.304 165.981L489.106 155.87L396.734 151.358L367.012 162.656L418.443 166H455.304V165.981ZM413.343 153.672L450.933 155.675L438.403 159.7L399.502 157.192L413.343 153.672Z" fill="#E0DBD5"/>
<path d="M238.362 165.98L227.58 165.241L227.289 165.98H238.362Z" fill="#E0DBD5"/>
<path d="M350.11 165.98L357.54 163.161L234.863 155.188L228.016 164.133L254.678 165.98H350.11Z" fill="#E0DBD5"/>
<path d="M437.527 129.366L418.878 128.238L393.818 135.491L421.646 136.833L437.527 129.366Z" fill="#E0DBD5"/>
<path d="M292.705 130.63L316.016 121.452L295.036 120.071L272.599 128.238L270.85 128.141L270.413 129.638L268.082 130.824L271.287 130.941L274.201 129.735L292.705 130.63Z" fill="#E0DBD5"/>
<path d="M644.707 156.685L620.667 155.558L606.68 159.816L644.707 161.41V156.685Z" fill="#E0DBD5"/>
<path d="M267.063 146.01L243.315 144.493L235.738 154.138L280.467 157.035L294.6 153.107L301.448 153.535L287.315 157.463L360.163 162.188L389.74 150.988L354.481 149.257L357.104 148.324L392.362 150.054L398.19 147.838L363.223 146.224L339.474 153.963L326.945 159.796L319.66 159.524L331.024 154.216C303.196 153.574 286.441 152.738 276.242 151.824C265.606 150.871 262.255 149.782 262.401 148.965C262.401 148.382 263.858 147.974 264.586 147.799L267.063 146.01Z" fill="#E0DBD5"/>
<path d="M180.955 87.735C133.895 86.6072 90.1864 84.2349 43.7091 82.8932C29.1394 82.4655 14.5697 82.096 0 81.7266V92.2073C24.3314 93.2962 44.7289 95.2018 44.7289 95.2018C67.0206 103.524 37.8812 107.355 0 108.58V124.136L177.022 127.072L176.73 127.383C187.949 123.999 194.797 121.958 194.797 121.958C194.797 121.958 196.836 121.335 200.187 120.149C203.538 118.983 208.201 117.272 213.154 115.191C223.062 111.03 234.135 105.352 238.943 99.3046C240.983 96.8157 244.042 93.374 247.539 89.4461C225.393 88.8628 203.247 88.26 180.955 87.735Z" fill="#E0DBD5"/>
<path d="M92.3748 127.169L88.8781 140.022H87.2754L130.693 141.344C147.011 136.386 161.726 131.913 172.945 128.53L92.3748 127.169Z" fill="#E0DBD5"/>
<path d="M291.539 102.668L278.572 112.565L371.964 115.871L424.123 119.254L430.971 114.082L432.137 113.285L351.275 112.118L361.474 103.971L334.957 103.485L323.01 110.932L315.579 110.718L327.526 103.329L291.539 102.668Z" fill="#E0DBD5"/>
<path d="M0 67.2203V74.512L220.439 82.5233L231.804 66.4619L0 67.2203Z" fill="#E0DBD5"/>
<path d="M146.571 0.0185547L0 43.1081V45.1304L152.399 0.0185547H146.571Z" fill="#E0DBD5"/>
<path d="M0 76.0684V79.4712C24.6228 80.1129 49.3912 80.6768 73.7226 81.474C117.869 82.9129 159.684 85.0713 204.558 86.1213C219.565 86.4713 234.572 86.8602 249.579 87.2296C250.161 86.5685 250.744 85.888 251.473 85.2074L0 76.0684Z" fill="#E0DBD5"/>
<path d="M219.861 165.98L220.152 164.717L129.529 158.455L133.025 157.561L220.881 163.628L236.033 144.105L154.443 141.616C147.012 143.891 139.145 146.264 131.131 148.714C114.522 153.769 97.3298 159.078 81.0117 164.114L104.906 166H219.861V165.98Z" fill="#E0DBD5"/>
<path d="M511.835 149.394L533.835 143.172L517.954 142.511L496.1 148.636L511.835 149.394Z" fill="#E0DBD5"/>
<path d="M421.207 127.266L439.856 128.413L454.863 122.366L429.803 120.732L421.207 127.266Z" fill="#E0DBD5"/>
<path d="M366.28 116.707L356.955 123.027L414.214 126.818L422.81 120.285L369.339 116.824L366.28 116.707Z" fill="#E0DBD5"/>
<path d="M271.434 148.169L270.997 148.247C270.997 148.247 270.997 148.247 270.851 148.266C270.705 148.305 270.56 148.344 270.414 148.402C269.977 148.538 269.686 148.713 269.686 148.947C269.831 149.433 271.142 150.133 280.321 150.988C289.209 151.786 305.236 152.641 333.355 153.263L340.931 150.813L339.474 151.144L279.302 148.13L284.547 143.327C281.778 143.716 279.01 144.202 276.533 144.786L271.434 148.169Z" fill="#E0DBD5"/>
<path d="M412.179 127.791L355.357 124.058L342.244 133.022L386.682 135.161L412.179 127.791Z" fill="#E0DBD5"/>
<path d="M348.504 123.59L322.715 121.898L299.695 130.979L335.1 132.671L348.504 123.59Z" fill="#E0DBD5"/>
<path d="M538.061 135.55L444.524 129.794L428.643 137.163L449.186 138.155L536.458 141.694L538.061 135.55Z" fill="#E0DBD5"/>
<path d="M540.097 127.674L539.514 127.849L492.891 124.835L477.156 130.707L538.349 134.46L540.097 127.674Z" fill="#E0DBD5"/>
<path d="M446.707 128.822L470.31 130.28L486.191 124.388L461.714 122.813L446.707 128.822Z" fill="#E0DBD5"/>
<path d="M94.8487 152.272C105.485 149.024 115.975 145.796 126.028 142.744L0 138.894V150.969L51.5767 153.73L47.3515 155.13L0 152.583V154.469L73.7226 158.747C79.2591 157.055 84.7956 155.344 90.3321 153.652L31.7619 149.685L36.8613 148.344L94.8487 152.272Z" fill="#E0DBD5"/>
<path d="M311.936 90.9226C297.949 90.6504 283.962 90.3198 269.975 89.9893C266.479 93.8199 263.565 97.1838 261.525 99.6144C251.181 112.273 215.776 123.065 215.485 123.143C215.485 123.143 209.366 124.97 199.312 128.023L260.942 130.512L262.836 129.482L267.79 114.937L296.638 92.6532L304.069 92.8282L292.704 101.656L329.128 102.337L329.274 102.201L338.016 93.1782L345.446 93.3143L336.705 102.356L336.559 102.492L362.639 102.978L373.275 94.5199L380.705 94.6754L370.215 103.114L371.526 103.134L442.481 106.187L457.196 96.1532L464.626 96.3477L452.242 104.767L545.197 109.453L554.376 98.0588C522.905 96.9894 492.163 95.6282 460.693 94.4615C411.739 92.6726 361.91 91.9143 311.936 90.9226Z" fill="#E0DBD5"/>
<path d="M644.709 100.511C627.808 100.083 610.907 99.6552 594.006 99.2468C583.079 98.994 572.297 98.6635 561.661 98.3135L552.482 109.766V109.825L644.709 114.472V100.511Z" fill="#E0DBD5"/>
<path d="M644.708 124.466L594.006 144.941L635.675 146.983L644.708 143.638V124.466Z" fill="#E0DBD5"/>
<path d="M644.709 96.2514C643.981 96.2125 643.252 96.1736 642.524 96.1347C604.788 94.1708 495.516 90.2624 419.171 88.9013C363.077 87.8902 302.759 86.4901 273.765 85.8096C273.182 86.4901 272.6 87.1513 271.871 87.8124C298.388 88.4735 324.905 89.1152 351.567 89.6013C396.15 90.3985 441.025 91.2152 484.297 92.8875C531.211 94.6958 576.815 96.6597 625.04 97.8264C631.597 97.982 638.153 98.157 644.709 98.3125V96.2514Z" fill="#E0DBD5"/>
<path d="M560.495 0.0185547H559.475L555.979 0.874123L626.641 10.3826L644.708 8.96314V6.57143L621.979 8.22424L560.495 0.0185547Z" fill="#E0DBD5"/>
<path d="M0 125.652V137.339L77.6564 139.711L81.1531 126.994L0 125.652Z" fill="#E0DBD5"/>
<path d="M190.131 130.804C181.389 133.468 170.753 136.677 159.098 140.216L238.065 142.627L258.172 132.01L194.648 129.443C193.191 129.871 191.734 130.318 190.131 130.804Z" fill="#E0DBD5"/>
<path d="M50.4111 165.98C56.5304 164.075 62.9411 162.111 69.3517 160.128L35.6957 158.164L19.8148 163.355L9.3246 162.792L25.0599 157.58L0 156.103V163.355L29.7222 165.98H50.4111Z" fill="#E0DBD5"/>
<path d="M406.641 0.0185547L467.833 6.84366L490.708 4.41307L458.363 0.0185547H406.641Z" fill="#DCD8BA"/>
<path d="M560.496 0.0185547L621.98 8.22424L644.709 6.57143V0.543563L641.795 0.0185547H560.496Z" fill="#CCC2B8"/>
<path d="M428.348 137.318L449.182 138.154L428.639 137.162L428.348 137.318Z" fill="#CCC2B8"/>
<path d="M249.143 140.838L281.779 142.297C292.269 141.013 304.507 140.586 315.143 140.605C331.461 140.605 344.72 141.499 347.051 141.655L406.641 144.455L418.297 138.486L267.792 132.38L254.679 137.844L249.143 140.838Z" fill="#CCC2B8"/>
<path d="M405.037 148.169L484.733 151.824L492.892 149.549L411.448 145.738L405.037 148.169Z" fill="#CCC2B8"/>
<path d="M386.675 135.16L342.238 133.021L341.072 133.78L385.218 135.569L386.675 135.16Z" fill="#CCC2B8"/>
<path d="M496.098 148.636L517.953 142.511L425.581 138.777L413.779 144.786L496.098 148.636Z" fill="#CCC2B8"/>
<path d="M421.647 136.833L393.819 135.491L392.508 135.861L421.21 137.027L421.647 136.833Z" fill="#CCC2B8"/>
<path d="M292.705 130.63L274.201 129.735L271.287 130.941L289.936 131.699L292.705 130.63Z" fill="#CCC2B8"/>
<path d="M404.457 145.408L370.218 143.794L370.364 143.813L362.934 146.244L397.901 147.838L404.457 145.408Z" fill="#CCC2B8"/>
<path d="M339.33 151.163L340.787 150.833L363.37 143.483L344.138 142.588L343.846 142.549C343.846 142.549 340.641 142.316 335.396 142.083C330.151 141.83 322.866 141.597 315.144 141.597C304.945 141.616 294.018 141.986 284.548 143.347L279.303 148.15L339.33 151.163Z" fill="#CCC2B8"/>
<path d="M335.102 132.671L299.698 130.979L297.221 131.991L333.936 133.488L335.102 132.671Z" fill="#CCC2B8"/>
<path d="M450.931 155.675L413.341 153.672L399.5 157.172L438.401 159.68L450.931 155.675Z" fill="#CCC2B8"/>
<path d="M554.232 165.98L486.046 161.353L485.172 161.586L550.735 165.98H554.232Z" fill="#CCC2B8"/>
<path d="M533.977 165.98L482.109 162.499L477.301 163.86L511.977 165.98H533.977Z" fill="#CCC2B8"/>
<path d="M644.71 69.8263L610.763 68.3291L584.101 77.5654L579.584 79.4126L613.968 80.9099L644.71 82.1738V69.8263Z" fill="#B4CD9B"/>
<path d="M44.7289 95.182C44.7289 95.182 24.1857 93.2764 0 92.1875V108.56C37.8812 107.354 67.0206 103.524 44.7289 95.182Z" fill="#B4CD9B"/>
<path d="M204.703 86.1403C159.683 85.0903 118.013 82.9125 73.8672 81.493C49.3901 80.6958 24.7673 80.1319 0.144531 79.4902V81.7264C14.7142 82.0958 29.2839 82.4653 43.8536 82.8931C90.3309 84.2542 134.04 86.607 181.1 87.7348C203.392 88.2793 225.538 88.8626 247.829 89.4459C248.412 88.7265 249.14 88.007 249.869 87.2487C234.571 86.8598 219.71 86.4903 204.703 86.1403Z" fill="#8BBBB9"/>
<path d="M644.712 16.411L623.586 13.5332L598.672 15.536L644.712 21.8361V16.411Z" fill="#8095B2"/>
<path d="M524.801 0.913013C525.384 0.835234 525.821 0.73801 525.967 0.660231C526.112 0.582452 526.258 0.524118 526.404 0.465784L523.198 0.0185547H484.734L585.12 13.7077L609.888 11.7243C580.749 8.20479 551.609 4.72418 524.801 0.913013Z" fill="#8BBBB9"/>
<path d="M644.708 98.3322C638.152 98.1766 631.595 98.0016 625.039 97.8461C576.813 96.6794 531.356 94.7155 484.296 92.9071C441.024 91.2349 396.149 90.4182 351.566 89.6209C324.758 89.1348 298.241 88.5126 271.87 87.832C271.141 88.5709 270.559 89.3098 269.83 90.0098C283.817 90.3598 297.804 90.671 311.791 90.9432C361.765 91.9154 411.739 92.6932 460.547 94.5016C492.018 95.6683 522.76 97.0099 554.23 98.0989L554.376 98.0016L561.807 98.0989L561.661 98.3516C572.297 98.7016 583.078 99.0128 594.006 99.285C610.906 99.6933 627.807 100.121 644.708 100.549V98.3322Z" fill="#8BBBB9"/>
<path d="M129.962 0.0185547L0 38.2469V43.1081L146.571 0.0185547H129.962Z" fill="white"/>
<path d="M51.5767 153.711L0 150.97V152.584L47.3515 155.111L51.5767 153.711Z" fill="white"/>
<path d="M29.7222 165.981L0 163.355V165.164L9.3246 165.981H29.7222Z" fill="white"/>
<path d="M555.979 0.874123L559.476 0.0185547H523.197L526.403 0.446339L610.033 11.7048L609.887 11.7243L585.119 13.7077L484.733 0.0185547H458.362L490.707 4.41307L497.118 5.28808L357.686 24.2661L365.699 25.3162L426.309 17.1105C431.991 18.3938 443.647 21.0383 456.76 24.0134L366.865 31.2274L240.254 14.7966L266.625 7.93256L324.176 0.0185547H308.44L257.301 7.03811L231.658 13.7465C225.539 12.891 216.651 11.3354 216.943 9.62426C216.943 8.98258 217.963 8.32146 220.876 7.58256C237.777 3.32416 237.923 3.14916 240.691 2.4297C242.294 1.98247 242.731 1.47691 242.731 0.854679C242.731 0.582452 242.585 0.310226 242.294 0.0379994H230.93C231.367 0.310226 231.512 0.601897 231.512 0.854679C231.512 1.30191 230.784 1.72969 230.638 1.76858C227.724 2.54637 227.87 2.62415 210.969 6.90199C207.181 7.83534 205.724 8.76869 205.724 9.6437C206.015 12.3465 219.419 14.3104 226.413 15.166L196.691 22.9245L111.749 16.9355L169.008 0.0185547H152.545L0 45.1304V50.011L22.0002 43.4776L85.8154 47.1526L76.3452 52.2277L0 57.4194V62.9028L212.572 45.7915L228.016 44.7415L242.877 47.8137L236.757 58.2556L194.214 56.2139L190.426 57.6333L235.883 59.8306L233.406 63.9334L0 64.7112V67.2196L231.804 66.4418L220.439 82.5032L0 74.5114V76.0669L251.473 85.206C250.89 85.8865 250.162 86.5671 249.579 87.2282C248.85 87.9671 248.267 88.706 247.539 89.4255C244.042 93.3339 240.983 96.795 238.943 99.284C233.989 105.331 222.916 111.029 213.154 115.17C208.201 117.251 203.538 118.943 200.187 120.129C196.836 121.295 194.797 121.937 194.797 121.937C194.797 121.937 187.949 123.998 176.73 127.362L177.022 127.051L0 124.134V125.651L81.1532 126.993L77.8021 139.71L0 137.337V138.873L126.173 142.743C116.12 145.796 105.63 149.024 94.9943 152.271L37.007 148.362L31.9076 149.704L90.3321 153.651C84.7956 155.343 79.2591 157.054 73.7226 158.746L0 154.468V156.101L25.2056 157.56L9.47029 162.79L19.9605 163.354L35.6957 158.182L69.3517 160.146C62.941 162.129 56.5304 164.093 50.4111 165.999H75.0339C75.6167 165.843 76.0538 165.668 76.6365 165.513L82.9015 165.999H104.902L81.0075 164.113C97.3255 159.077 114.663 153.768 131.127 148.712C139.141 146.262 147.008 143.89 154.439 141.615L236.029 144.104L220.876 163.646L133.021 157.579L129.525 158.474L220.148 164.735L219.857 165.999H227.433L227.578 165.26L238.36 165.999H254.678L227.87 164.152L234.863 155.207L357.54 163.16L350.11 165.979H358.123L364.388 163.588L401.103 165.979H418.296L366.865 162.635L396.587 151.338L488.959 155.849L455.157 165.96H463.462L476.429 162.09L481.965 162.46L533.833 165.941H550.734L485.171 161.585L479.488 161.196L496.243 156.199L592.841 160.282L574.046 165.979H586.43L603.622 160.729L625.768 161.663C623.437 162.985 620.086 164.443 616.006 165.96H627.953C631.45 164.618 634.364 163.315 636.55 162.11L644.709 162.46V161.41L606.682 159.796L620.669 155.538L644.709 156.665V155.596L623.728 154.604L640.92 149.354L644.709 149.549V143.618L635.675 146.962L593.86 144.921L644.709 124.465V119.662L583.37 144.415L568.363 143.676L604.205 129.987L593.569 129.501L557.873 143.171L543.886 142.49L552.337 110.912L644.854 115.579V114.509L552.628 109.862V109.804L561.807 98.3506L561.953 98.0978L554.522 98.0006L554.377 98.0978L545.198 109.492L452.243 104.806L464.627 96.3867L457.197 96.1922L442.481 106.226L371.527 103.153L370.216 103.134L380.706 94.695L373.275 94.5394L362.639 102.998L336.56 102.492L336.705 102.376L345.447 93.3339L338.017 93.1978L329.275 102.22L329.129 102.356L292.705 101.676L304.069 92.8478L296.639 92.6727L267.791 114.956L262.837 129.501L260.943 130.532L199.313 128.043C209.366 125.009 215.486 123.162 215.486 123.162C215.777 123.084 251.181 112.273 261.526 99.634C263.566 97.2034 266.48 93.8394 269.976 90.0088C270.559 89.2894 271.288 88.5699 272.016 87.831C272.599 87.1699 273.182 86.5088 273.91 85.8282C302.904 86.5282 363.368 87.9282 419.316 88.9199C495.661 90.281 604.933 94.1894 642.669 96.1534C643.397 96.1922 644.126 96.2311 644.854 96.27V94.6561C609.596 92.8672 525.237 89.8144 453.554 88.1227L469.144 77.992L429.66 77.3697L444.521 70.7002L443.647 65.7612L477.449 65.6446L465.356 75.3669L476.429 75.6197L488.959 65.6057L548.112 65.4112L504.985 86.081L515.913 86.4893L559.913 65.3723L602.019 65.2362L568.946 79.0809H568.801L547.966 87.8116L547.383 88.0643L558.165 88.531L576.231 80.967L645 83.7671V82.192L614.258 80.9476L579.728 79.5475L580.019 79.4503L584.39 77.6031L613.967 65.2168L645 65.1195V62.6112L636.695 62.6306L637.424 59.7334L639.755 58.8778L645 59.0139V57.4778L643.543 57.4389L645 56.9333V55.5527L637.715 55.2027L626.059 59.4611L625.039 62.6306L593.86 62.7278L561.661 57.6528L623 39.1997L644.854 40.4831V38.8303L627.662 37.8191L644.854 32.6274V28.9134L624.602 35.0191L616.152 34.8052L639.464 27.9801L629.265 27.3579L605.225 34.3774L564.867 31.169L559.039 32.4718L600.417 35.758L576.96 42.622C557.728 41.0664 532.085 38.5969 522.615 36.2441C516.495 34.7469 504.111 31.869 490.561 28.7384L604.788 19.9689L644.709 25.4328V21.8356L598.668 15.5355L623.583 13.5326L644.563 16.391V12.8132L640.192 12.2104L644.563 11.8604V8.96314L626.496 10.3826L555.979 0.874123ZM130.69 141.324L87.2724 140.001H88.8751L92.3718 127.168L172.942 128.509C161.723 131.912 147.008 136.365 130.69 141.324ZM392.07 150.054L356.812 148.324L354.189 149.257L389.448 150.988L359.871 162.188L287.023 157.463L301.155 153.535L294.308 153.107L280.175 157.035L235.446 154.138L243.022 144.493L266.771 146.01L264.148 147.799C263.42 147.974 261.963 148.401 261.963 148.965C261.817 149.782 265.168 150.89 275.804 151.824C286.003 152.738 302.612 153.593 330.586 154.215L319.222 159.524L326.507 159.796L339.037 153.963L362.785 146.224L370.216 143.793L369.924 143.774L404.163 145.387L397.752 147.818L392.07 150.054ZM269.685 148.965C269.685 148.732 270.122 148.557 270.413 148.421C270.559 148.362 270.705 148.304 270.85 148.285C270.996 148.265 270.996 148.265 270.996 148.265L271.433 148.187L276.533 144.824C279.009 144.24 281.778 143.754 284.546 143.365C294.016 142.004 304.944 141.635 315.142 141.615C322.864 141.615 330.149 141.848 335.394 142.101C340.639 142.335 343.845 142.587 343.845 142.568L344.136 142.587L363.368 143.482L340.785 150.832L333.209 153.282C305.235 152.66 289.063 151.804 280.175 151.007C271.142 150.171 269.685 149.451 269.685 148.965ZM492.164 154.954L399.209 150.404L405.037 148.168L411.448 145.737L492.747 149.549L508.628 150.288L492.164 154.954ZM342.242 133.021L355.355 124.057L412.031 127.809L386.679 135.16L385.222 135.568L341.076 133.779L342.242 133.021ZM335.103 132.671L333.937 133.487L297.222 131.99L299.844 130.959L322.864 121.879L348.507 123.57L335.103 132.671ZM477.157 130.707L492.892 124.834L539.515 127.848L540.098 127.673L538.35 134.44L477.157 130.707ZM538.058 135.548L536.456 141.693L449.329 138.154L428.494 137.318L428.786 137.182L444.521 129.812L538.058 135.548ZM470.309 130.279L446.707 128.821L461.713 122.793L486.045 124.368L470.309 130.279ZM439.859 128.412L421.355 127.265L429.951 120.732L455.011 122.365L439.859 128.412ZM414.216 126.818L356.957 123.026L366.282 116.706L369.487 116.823L422.958 120.284L414.216 126.818ZM393.819 135.49L418.878 128.218L437.528 129.365L421.501 136.812L421.064 137.007L392.362 135.84L393.819 135.49ZM425.581 138.776L517.952 142.529L533.833 143.171L511.833 149.393L496.098 148.654L413.779 144.785L425.581 138.776ZM595.9 159.349L499.449 155.265L515.913 150.618L610.033 155.032L595.9 159.349ZM630.285 148.849L612.947 154.118L518.972 149.704L537.913 144.318L630.285 148.849ZM450.786 105.798L544.761 110.523L540.39 126.779L495.661 123.882L524.509 115.384L517.661 114.976L488.959 123.454L464.482 121.859L494.495 113.206L487.647 112.779L457.634 121.412L431.117 119.701L438.256 114.256L450.786 105.798ZM368.904 104.106L369.924 104.126L441.17 107.198L433.594 112.312L360.017 111.242L368.904 104.106ZM291.539 102.667L327.672 103.348L315.725 110.737L323.01 110.951L335.103 103.484L361.474 103.99L351.275 112.137L432.137 113.323L430.971 114.12L424.124 119.293L371.964 115.909L278.572 112.584L291.539 102.667ZM275.367 115.073L277.407 113.556L358.997 116.454L349.964 122.559L290.957 118.651L271.87 125.632L275.367 115.073ZM270.413 129.637L270.996 128.14L272.745 128.218L295.182 120.051L316.016 121.432L292.705 130.609L289.937 131.679L271.288 130.921L268.082 130.784L270.413 129.637ZM265.314 132.282L267.791 132.379L418.296 138.485L406.64 144.454L347.05 141.654C344.719 141.498 331.46 140.604 315.142 140.604C304.361 140.585 292.268 141.012 281.778 142.296C277.407 142.84 273.182 143.521 269.685 144.396L269.393 144.454V144.474L245.353 142.937L249.287 140.837L254.969 137.862L265.314 132.282ZM258.175 131.99L238.069 142.607L159.101 140.215C170.757 136.676 181.393 133.468 190.134 130.804C191.737 130.318 193.194 129.871 194.651 129.423L258.175 131.99ZM434.322 15.9632L504.985 6.35754L568.655 15.0299L466.376 23.2356C451.806 19.93 439.13 17.0521 434.322 15.9632ZM370.653 33.833L439.276 42.8748L388.865 63.4084L329.275 63.6029L334.666 55.0277L304.361 53.4527C305.672 52.1499 306.4 51.3332 306.546 51.1582C306.838 50.9443 307.712 50.2443 307.712 49.2721C307.712 47.8526 306.109 45.8304 297.804 43.847C295.328 43.2637 290.52 42.1553 284.4 40.7747L370.653 33.833ZM322.719 56.0389L317.911 63.6612L294.453 63.739C297.804 60.2584 300.718 57.225 302.904 55.0083L322.719 56.0389ZM234.863 16.1966L356.812 32.0246L274.784 38.6164C248.267 32.6274 209.803 24.0717 209.803 24.0717L208.201 23.7023L206.598 23.5856L234.863 16.1966ZM26.6625 42.1164L102.425 19.6966L170.028 24.4411L90.4777 45.7915L26.6625 42.1164ZM89.7493 51.3332L96.4513 47.7554L121.22 49.1943L89.7493 51.3332ZM203.538 43.6137L134.187 48.3193L100.822 46.3943L180.081 25.1412L192.028 25.9773C196.982 27.0856 212.717 30.5857 229.618 34.358C237.486 36.1274 245.645 37.9552 253.075 39.6275L203.538 43.6137ZM252.93 83.7087L231.512 82.9309L243.168 66.4223L269.248 66.3446C264.003 71.7891 258.175 77.9725 252.93 83.7087ZM271.579 63.8168L244.771 63.914L254.532 47.4443L238.214 44.0803L264.731 42.272C270.85 43.6526 275.658 44.7609 277.99 45.3248C283.672 46.6859 285.129 48.2026 285.129 49.2915C285.129 49.7193 284.983 50.0888 284.692 50.3221C284.546 50.4388 284.546 50.536 284.4 50.5943C284.4 50.6527 284.255 50.6527 284.255 50.6527L284.109 50.711V50.7693C284.255 50.7499 278.718 56.3111 271.579 63.8168ZM275.076 84.3115C279.155 79.8781 283.526 75.1725 287.751 70.7391C289.208 69.2029 290.665 67.7057 291.976 66.2473L316.308 66.1696L304.506 85.0115C292.851 84.7393 282.798 84.506 275.076 84.3115ZM418.004 77.1753H417.713L400.521 85.031V85.0698L411.302 85.4976V85.4782L426.163 78.8281L455.448 79.2753L442.336 87.8505C434.905 87.6949 427.62 87.5393 420.773 87.4227C384.494 86.781 346.176 85.9449 315.871 85.2643L327.818 66.1307L412.322 65.8585L408.825 69.9418L394.838 76.2808L405.62 76.7086L419.898 70.253L423.686 65.839L431.263 65.8196L432.137 65.839L433.011 70.5057L418.004 77.1753ZM579.291 62.7862L400.812 63.389L448.164 44.0803L522.906 53.9388L579.291 62.7862ZM611.198 36.2247L619.794 36.4386L594.735 43.9637C593.423 43.8664 591.966 43.7692 590.218 43.6526C589.052 43.5748 587.887 43.4776 586.576 43.3998L611.198 36.2247ZM582.059 44.7415C585.264 44.9748 588.033 45.1887 590.218 45.3248L553.502 56.3694L546.218 55.2222L582.059 44.7415ZM512.707 36.9441C522.615 39.3553 543.158 41.4747 561.224 43.0692C565.012 43.3998 568.8 43.7109 572.297 43.9831L538.204 53.9583L531.356 52.8694L470.892 44.9359L497.118 41.6497L489.396 40.5608L462.879 43.8859L443.793 41.3775L480.217 36.5163L472.204 35.4469L435.634 40.3275L380.56 33.0552L466.084 26.1912C468.998 26.8523 471.912 27.5329 474.826 28.194L444.375 30.5468L450.058 31.8496L480.8 29.4773C494.349 32.6079 506.734 35.4663 512.707 36.9441ZM484.879 27.4356C481.965 26.7551 478.906 26.0745 475.992 25.3939L582.205 16.8771L596.629 18.8605L484.879 27.4356Z" fill="white"/>
<path d="M109.855 0.0185547L64.5437 13.1826L0 8.49646V13.066L51.8681 16.8383L0 31.8885V36.6913L126.465 0.0185547H109.855Z" fill="white"/>
<path d="M644.708 90.1269V86.8213L637.277 89.8158L644.708 90.1269Z" fill="white"/>
</g>
<path d="M419.835 49.5014L380.298 24.4403L338.071 88.5511L261.353 35.8269L203.866 123.092" stroke="url(#paint0_linear_2293_1963)" stroke-width="4.78122" stroke-linecap="round" stroke-linejoin="round"/>
<g filter="url(#filter0_f_2293_1963)">
<rect width="20.8792" height="8.00425" rx="3.34685" transform="matrix(0.966605 0.255785 -0.26251 0.96507 191.447 129.646)" fill="#B3B3B3" fill-opacity="0.8"/>
</g>
<g filter="url(#filter1_d_2293_1963)">
<path fill-rule="evenodd" clip-rule="evenodd" d="M201.667 132.406C203.179 132.806 212.826 125.718 215.38 123.324C219.308 119.643 221.701 117.484 223.024 112.623C225.252 104.44 220.387 96.0412 212.158 93.8651C203.929 91.6889 195.452 96.559 193.225 104.743C191.895 109.628 192.752 112.628 194.275 117.742C195.337 121.307 200.155 132.006 201.667 132.406Z" fill="black" fill-opacity="0.9"/>
<path d="M212.409 92.9425C221.145 95.2527 226.316 104.171 223.949 112.867C222.546 118.021 219.949 120.348 216.034 124.018C214.705 125.264 211.609 127.666 208.676 129.696C207.205 130.714 205.748 131.657 204.552 132.324C203.957 132.657 203.401 132.934 202.928 133.118C202.691 133.21 202.452 133.287 202.223 133.333C202.011 133.374 201.717 133.408 201.416 133.328C201.12 133.25 200.883 133.08 200.721 132.942C200.546 132.792 200.377 132.61 200.217 132.416C199.898 132.029 199.555 131.522 199.205 130.947C198.5 129.794 197.707 128.277 196.938 126.679C195.404 123.493 193.909 119.874 193.357 118.02C191.831 112.896 190.894 109.666 192.3 104.498C194.668 95.8015 203.673 90.6322 212.409 92.9425Z" stroke="white" stroke-width="1.91249"/>
</g>
<path fill-rule="evenodd" clip-rule="evenodd" d="M206.1 116.102C210.216 117.19 214.456 114.754 215.57 110.661C216.684 106.568 214.251 102.367 210.135 101.278C206.018 100.19 201.778 102.626 200.664 106.719C199.55 110.813 201.983 115.013 206.1 116.102Z" fill="white"/>
<g filter="url(#filter2_d_2293_1963)">
<path fill-rule="evenodd" clip-rule="evenodd" d="M401.659 49.632C401.32 60.195 409.679 69.0209 420.33 69.3452C430.98 69.6696 439.889 61.3696 440.228 50.8066C440.567 40.2436 432.208 31.4177 421.557 31.0934C410.907 30.769 401.998 39.0691 401.659 49.632Z" fill="#F0C414"/>
<path fill-rule="evenodd" clip-rule="evenodd" d="M401.659 49.632C401.32 60.195 409.679 69.0209 420.33 69.3452C430.98 69.6696 439.889 61.3696 440.228 50.8066C440.567 40.2436 432.208 31.4177 421.557 31.0934C410.907 30.769 401.998 39.0691 401.659 49.632Z" stroke="white" stroke-width="2.86873"/>
</g>
<path fill-rule="evenodd" clip-rule="evenodd" d="M412.485 49.9623C412.336 54.5952 416.002 58.4662 420.673 58.6084C425.345 58.7507 429.252 55.1103 429.401 50.4774C429.549 45.8446 425.883 41.9735 421.212 41.8313C416.541 41.689 412.633 45.3294 412.485 49.9623Z" fill="white"/>
<path d="M75.658 110.847V117.903C75.658 118.895 75.898 119.631 76.378 120.111C76.8686 120.591 77.546 120.831 78.41 120.831C79.2633 120.831 79.93 120.591 80.41 120.111C80.9006 119.631 81.146 118.895 81.146 117.903V110.847H82.602V117.887C82.602 118.815 82.4153 119.599 82.042 120.239C81.6686 120.868 81.162 121.338 80.522 121.647C79.8926 121.956 79.1833 122.111 78.394 122.111C77.6046 122.111 76.89 121.956 76.25 121.647C75.6206 121.338 75.1193 120.868 74.746 120.239C74.3833 119.599 74.202 118.815 74.202 117.887V110.847H75.658ZM89.3028 113.071C90.3695 113.071 91.2335 113.396 91.8948 114.047C92.5562 114.687 92.8868 115.615 92.8868 116.831V121.999H91.4468V117.039C91.4468 116.164 91.2282 115.498 90.7908 115.039C90.3535 114.57 89.7562 114.335 88.9988 114.335C88.2308 114.335 87.6175 114.575 87.1588 115.055C86.7108 115.535 86.4868 116.234 86.4868 117.151V121.999H85.0308V113.231H86.4868V114.479C86.7748 114.031 87.1642 113.684 87.6548 113.439C88.1562 113.194 88.7055 113.071 89.3028 113.071ZM99.5372 113.071C100.604 113.071 101.468 113.396 102.129 114.047C102.791 114.687 103.121 115.615 103.121 116.831V121.999H101.681V117.039C101.681 116.164 101.463 115.498 101.025 115.039C100.588 114.57 99.9905 114.335 99.2332 114.335C98.4652 114.335 97.8519 114.575 97.3932 115.055C96.9452 115.535 96.7212 116.234 96.7212 117.151V121.999H95.2652V113.231H96.7212V114.479C97.0092 114.031 97.3985 113.684 97.8892 113.439C98.3905 113.194 98.9399 113.071 99.5372 113.071ZM109.349 120.831C110.704 119.743 111.765 118.852 112.533 118.159C113.301 117.455 113.947 116.724 114.469 115.967C115.003 115.199 115.269 114.447 115.269 113.711C115.269 113.018 115.099 112.474 114.757 112.079C114.427 111.674 113.888 111.471 113.141 111.471C112.416 111.471 111.851 111.7 111.445 112.159C111.051 112.607 110.837 113.21 110.805 113.967H109.397C109.44 112.772 109.803 111.85 110.485 111.199C111.168 110.548 112.048 110.223 113.125 110.223C114.224 110.223 115.093 110.527 115.733 111.135C116.384 111.743 116.709 112.58 116.709 113.647C116.709 114.532 116.443 115.396 115.909 116.239C115.387 117.071 114.789 117.807 114.117 118.447C113.445 119.076 112.587 119.812 111.541 120.655H117.045V121.871H109.349V120.831ZM123.24 113.071C124.307 113.071 125.171 113.396 125.832 114.047C126.494 114.687 126.824 115.615 126.824 116.831V121.999H125.384V117.039C125.384 116.164 125.166 115.498 124.728 115.039C124.291 114.57 123.694 114.335 122.936 114.335C122.168 114.335 121.555 114.575 121.096 115.055C120.648 115.535 120.424 116.234 120.424 117.151V121.999H118.968V113.231H120.424V114.479C120.712 114.031 121.102 113.684 121.592 113.439C122.094 113.194 122.643 113.071 123.24 113.071ZM128.659 117.583C128.659 116.687 128.84 115.903 129.203 115.231C129.565 114.548 130.061 114.02 130.691 113.647C131.331 113.274 132.045 113.087 132.835 113.087C133.517 113.087 134.152 113.247 134.739 113.567C135.325 113.876 135.773 114.287 136.083 114.799V110.159H137.555V121.999H136.083V120.351C135.795 120.874 135.368 121.306 134.803 121.647C134.237 121.978 133.576 122.143 132.819 122.143C132.04 122.143 131.331 121.951 130.691 121.567C130.061 121.183 129.565 120.644 129.203 119.951C128.84 119.258 128.659 118.468 128.659 117.583ZM136.083 117.599C136.083 116.938 135.949 116.362 135.683 115.871C135.416 115.38 135.053 115.007 134.595 114.751C134.147 114.484 133.651 114.351 133.107 114.351C132.563 114.351 132.067 114.479 131.619 114.735C131.171 114.991 130.813 115.364 130.547 115.855C130.28 116.346 130.147 116.922 130.147 117.583C130.147 118.255 130.28 118.842 130.547 119.343C130.813 119.834 131.171 120.212 131.619 120.479C132.067 120.735 132.563 120.863 133.107 120.863C133.651 120.863 134.147 120.735 134.595 120.479C135.053 120.212 135.416 119.834 135.683 119.343C135.949 118.842 136.083 118.26 136.083 117.599ZM147.897 113.087C148.654 113.087 149.315 113.252 149.881 113.583C150.457 113.914 150.883 114.33 151.161 114.831V113.231H152.633V122.191C152.633 122.991 152.462 123.7 152.121 124.319C151.779 124.948 151.289 125.439 150.649 125.791C150.019 126.143 149.283 126.319 148.441 126.319C147.289 126.319 146.329 126.047 145.561 125.503C144.793 124.959 144.339 124.218 144.201 123.279H145.641C145.801 123.812 146.131 124.239 146.633 124.559C147.134 124.89 147.737 125.055 148.441 125.055C149.241 125.055 149.891 124.804 150.393 124.303C150.905 123.802 151.161 123.098 151.161 122.191V120.351C150.873 120.863 150.446 121.29 149.881 121.631C149.315 121.972 148.654 122.143 147.897 122.143C147.118 122.143 146.409 121.951 145.769 121.567C145.139 121.183 144.643 120.644 144.281 119.951C143.918 119.258 143.737 118.468 143.737 117.583C143.737 116.687 143.918 115.903 144.281 115.231C144.643 114.548 145.139 114.02 145.769 113.647C146.409 113.274 147.118 113.087 147.897 113.087ZM151.161 117.599C151.161 116.938 151.027 116.362 150.761 115.871C150.494 115.38 150.131 115.007 149.673 114.751C149.225 114.484 148.729 114.351 148.185 114.351C147.641 114.351 147.145 114.479 146.697 114.735C146.249 114.991 145.891 115.364 145.625 115.855C145.358 116.346 145.225 116.922 145.225 117.583C145.225 118.255 145.358 118.842 145.625 119.343C145.891 119.834 146.249 120.212 146.697 120.479C147.145 120.735 147.641 120.863 148.185 120.863C148.729 120.863 149.225 120.735 149.673 120.479C150.131 120.212 150.494 119.834 150.761 119.343C151.027 118.842 151.161 118.26 151.161 117.599ZM154.549 117.583C154.549 116.687 154.731 115.903 155.093 115.231C155.456 114.548 155.952 114.02 156.581 113.647C157.221 113.274 157.931 113.087 158.709 113.087C159.477 113.087 160.144 113.252 160.709 113.583C161.275 113.914 161.696 114.33 161.973 114.831V113.231H163.445V121.999H161.973V120.367C161.685 120.879 161.253 121.306 160.677 121.647C160.112 121.978 159.451 122.143 158.693 122.143C157.915 122.143 157.211 121.951 156.581 121.567C155.952 121.183 155.456 120.644 155.093 119.951C154.731 119.258 154.549 118.468 154.549 117.583ZM161.973 117.599C161.973 116.938 161.84 116.362 161.573 115.871C161.307 115.38 160.944 115.007 160.485 114.751C160.037 114.484 159.541 114.351 158.997 114.351C158.453 114.351 157.957 114.479 157.509 114.735C157.061 114.991 156.704 115.364 156.437 115.855C156.171 116.346 156.037 116.922 156.037 117.583C156.037 118.255 156.171 118.842 156.437 119.343C156.704 119.834 157.061 120.212 157.509 120.479C157.957 120.735 158.453 120.863 158.997 120.863C159.541 120.863 160.037 120.735 160.485 120.479C160.944 120.212 161.307 119.834 161.573 119.343C161.84 118.842 161.973 118.26 161.973 117.599ZM167.682 114.431V119.599C167.682 120.026 167.772 120.33 167.954 120.511C168.135 120.682 168.45 120.767 168.898 120.767H169.97V121.999H168.658C167.847 121.999 167.239 121.812 166.834 121.439C166.428 121.066 166.226 120.452 166.226 119.599V114.431H165.09V113.231H166.226V111.023H167.682V113.231H169.97V114.431H167.682ZM179.734 117.279C179.734 117.556 179.718 117.85 179.686 118.159H172.678C172.731 119.023 173.025 119.7 173.558 120.191C174.102 120.671 174.758 120.911 175.526 120.911C176.155 120.911 176.678 120.767 177.094 120.479C177.521 120.18 177.819 119.786 177.99 119.295H179.558C179.323 120.138 178.854 120.826 178.15 121.359C177.446 121.882 176.571 122.143 175.526 122.143C174.694 122.143 173.947 121.956 173.286 121.583C172.635 121.21 172.123 120.682 171.75 119.999C171.377 119.306 171.19 118.506 171.19 117.599C171.19 116.692 171.371 115.898 171.734 115.215C172.097 114.532 172.603 114.01 173.254 113.647C173.915 113.274 174.673 113.087 175.526 113.087C176.358 113.087 177.094 113.268 177.734 113.631C178.374 113.994 178.865 114.495 179.206 115.135C179.558 115.764 179.734 116.479 179.734 117.279ZM178.23 116.975C178.23 116.42 178.107 115.946 177.862 115.551C177.617 115.146 177.281 114.842 176.854 114.639C176.438 114.426 175.974 114.319 175.462 114.319C174.726 114.319 174.097 114.554 173.574 115.023C173.062 115.492 172.769 116.143 172.694 116.975H178.23Z" fill="#161616"/>
</g>
<defs>
<filter id="filter0_f_2293_1963" x="179.71" y="119.993" width="41.5564" height="32.3719" filterUnits="userSpaceOnUse" color-interpolation-filters="sRGB">
<feFlood flood-opacity="0" result="BackgroundImageFix"/>
<feBlend mode="normal" in="SourceGraphic" in2="BackgroundImageFix" result="shape"/>
<feGaussianBlur stdDeviation="5.19868" result="effect1_foregroundBlur_2293_1963"/>
</filter>
<filter id="filter1_d_2293_1963" x="185.871" y="91.4365" width="44.3906" height="52.4579" filterUnits="userSpaceOnUse" color-interpolation-filters="sRGB">
<feFlood flood-opacity="0" result="BackgroundImageFix"/>
<feColorMatrix in="SourceAlpha" type="matrix" values="0 0 0 0 0 0 0 0 0 0 0 0 0 0 0 0 0 0 127 0" result="hardAlpha"/>
<feOffset dy="4.78122"/>
<feGaussianBlur stdDeviation="2.39061"/>
<feColorMatrix type="matrix" values="0 0 0 0 0 0 0 0 0 0 0 0 0 0 0 0 0 0 0.2 0"/>
<feBlend mode="normal" in2="BackgroundImageFix" result="effect1_dropShadow_2293_1963"/>
<feBlend mode="normal" in="SourceGraphic" in2="effect1_dropShadow_2293_1963" result="shape"/>
</filter>
<filter id="filter2_d_2293_1963" x="396.39" y="27.7369" width="49.107" height="48.7896" filterUnits="userSpaceOnUse" color-interpolation-filters="sRGB">
<feFlood flood-opacity="0" result="BackgroundImageFix"/>
<feColorMatrix in="SourceAlpha" type="matrix" values="0 0 0 0 0 0 0 0 0 0 0 0 0 0 0 0 0 0 127 0" result="hardAlpha"/>
<feOffset dy="1.91249"/>
<feGaussianBlur stdDeviation="1.91249"/>
<feColorMatrix type="matrix" values="0 0 0 0 0 0 0 0 0 0 0 0 0 0 0 0 0 0 0.1 0"/>
<feBlend mode="normal" in2="BackgroundImageFix" result="effect1_dropShadow_2293_1963"/>
<feBlend mode="normal" in="SourceGraphic" in2="effect1_dropShadow_2293_1963" result="shape"/>
</filter>
<linearGradient id="paint0_linear_2293_1963" x1="525.648" y1="80.9385" x2="449.007" y2="-89.5735" gradientUnits="userSpaceOnUse">
<stop stop-color="#9722FB"/>
<stop offset="1" stop-color="#3A5DFB"/>
</linearGradient>
<clipPath id="clip0_2293_1963">
<rect width="645" height="166" fill="white"/>
</clipPath>
</defs>
</svg>
