<svg width="60" height="60" viewBox="0 0 60 60" fill="none" xmlns="http://www.w3.org/2000/svg">
<g id="Frame" clip-path="url(#clip0_1081_465)">
<path id="Vector" fill-rule="evenodd" clip-rule="evenodd" d="M28.866 28.2616L28.9873 28.6575C28.2105 28.7947 27.2588 29.2133 26.6743 29.6816L26.666 29.6737V25.7145C26.666 24.1373 25.1727 22.8573 23.3327 22.8573C22.226 22.8573 21.2543 23.3245 20.6477 24.0345L20.6455 24.037C19.2893 24.559 18.341 25.7223 18.341 27.0802V28.4516L18.3327 28.459V28.453C18.3327 26.9402 16.9043 25.7145 15.1393 25.7145H14.8593C13.0943 25.7145 11.666 26.9402 11.666 28.453V34.4045C11.666 34.4789 11.6695 34.5526 11.6762 34.6255L11.701 37.5287L11.7056 37.533L11.6893 37.523C11.926 46.813 20.771 54.2859 31.666 54.2859C41.191 54.2859 49.0177 47.143 49.0177 40.273C49.131 39.8159 48.5043 37.6216 48.3327 37.143L46.521 32.0216C46.3933 31.6673 46.1817 31.3423 45.909 31.0612L45.9127 31.0587C45.701 30.7387 45.061 30.0545 44.986 30.023C44.561 29.6587 44.0644 29.3516 43.5277 29.1145L43.531 29.1159L43.8993 27.4102L47.341 11.4659C47.341 11.4659 47.6543 8.6216 44.336 8.35303C41.016 8.08588 40.7027 10.9302 40.7027 10.9302L37.2677 25.9473C36.556 25.8845 35.836 25.8287 35.0927 25.7945L29.931 9.26731C29.931 9.26731 29.2377 6.47303 25.9777 7.06731C22.7177 7.66017 23.411 10.4559 23.411 10.4559L28.866 28.2616Z" fill="#D9D9D9"/>
<g id="Mask group">
<mask id="mask0_1081_465" style="mask-type:luminance" maskUnits="userSpaceOnUse" x="5" y="1" width="52" height="61">
<g id="Group">
<path id="Vector_2" d="M56.6667 1.26953H5V61.2695H56.6667V1.26953Z" fill="white"/>
<path id="Vector_3" fill-rule="evenodd" clip-rule="evenodd" d="M28.866 28.2606L28.9873 28.6565C28.2105 28.7938 27.2588 29.2123 26.6743 29.6806L26.666 29.6728V25.7135C26.666 24.1363 25.1727 22.8563 23.3327 22.8563C22.226 22.8563 21.2543 23.3235 20.6477 24.0335L20.6455 24.0361C19.2893 24.5581 18.341 25.7213 18.341 27.0792V28.4506L18.3327 28.458V28.4521C18.3327 26.9392 16.9043 25.7135 15.1393 25.7135H14.8593C13.0943 25.7135 11.666 26.9392 11.666 28.4521V34.4035C11.666 34.4779 11.6695 34.5516 11.6762 34.6245L11.701 37.5278L11.7056 37.5321L11.6893 37.5221C11.926 46.812 20.771 54.2849 31.666 54.2849C41.191 54.2849 49.0177 47.1421 49.0177 40.272C49.131 39.8149 48.5043 37.6206 48.3327 37.142L46.521 32.0206C46.3933 31.6663 46.1817 31.3413 45.909 31.0602L45.9127 31.0578C45.701 30.7378 45.061 30.0535 44.986 30.0221C44.561 29.6578 44.0644 29.3506 43.5277 29.1135L43.531 29.1149L43.8993 27.4092L47.341 11.4649C47.341 11.4649 47.6543 8.62062 44.336 8.35205C41.016 8.08491 40.7027 10.9292 40.7027 10.9292L37.2677 25.9463C36.556 25.8835 35.836 25.8278 35.0927 25.7935L29.931 9.26634C29.931 9.26634 29.2377 6.47205 25.9777 7.06634C22.7177 7.65919 23.411 10.4549 23.411 10.4549L28.866 28.2606Z" fill="black"/>
</g>
</mask>
<g mask="url(#mask0_1081_465)">
<path id="Vector_4" d="M28.988 28.6567L30.3347 34.2531C32.1268 33.9363 33.6882 33.002 34.6528 31.6693C35.6175 30.3364 35.9007 28.7224 35.436 27.2054L28.988 28.6567ZM26.675 29.6809L21.7522 33.5343C22.9535 34.6619 24.6313 35.3303 26.4115 35.3907C28.1915 35.451 29.9257 34.8983 31.2272 33.8556L26.675 29.6809ZM26.6667 29.673H20C20 31.099 20.622 32.4734 21.7438 33.5264L26.6667 29.673ZM20.6483 24.0337L15.2699 20.6573L15.2648 20.6633L20.6483 24.0337ZM20.6462 24.0363L23.3773 29.2491C24.433 28.8427 25.3472 28.2077 26.0297 27.4067L20.6462 24.0363ZM18.3417 28.4509L23.1507 32.4083C24.3427 31.3441 25.0083 29.9261 25.0083 28.4509H18.3417ZM18.3333 28.4583H11.6667C11.6667 30.7907 13.3205 32.889 15.845 33.7596C18.3695 34.6301 21.2578 34.0983 23.1423 32.4159L18.3333 28.4583ZM11.6769 34.6247L18.3433 34.5829C18.3422 34.4453 18.3352 34.3079 18.3225 34.1707L11.6769 34.6247ZM11.7017 37.528L5.03518 37.5699C5.04738 39 5.6848 40.3741 6.82157 41.4211L11.7017 37.528ZM11.7063 37.5323L7.83193 42.1826C10.6173 43.8874 14.4565 43.5074 16.7152 41.3031C18.9738 39.099 18.9182 35.7867 16.5864 33.6391L11.7063 37.5323ZM11.69 37.5223L15.5643 32.872C13.5109 31.6151 10.8055 31.4596 8.57462 32.4703C6.34377 33.481 4.96983 35.4847 5.02492 37.647L11.69 37.5223ZM49.0183 40.2723L42.4973 39.0846C42.4005 39.475 42.3517 39.8731 42.3517 40.2723H49.0183ZM48.3333 37.1423L41.9535 38.8004C41.956 38.8074 41.9585 38.8146 41.961 38.8217L48.3333 37.1423ZM46.5217 32.0209L52.9015 30.3627C52.8982 30.3533 52.8948 30.3437 52.8913 30.3343L46.5217 32.0209ZM45.9097 31.0604L41.0198 27.1764C38.744 29.2816 38.6428 32.5071 40.7837 34.7139L45.9097 31.0604ZM45.9133 31.058L40.7882 34.7124C42.9958 36.9871 46.8643 37.4412 49.7042 35.7586C52.5438 34.076 53.4153 30.8137 51.7127 28.2396L45.9133 31.058ZM44.9867 30.0223L40.2727 34.0629C40.7933 34.5093 41.3968 34.8786 42.0583 35.1559L44.9867 30.0223ZM43.5283 29.1137L46.5143 24.0047C43.2358 22.5969 39.2465 23.7229 37.5852 26.5247C35.9238 29.3267 37.2143 32.7526 40.4735 34.1927L43.5283 29.1137ZM43.5317 29.1151L40.5457 34.2241C42.4193 35.0287 44.6252 35.0313 46.5013 34.2311C48.3775 33.431 49.7057 31.9213 50.087 30.1551L43.5317 29.1151ZM47.3417 11.4651L53.897 12.5048C53.933 12.3384 53.9603 12.1708 53.9788 12.0023L47.3417 11.4651ZM44.3367 8.35229L44.9633 2.66331L44.9598 2.66302L44.3367 8.35229ZM40.7033 10.9294L47.2455 12.0288C47.288 11.8429 47.3197 11.6553 47.3405 11.4666L40.7033 10.9294ZM37.2683 25.9466L36.585 31.6307C40.0142 31.9336 43.1472 29.9457 43.8105 27.046L37.2683 25.9466ZM35.0933 25.7937L28.6535 27.2714C29.3995 29.6604 31.854 31.3669 34.7352 31.4997L35.0933 25.7937ZM29.9317 9.26658L23.4108 10.4553C23.4348 10.5522 23.4618 10.6485 23.4918 10.7442L29.9317 9.26658ZM25.9783 7.06658L27.362 12.6564L27.3652 12.6558L25.9783 7.06658ZM23.4108 10.4553L16.8907 11.6433C16.9125 11.7315 16.9368 11.8193 16.9637 11.9065L23.4108 10.4553ZM35.436 27.2054L35.3147 26.8096L22.4187 29.7121L22.5398 30.108L35.436 27.2054ZM31.2272 33.8556C31.0847 33.9697 30.9782 34.0353 30.9285 34.0643C30.8747 34.0959 30.8377 34.1133 30.8145 34.1236C30.7913 34.1339 30.7543 34.149 30.6957 34.1676C30.6417 34.1847 30.5212 34.2201 30.3347 34.2531L27.6412 23.0601C25.677 23.4074 23.6128 24.3124 22.1228 25.5061L31.2272 33.8556ZM21.7438 33.5264L21.7522 33.5343L31.5978 25.8274L31.5895 25.8196L21.7438 33.5264ZM20 25.7137V29.673H33.3333V25.7137H20ZM23.3333 28.5709C21.4915 28.5709 20 27.2924 20 25.7137H33.3333C33.3333 20.9807 28.8552 17.1423 23.3333 17.1423V28.5709ZM26.0268 27.4101C25.4603 28.0731 24.4875 28.5709 23.3333 28.5709V17.1423C19.9658 17.1423 17.0497 18.5743 15.2699 20.6573L26.0268 27.4101ZM26.0297 27.4067L26.0318 27.4041L15.2648 20.6633L15.2625 20.666L26.0297 27.4067ZM25.0083 27.0794C25.0083 28.0707 24.3088 28.8904 23.3773 29.2491L17.915 18.8236C14.2713 20.2261 11.675 23.3723 11.675 27.0794H25.0083ZM25.0083 28.4509V27.0794H11.675V28.4509H25.0083ZM23.1423 32.4159L23.1507 32.4083L13.5326 24.4934L13.5243 24.5009L23.1423 32.4159ZM11.6667 28.4523V28.4583H25V28.4523H11.6667ZM15.14 31.428C13.2186 31.428 11.6667 30.0914 11.6667 28.4523H25C25 23.7874 20.5915 19.9994 15.14 19.9994V31.428ZM14.86 31.428H15.14V19.9994H14.86V31.428ZM18.3333 28.4523C18.3333 30.0914 16.7815 31.428 14.86 31.428V19.9994C9.40857 19.9994 5 23.7874 5 28.4523H18.3333ZM18.3333 34.4037V28.4523H5V34.4037H18.3333ZM18.3225 34.1707C18.3297 34.2487 18.3333 34.3264 18.3333 34.4037H5C5 34.6297 5.0105 34.8549 5.0313 35.0787L18.3225 34.1707ZM18.3682 37.4863L18.3433 34.5829L5.01042 34.6664L5.03518 37.5699L18.3682 37.4863ZM16.5864 33.6391L16.5818 33.635L6.82157 41.4211L6.82617 41.4253L16.5864 33.6391ZM7.81567 42.1726L7.83193 42.1826L15.5806 32.882L15.5643 32.872L7.81567 42.1726ZM31.6667 48.5709C24.4135 48.5709 18.513 43.5953 18.355 37.3976L5.02492 37.647C5.34037 50.0293 17.1298 59.9994 31.6667 59.9994V48.5709ZM42.3517 40.2723C42.3517 41.8911 41.3705 43.9906 39.2475 45.7743C37.1737 47.5169 34.4562 48.5709 31.6667 48.5709V59.9994C38.4022 59.9994 44.3605 57.482 48.5812 53.9356C52.7528 50.4304 55.685 45.5234 55.685 40.2723H42.3517ZM41.961 38.8217C41.9478 38.7846 41.9523 38.7947 41.977 38.874C41.9982 38.9416 42.026 39.0339 42.0583 39.1454C42.1235 39.3706 42.1963 39.6381 42.2598 39.8959C42.2913 40.0237 42.3183 40.1403 42.3402 40.2414C42.3623 40.3453 42.3752 40.415 42.3815 40.4529C42.3843 40.4707 42.3842 40.4714 42.3825 40.4574C42.381 40.4451 42.3758 40.4024 42.3717 40.3357C42.3677 40.2746 42.3617 40.1483 42.3682 39.9781C42.3715 39.8903 42.379 39.7729 42.396 39.6331C42.4125 39.4964 42.4418 39.3079 42.4973 39.0846L55.5393 41.46C55.7445 40.6327 55.6985 39.9244 55.6853 39.7167C55.6647 39.3896 55.6223 39.0894 55.585 38.8624C55.5095 38.4017 55.4023 37.9273 55.3055 37.5347C55.1205 36.7833 54.8735 35.9309 54.7057 35.4629L41.961 38.8217ZM40.1418 33.679L41.9535 38.8004L54.7132 35.4841L52.9015 30.3627L40.1418 33.679ZM40.7837 34.7139C40.527 34.4494 40.2982 34.113 40.152 33.7074L52.8913 30.3343C52.4898 29.2201 51.8378 28.2337 51.0358 27.407L40.7837 34.7139ZM51.0385 27.4036C48.0353 24.3091 43.9355 25.5827 43.4517 25.7474C42.5208 26.0643 41.9028 26.4904 41.7637 26.5853C41.3505 26.8667 41.0693 27.1306 41.0198 27.1764L50.7997 34.9444C50.7522 34.9884 50.4727 35.2509 50.0608 35.5314C49.9222 35.626 49.3048 36.0517 48.3742 36.3686C47.9078 36.5274 46.8782 36.83 45.526 36.7626C43.9378 36.6834 42.1218 36.0866 40.7882 34.7124L51.0385 27.4036ZM42.0583 35.1559C41.4965 34.9203 41.1038 34.6693 40.961 34.5763C40.7747 34.4549 40.6337 34.3494 40.5537 34.2879C40.394 34.165 40.2802 34.0647 40.2362 34.0254C40.1388 33.9387 40.0802 33.8797 40.0798 33.8794C40.0663 33.8659 40.0912 33.8906 40.144 33.9484C40.1933 34.0026 40.234 34.0497 40.2563 34.0766C40.3033 34.1334 40.229 34.0501 40.114 33.8763L51.7127 28.2396C51.344 27.6823 50.8627 27.145 50.6535 26.9154C50.5105 26.7583 50.348 26.586 50.1868 26.4254C50.1127 26.3514 49.99 26.2313 49.8425 26.1C49.7733 26.0384 49.638 25.9199 49.4605 25.7833C49.4498 25.775 48.8375 25.2754 47.915 24.8887L42.0583 35.1559ZM40.4735 34.1927C40.4225 34.1703 40.3542 34.1327 40.2727 34.0629L49.7007 25.9817C48.7692 25.1833 47.7075 24.5314 46.5832 24.0347L40.4735 34.1927ZM46.5177 24.0061L46.5143 24.0047L40.5423 34.2227L40.5457 34.2241L46.5177 24.0061ZM37.3447 26.3694L36.9763 28.0751L50.087 30.1551L50.4553 28.4494L37.3447 26.3694ZM40.7863 10.4255L37.3447 26.3694L50.4553 28.4494L53.897 12.5048L40.7863 10.4255ZM43.71 14.0413C43.3782 14.0144 42.6977 13.8711 42.003 13.3875C41.3473 12.931 41.018 12.4076 40.8668 12.0732C40.7263 11.7621 40.6978 11.5295 40.6888 11.4219C40.6833 11.3544 40.6818 11.2859 40.6837 11.2119C40.6847 11.174 40.6867 11.1322 40.69 11.0858C40.6917 11.0625 40.6937 11.0378 40.696 11.0116C40.6973 10.9985 40.6985 10.985 40.7 10.9711C40.7007 10.9641 40.7013 10.957 40.7022 10.9499C40.7025 10.9463 40.703 10.9426 40.7033 10.939C40.7035 10.9372 40.7038 10.9344 40.704 10.9335C40.7042 10.9307 40.7045 10.928 47.3417 11.4651C53.9788 12.0023 53.9792 11.9995 53.9795 11.9967C53.9795 11.9958 53.9798 11.9929 53.98 11.991C53.9805 11.9872 53.9808 11.9833 53.9813 11.9794C53.9822 11.9715 53.983 11.9634 53.9838 11.9551C53.9855 11.9384 53.9872 11.9208 53.9888 11.9023C53.9922 11.8654 53.9955 11.8247 53.9987 11.7805C54.005 11.6923 54.0105 11.5891 54.0135 11.4729C54.0197 11.2423 54.0167 10.9495 53.9887 10.6111C53.9348 9.96183 53.7773 9.00145 53.3003 7.94571C52.8127 6.86665 51.9395 5.58176 50.4092 4.51644C48.84 3.42401 46.9543 2.82445 44.9633 2.66331L43.71 14.0413ZM40.7033 10.9294C47.3405 11.4666 47.3402 11.4694 47.3398 11.4721C47.3398 11.473 47.3395 11.4758 47.3393 11.4776C47.3388 11.4813 47.3385 11.4849 47.338 11.4885C47.3372 11.4957 47.3363 11.5027 47.3355 11.5097C47.3338 11.5236 47.3322 11.5371 47.3305 11.5502C47.3272 11.5763 47.3237 11.6009 47.3202 11.624C47.3133 11.6702 47.3062 11.7116 47.2988 11.749C47.2847 11.8221 47.2682 11.8892 47.2478 11.9546C47.2155 12.059 47.1368 12.2828 46.931 12.5657C46.7095 12.8698 46.2722 13.3305 45.5295 13.6733C44.7428 14.0364 44.0445 14.0682 43.7135 14.0416L44.9598 2.66302C42.9688 2.50282 40.9863 2.78994 39.2072 3.61124C37.472 4.41222 36.3338 5.53389 35.619 6.51568C34.9198 7.47623 34.5553 8.39439 34.3605 9.02373C34.259 9.35165 34.192 9.63891 34.1477 9.86645C34.1253 9.98116 34.1082 10.0834 34.0952 10.1711C34.0885 10.215 34.083 10.2555 34.0782 10.2924C34.0758 10.3108 34.0737 10.3284 34.0717 10.345C34.0707 10.3534 34.0697 10.3615 34.0688 10.3693C34.0683 10.3733 34.0678 10.3771 34.0675 10.381C34.0672 10.3829 34.067 10.3857 34.0668 10.3867C34.0665 10.3895 34.0662 10.3923 40.7033 10.9294ZM43.8105 27.046L47.2455 12.0288L34.1612 9.83002L30.7262 24.8471L43.8105 27.046ZM34.7352 31.4997C35.3257 31.527 35.9258 31.5726 36.585 31.6307L37.9517 20.2624C37.1875 20.1949 36.3477 20.129 35.4515 20.0877L34.7352 31.4997ZM23.4918 10.7442L28.6535 27.2714L41.5332 24.316L36.3715 7.78891L23.4918 10.7442ZM27.3652 12.6558C27.0392 12.7153 26.3398 12.753 25.5082 12.4695C24.7232 12.202 24.2262 11.7869 23.9653 11.5065C23.7227 11.2457 23.6143 11.0311 23.5683 10.9307C23.5393 10.8677 23.514 10.8027 23.49 10.7316C23.4778 10.6951 23.4652 10.6547 23.4522 10.6096C23.4455 10.587 23.4388 10.5629 23.432 10.5373C23.4285 10.5245 23.425 10.5112 23.4215 10.4976C23.4198 10.4908 23.418 10.4838 23.4162 10.4768C23.4153 10.4733 23.4145 10.4697 23.4135 10.4661C23.4132 10.4643 23.4125 10.4616 23.4122 10.4607C23.4115 10.458 23.4108 10.4553 29.9317 9.26658C36.4525 8.07786 36.4518 8.07511 36.4512 8.07236C36.4508 8.07142 36.4502 8.06865 36.4497 8.06678C36.4488 8.06302 36.4478 8.05922 36.4468 8.05535C36.4448 8.04764 36.4428 8.03968 36.4408 8.03152C36.4365 8.01518 36.432 7.99796 36.4272 7.97988C36.4175 7.94373 36.4065 7.90405 36.3942 7.86108C36.3693 7.77531 36.3385 7.67548 36.301 7.56375C36.2263 7.34218 36.1213 7.06349 35.9765 6.74784C35.6985 6.14208 35.2132 5.26604 34.3897 4.38089C33.548 3.47621 32.2663 2.47399 30.4345 1.84968C28.556 1.20947 26.5475 1.12072 24.5915 1.47731L27.3652 12.6558ZM23.4108 10.4553C29.9318 9.26715 29.9333 9.26973 29.934 9.27245C29.9342 9.27333 29.9348 9.27605 29.9353 9.27783C29.9362 9.28142 29.937 9.28498 29.9378 9.28851C29.9397 9.29555 29.9413 9.30251 29.943 9.30935C29.9462 9.32304 29.9493 9.33632 29.9522 9.34921C29.9582 9.37498 29.9633 9.39928 29.9682 9.42223C29.9777 9.46795 29.9853 9.50919 29.9913 9.54675C30.0032 9.61991 30.0108 9.68802 30.0143 9.75548C30.02 9.86293 30.023 10.0965 29.9252 10.4192C29.8202 10.7662 29.5632 11.3191 28.9725 11.8377C28.3467 12.3873 27.6888 12.597 27.362 12.6564L24.5947 1.47672C22.6378 1.83261 20.8442 2.61411 19.4313 3.85458C18.0538 5.06416 17.359 6.42716 17.0198 7.54712C16.6878 8.64291 16.6605 9.61245 16.6942 10.2626C16.7117 10.6014 16.748 10.8926 16.7852 11.121C16.8038 11.2361 16.8232 11.338 16.8412 11.425C16.8502 11.4685 16.859 11.5086 16.8673 11.545C16.8715 11.5632 16.8755 11.5805 16.8795 11.5969C16.8813 11.6051 16.8833 11.613 16.8852 11.6208C16.8862 11.6246 16.887 11.6284 16.888 11.6322C16.8885 11.6341 16.8892 11.6368 16.8893 11.6378C16.89 11.6405 16.8898 11.6434 23.4108 10.4553ZM35.3147 26.8096L29.8597 9.00381L16.9637 11.9065L22.4187 29.7121L35.3147 26.8096Z" fill="white"/>
</g>
</g>
<path id="Vector_5" d="M44.9874 30.0232C44.5624 29.6589 44.0658 29.3518 43.5291 29.1146L42.8624 27.1775L29.5091 27.0975L28.9974 28.6561C28.2191 28.7918 27.2624 29.2118 26.6758 29.6818L20.6574 24.0332C19.2958 24.5532 18.3424 25.7189 18.3424 27.0803V28.4518L11.6758 34.4032L11.7024 37.5289L28.3424 52.8561C28.3424 52.8561 45.8724 31.0161 45.9141 31.0589C45.7024 30.7389 45.0624 30.0546 44.9874 30.0232Z" fill="#EF9645"/>
<path id="Vector_6" d="M40.9677 28.5716H29.9993C29.6527 28.5716 29.3143 28.6016 28.9877 28.6587L28.866 28.2616L23.411 10.4559C23.411 10.4559 22.7177 7.66017 25.9777 7.06731C29.2377 6.47303 29.931 9.26731 29.931 9.26731L35.0927 25.7945C35.836 25.8287 36.556 25.8845 37.2677 25.9473L40.7027 10.9302C40.7027 10.9302 41.016 8.08588 44.336 8.35303C47.6543 8.6216 47.341 11.4659 47.341 11.4659L43.8993 27.4102L43.531 29.1159C42.7577 28.7802 41.8943 28.5716 40.9677 28.5716ZM14.8593 25.7145H15.1393C16.9043 25.7145 18.3327 26.9402 18.3327 28.453V34.4045C18.3327 35.9173 16.9043 37.143 15.1393 37.143H14.8593C13.0943 37.143 11.666 35.9173 11.666 34.4045V28.453C11.666 26.9402 13.0943 25.7145 14.8593 25.7145ZM26.3893 29.943L26.296 30.0316C25.506 30.7873 24.9993 31.7616 24.9993 32.8573C24.9993 32.9473 25.021 33.033 25.0293 33.1216C25.1027 34.0902 25.5427 34.9673 26.2427 35.6559C26.1243 35.8402 25.971 36.003 25.811 36.1602C25.201 36.7559 24.3277 37.143 23.3327 37.143C21.4927 37.143 19.9993 35.863 19.9993 34.2859V25.7145C19.9993 25.0845 20.2443 24.5073 20.6477 24.0345C21.2543 23.3245 22.226 22.8573 23.3327 22.8573C25.1727 22.8573 26.666 24.1373 26.666 25.7145V29.683C26.5643 29.7616 26.4843 29.8587 26.3893 29.943Z" fill="#FFDC5D"/>
<path id="Vector_7" d="M15.1028 38.5714C16.8095 38.5714 18.3111 37.82 19.1861 36.6829C19.3911 36.9443 19.6378 37.1771 19.9045 37.3929C21.8795 38.9857 24.9611 38.8843 26.8495 37.27C27.1028 37.0529 27.3545 36.8343 27.5478 36.5729L27.5428 36.5686C27.8778 36.7329 28.3328 37.1429 29.9995 37.1429H34.2278C33.6111 37.5414 33.0478 38.0329 32.5211 38.5714C30.4745 40.6671 29.1661 43.7229 29.1661 47.1429C29.1661 47.5371 29.5395 47.8571 29.9995 47.8571C30.4595 47.8571 30.8328 47.5371 30.8328 47.1429C30.8328 43.5029 32.4261 40.3214 34.7945 38.5714C36.0145 37.67 37.4345 37.1429 38.9578 37.1429C40.1461 37.2557 40.3695 35.7143 39.1661 35.7143H29.9995C28.1595 35.7143 26.6661 34.4343 26.6661 32.8571C26.6661 31.28 28.1595 30 29.9995 30H43.3328C44.7628 30 46.0995 30.8514 46.5211 32.0214L48.3328 37.1429C48.5045 37.6214 49.1311 39.8157 49.0178 40.2729C49.0178 47.1429 41.1911 54.2857 31.6661 54.2857C20.7711 54.2857 11.9261 46.8129 11.6895 37.5229L11.7128 37.5371C12.5711 38.1729 13.6728 38.5714 14.8961 38.5714H15.1028Z" fill="#FFDC5D"/>
</g>
<defs>
<clipPath id="clip0_1081_465">
<rect width="60" height="60" fill="white"/>
</clipPath>
</defs>
</svg>
