<svg width="32" height="32" viewBox="0 0 32 32" fill="none" xmlns="http://www.w3.org/2000/svg">
<path d="M11.3096 24H23.9636C25.4568 24 26.6673 22.8103 26.6673 21.3428C26.6673 19.3334 23.9636 18.6855 23.9636 18.6855C23.9636 18.6855 19.0465 16.7952 13.334 18.6667C13.334 18.6667 13.1486 11.8303 10.2804 4.22758C9.71456 2.72757 7.8689 2.21542 6.5145 3.10282C5.62074 3.68842 5.17492 4.74623 5.38558 5.78142L8.65834 21.8639C8.91109 23.106 10.0207 24 11.3096 24Z" stroke="#B0B0B0" stroke-width="2" stroke-linecap="round" stroke-linejoin="round"/>
<path d="M16.666 14H23.9993" stroke="#B0B0B0" stroke-width="2" stroke-linecap="round" stroke-linejoin="round"/>
<path d="M21.3327 24L17.3327 29.3333M17.3327 29.3333H10.666M17.3327 29.3333H23.9993" stroke="#B0B0B0" stroke-width="2" stroke-linecap="round" stroke-linejoin="round"/>
</svg>
