<svg width="32" height="32" viewBox="0 0 32 32" fill="none" xmlns="http://www.w3.org/2000/svg">
<path d="M2.66602 11.4254C2.66602 9.83051 3.30919 8.85308 4.64019 8.11236L10.1192 5.06324C12.9901 3.46552 14.4256 2.66666 15.9993 2.66666C17.5731 2.66666 19.0085 3.46552 21.8795 5.06324L27.3585 8.11236C28.6895 8.85308 29.3327 9.83052 29.3327 11.4254C29.3327 11.8579 29.3327 12.0741 29.2855 12.2519C29.0373 13.1859 28.1909 13.3333 27.3736 13.3333H4.62506C3.80771 13.3333 2.96138 13.1859 2.71324 12.2519C2.66602 12.0741 2.66602 11.8579 2.66602 11.4254Z" stroke="#B0B0B0" stroke-width="2"/>
<path d="M15.9941 9.33334H16.0061" stroke="#B0B0B0" stroke-width="2.66667" stroke-linecap="round" stroke-linejoin="round"/>
<path d="M5.33398 13.3333V24.6667M10.6673 13.3333V24.6667" stroke="#B0B0B0" stroke-width="2"/>
<path d="M21.334 13.3333V24.6667M26.6673 13.3333V24.6667" stroke="#B0B0B0" stroke-width="2"/>
<path d="M25.3327 24.6667H6.66602C4.45688 24.6667 2.66602 26.4575 2.66602 28.6667C2.66602 29.0348 2.9645 29.3333 3.33268 29.3333H28.666C29.0341 29.3333 29.3327 29.0348 29.3327 28.6667C29.3327 26.4575 27.5419 24.6667 25.3327 24.6667Z" stroke="#B0B0B0" stroke-width="2"/>
</svg>
