<svg width="25" height="25" viewBox="0 0 25 25" fill="none" xmlns="http://www.w3.org/2000/svg">
<path d="M17.5 6.5C19.8456 6.5 20.5184 6.5 21.3263 7.11994C21.5343 7.27954 21.7205 7.46572 21.8801 7.67372C22.5 8.48164 22.5 9.65442 22.5 12V16.5C22.5 19.3284 22.5 20.7426 21.6213 21.6213C20.7426 22.5 19.3284 22.5 16.5 22.5H8.5C5.67157 22.5 4.25736 22.5 3.37868 21.6213C2.5 20.7426 2.5 19.3284 2.5 16.5V12C2.5 9.65442 2.5 8.48164 3.11994 7.67372C3.27954 7.46572 3.46572 7.27954 3.67372 7.11994C4.48164 6.5 5.15442 6.5 7.5 6.5" stroke="#141B34" stroke-width="1.5" stroke-linecap="round"/>
<path d="M17.5 7.5L16.6142 5.28543C16.232 4.32996 15.8994 3.2461 14.9166 2.75955C14.3924 2.5 13.7616 2.5 12.5 2.5C11.2384 2.5 10.6076 2.5 10.0834 2.75955C9.1006 3.2461 8.76801 4.32996 8.38583 5.28543L7.5 7.5" stroke="#141B34" stroke-width="1.5" stroke-linecap="round" stroke-linejoin="round"/>
<path d="M16 14.5C16 16.433 14.433 18 12.5 18C10.567 18 9 16.433 9 14.5C9 12.567 10.567 11 12.5 11C14.433 11 16 12.567 16 14.5Z" stroke="#141B34" stroke-width="1.5"/>
<path d="M12.5 6.5H12.509" stroke="#141B34" stroke-width="2" stroke-linecap="round" stroke-linejoin="round"/>
</svg>
