<svg width="32" height="32" viewBox="0 0 32 32" fill="none" xmlns="http://www.w3.org/2000/svg">
<path d="M23.4391 12.9469C22.768 12.7642 22.0617 12.6667 21.3327 12.6667C17.9551 12.6667 15.0663 14.7599 13.8929 17.7197M23.4391 12.9469C26.8355 13.8715 29.3327 16.9775 29.3327 20.6667C29.3327 25.0849 25.7509 28.6667 21.3327 28.6667C19.2837 28.6667 17.4147 27.8964 15.9993 26.6296M23.4391 12.9469C23.8007 12.0349 23.9993 11.0407 23.9993 10C23.9993 5.58172 20.4176 2 15.9993 2C11.5811 2 7.99935 5.58172 7.99935 10C7.99935 11.0407 8.19806 12.0349 8.55959 12.9469M13.8929 17.7197C13.5313 18.6317 13.3327 19.626 13.3327 20.6667C13.3327 23.036 14.3627 25.1648 15.9993 26.6296M13.8929 17.7197C11.4546 17.056 9.47974 15.268 8.55959 12.9469M15.9993 26.6296C14.584 27.8964 12.715 28.6667 10.666 28.6667C6.24774 28.6667 2.66602 25.0849 2.66602 20.6667C2.66602 16.9775 5.16327 13.8715 8.55959 12.9469" stroke="#B0B0B0" stroke-width="2" stroke-linecap="round"/>
</svg>
