<svg width="32" height="33" viewBox="0 0 32 33" fill="none" xmlns="http://www.w3.org/2000/svg">
<path d="M2.66602 16.5C2.66602 11.4717 2.66602 8.95751 4.22811 7.39541C5.79022 5.83331 8.30436 5.83331 13.3327 5.83331H18.666C23.6943 5.83331 26.2085 5.83331 27.7705 7.39541C29.3327 8.95751 29.3327 11.4717 29.3327 16.5C29.3327 21.5282 29.3327 24.0425 27.7705 25.6045C26.2085 27.1666 23.6943 27.1666 18.666 27.1666H13.3327C8.30436 27.1666 5.79022 27.1666 4.22811 25.6045C2.66602 24.0425 2.66602 21.5282 2.66602 16.5Z" stroke="#B0B0B0" stroke-width="2" stroke-linecap="round" stroke-linejoin="round"/>
<path d="M14.6673 13.8334C14.6673 12.3606 13.4735 11.1667 12.0007 11.1667C10.5279 11.1667 9.33398 12.3606 9.33398 13.8334C9.33398 15.3062 10.5279 16.5 12.0007 16.5C13.4735 16.5 14.6673 15.3062 14.6673 13.8334Z" stroke="#B0B0B0" stroke-width="2" stroke-linecap="round" stroke-linejoin="round"/>
<path d="M17.3327 21.8333C17.3327 18.8879 14.9448 16.5 11.9993 16.5C9.05383 16.5 6.66602 18.8879 6.66602 21.8333" stroke="#B0B0B0" stroke-width="2" stroke-linecap="round" stroke-linejoin="round"/>
<path d="M20 12.5H25.3333" stroke="#B0B0B0" stroke-width="2" stroke-linecap="round" stroke-linejoin="round"/>
<path d="M20 16.5H25.3333" stroke="#B0B0B0" stroke-width="2" stroke-linecap="round" stroke-linejoin="round"/>
</svg>
