<svg width="33" height="33" viewBox="0 0 33 33" fill="none" xmlns="http://www.w3.org/2000/svg">
<path d="M6.19058 25.6263C6.49042 27.8533 8.335 29.598 10.5797 29.7012C12.4685 29.788 14.3872 29.8333 16.5002 29.8333C18.6131 29.8333 20.5318 29.788 22.4206 29.7012C24.6654 29.598 26.5099 27.8533 26.8098 25.6263C27.0055 24.1729 27.1668 22.6835 27.1668 21.1667C27.1668 19.6499 27.0055 18.1604 26.8098 16.7071C26.5099 14.48 24.6654 12.7353 22.4206 12.6321C20.5318 12.5453 18.6131 12.5 16.5002 12.5C14.3872 12.5 12.4685 12.5453 10.5797 12.6321C8.335 12.7353 6.49042 14.48 6.19058 16.7071C5.9949 18.1604 5.8335 19.6499 5.8335 21.1667C5.8335 22.6835 5.9949 24.1729 6.19058 25.6263Z" stroke="#E4E4E4" stroke-width="2"/>
<path d="M10.5 12.5001V9.16675C10.5 5.85304 13.1863 3.16675 16.5 3.16675C19.8137 3.16675 22.5 5.85304 22.5 9.16675V12.5001" stroke="#E4E4E4" stroke-width="2" stroke-linecap="round" stroke-linejoin="round"/>
<path d="M21.8335 21.1533V21.1667" stroke="#E4E4E4" stroke-width="2.66667" stroke-linecap="round" stroke-linejoin="round"/>
<path d="M16.5 21.1533V21.1667" stroke="#E4E4E4" stroke-width="2.66667" stroke-linecap="round" stroke-linejoin="round"/>
<path d="M11.1665 21.1533V21.1667" stroke="#E4E4E4" stroke-width="2.66667" stroke-linecap="round" stroke-linejoin="round"/>
</svg>
