<svg width="123" height="89" viewBox="0 0 123 89" fill="none" xmlns="http://www.w3.org/2000/svg">
<path d="M75.5 30.25H47.5C46.5433 30.25 45.75 29.4567 45.75 28.5C45.75 27.5433 46.5433 26.75 47.5 26.75H75.5C76.4567 26.75 77.25 27.5433 77.25 28.5C77.25 29.4567 76.4567 30.25 75.5 30.25Z" fill="#7C7C7C"/>
<path d="M61.5 44.25C60.5433 44.25 59.75 43.4567 59.75 42.5V14.5C59.75 13.5433 60.5433 12.75 61.5 12.75C62.4567 12.75 63.25 13.5433 63.25 14.5V42.5C63.25 43.4567 62.4567 44.25 61.5 44.25Z" fill="#7C7C7C"/>
<rect y="56.5" width="123" height="32" rx="8" fill="#DEFAE2"/>
<path d="M31.9759 69.2273H33.0767V74.0107C33.0767 74.5196 32.9571 74.9706 32.718 75.3636C32.4789 75.7543 32.1428 76.062 31.7095 76.2869C31.2763 76.5095 30.7685 76.6207 30.1861 76.6207C29.6061 76.6207 29.0994 76.5095 28.6662 76.2869C28.233 76.062 27.8968 75.7543 27.6577 75.3636C27.4186 74.9706 27.299 74.5196 27.299 74.0107V69.2273H28.3963V73.9219C28.3963 74.2509 28.4685 74.5433 28.6129 74.799C28.7597 75.0547 28.9669 75.2559 29.2344 75.4027C29.5019 75.5471 29.8191 75.6193 30.1861 75.6193C30.5554 75.6193 30.8738 75.5471 31.1413 75.4027C31.4112 75.2559 31.6172 75.0547 31.7592 74.799C31.9036 74.5433 31.9759 74.2509 31.9759 73.9219V69.2273ZM34.5868 78.5455V71.0455H35.6238V71.9297H35.7125C35.7741 71.8161 35.8629 71.6847 35.9789 71.5355C36.0949 71.3864 36.2559 71.2562 36.4618 71.1449C36.6678 71.0312 36.94 70.9744 37.2786 70.9744C37.7189 70.9744 38.1119 71.0857 38.4576 71.3082C38.8032 71.5308 39.0743 71.8516 39.2708 72.2706C39.4696 72.6896 39.5691 73.1939 39.5691 73.7834C39.5691 74.3729 39.4708 74.8783 39.2743 75.2997C39.0778 75.7187 38.8079 76.0419 38.4647 76.2692C38.1214 76.4941 37.7296 76.6065 37.2892 76.6065C36.9578 76.6065 36.6867 76.5509 36.476 76.4396C36.2677 76.3284 36.1043 76.1982 35.986 76.049C35.8676 75.8999 35.7765 75.7673 35.7125 75.6513H35.6486V78.5455H34.5868ZM35.6273 73.7727C35.6273 74.1562 35.6829 74.4924 35.7942 74.7812C35.9055 75.0701 36.0665 75.2962 36.2772 75.4595C36.4879 75.6205 36.7459 75.701 37.0513 75.701C37.3685 75.701 37.6337 75.617 37.8468 75.4489C38.0598 75.2784 38.2208 75.0476 38.3297 74.7564C38.441 74.4652 38.4966 74.1373 38.4966 73.7727C38.4966 73.4129 38.4422 73.0897 38.3333 72.8033C38.2267 72.5168 38.0658 72.2907 37.8503 72.125C37.6373 71.9593 37.3709 71.8764 37.0513 71.8764C36.7435 71.8764 36.4831 71.9557 36.2701 72.1143C36.0594 72.273 35.8996 72.4943 35.7907 72.7784C35.6818 73.0625 35.6273 73.3939 35.6273 73.7727ZM41.8205 69.2273V76.5H40.7587V69.2273H41.8205ZM45.5465 76.6101C45.0352 76.6101 44.5889 76.4929 44.2077 76.2585C43.8266 76.0241 43.5307 75.6963 43.32 75.2749C43.1093 74.8535 43.0039 74.361 43.0039 73.7976C43.0039 73.2318 43.1093 72.737 43.32 72.3132C43.5307 71.8894 43.8266 71.5604 44.2077 71.326C44.5889 71.0916 45.0352 70.9744 45.5465 70.9744C46.0579 70.9744 46.5041 71.0916 46.8853 71.326C47.2665 71.5604 47.5624 71.8894 47.7731 72.3132C47.9838 72.737 48.0891 73.2318 48.0891 73.7976C48.0891 74.361 47.9838 74.8535 47.7731 75.2749C47.5624 75.6963 47.2665 76.0241 46.8853 76.2585C46.5041 76.4929 46.0579 76.6101 45.5465 76.6101ZM45.5501 75.7188C45.8815 75.7188 46.1561 75.6312 46.3739 75.456C46.5917 75.2808 46.7527 75.0476 46.8569 74.7564C46.9634 74.4652 47.0167 74.1444 47.0167 73.794C47.0167 73.446 46.9634 73.1264 46.8569 72.8352C46.7527 72.5417 46.5917 72.3061 46.3739 72.1286C46.1561 71.951 45.8815 71.8622 45.5501 71.8622C45.2163 71.8622 44.9393 71.951 44.7191 72.1286C44.5013 72.3061 44.3391 72.5417 44.2326 72.8352C44.1284 73.1264 44.0763 73.446 44.0763 73.794C44.0763 74.1444 44.1284 74.4652 44.2326 74.7564C44.3391 75.0476 44.5013 75.2808 44.7191 75.456C44.9393 75.6312 45.2163 75.7188 45.5501 75.7188ZM50.8617 76.6207C50.516 76.6207 50.2035 76.5568 49.9242 76.429C49.6448 76.2988 49.4235 76.1106 49.2601 75.8643C49.0991 75.6181 49.0186 75.3163 49.0186 74.9588C49.0186 74.651 49.0778 74.3977 49.1962 74.1989C49.3146 74 49.4744 73.8426 49.6756 73.7266C49.8768 73.6106 50.1017 73.523 50.3503 73.4638C50.5989 73.4046 50.8522 73.3596 51.1103 73.3288C51.437 73.291 51.7021 73.2602 51.9057 73.2365C52.1093 73.2105 52.2573 73.169 52.3496 73.1122C52.4419 73.0554 52.4881 72.9631 52.4881 72.8352V72.8104C52.4881 72.5002 52.4005 72.2599 52.2253 72.0895C52.0525 71.919 51.7944 71.8338 51.4512 71.8338C51.0937 71.8338 50.812 71.9131 50.606 72.0717C50.4024 72.228 50.2615 72.402 50.1834 72.5938L49.1855 72.3665C49.3039 72.035 49.4767 71.7675 49.704 71.5639C49.9337 71.358 50.1976 71.2088 50.4959 71.1165C50.7942 71.0218 51.1079 70.9744 51.437 70.9744C51.6548 70.9744 51.8856 71.0005 52.1294 71.0526C52.3757 71.1023 52.6053 71.1946 52.8184 71.3295C53.0338 71.4645 53.2102 71.6574 53.3475 71.9084C53.4848 72.157 53.5534 72.4801 53.5534 72.8778V76.5H52.5165V75.7543H52.4739C52.4052 75.8916 52.3023 76.0265 52.165 76.1591C52.0276 76.2917 51.8513 76.4018 51.6358 76.4893C51.4204 76.5769 51.1623 76.6207 50.8617 76.6207ZM51.0925 75.7685C51.3861 75.7685 51.637 75.7105 51.8453 75.5945C52.056 75.4785 52.2159 75.3269 52.3248 75.1399C52.436 74.9505 52.4917 74.7481 52.4917 74.5327V73.8295C52.4538 73.8674 52.3804 73.9029 52.2715 73.9361C52.165 73.9669 52.043 73.9941 51.9057 74.0178C51.7684 74.0391 51.6346 74.0592 51.5044 74.0781C51.3742 74.0947 51.2653 74.1089 51.1777 74.1207C50.9718 74.1468 50.7836 74.1906 50.6131 74.2521C50.445 74.3137 50.3101 74.4025 50.2083 74.5185C50.1088 74.6321 50.0591 74.7836 50.0591 74.973C50.0591 75.2358 50.1562 75.4347 50.3503 75.5696C50.5444 75.7022 50.7918 75.7685 51.0925 75.7685ZM57.0096 76.6065C56.5692 76.6065 56.1763 76.4941 55.8306 76.2692C55.4873 76.0419 55.2174 75.7187 55.021 75.2997C54.8268 74.8783 54.7298 74.3729 54.7298 73.7834C54.7298 73.1939 54.828 72.6896 55.0245 72.2706C55.2234 71.8516 55.4956 71.5308 55.8413 71.3082C56.1869 71.0857 56.5787 70.9744 57.0167 70.9744C57.3552 70.9744 57.6275 71.0312 57.8335 71.1449C58.0418 71.2562 58.2028 71.3864 58.3164 71.5355C58.4324 71.6847 58.5224 71.8161 58.5863 71.9297H58.6502V69.2273H59.712V76.5H58.6751V75.6513H58.5863C58.5224 75.7673 58.43 75.8999 58.3093 76.049C58.1909 76.1982 58.0276 76.3284 57.8192 76.4396C57.6109 76.5509 57.341 76.6065 57.0096 76.6065ZM57.244 75.701C57.5494 75.701 57.8074 75.6205 58.0181 75.4595C58.2312 75.2962 58.3922 75.0701 58.5011 74.7812C58.6123 74.4924 58.668 74.1562 58.668 73.7727C58.668 73.3939 58.6135 73.0625 58.5046 72.7784C58.3957 72.4943 58.2359 72.273 58.0252 72.1143C57.8145 71.9557 57.5541 71.8764 57.244 71.8764C56.9244 71.8764 56.658 71.9593 56.445 72.125C56.2319 72.2907 56.0709 72.5168 55.962 72.8033C55.8555 73.0897 55.8022 73.4129 55.8022 73.7727C55.8022 74.1373 55.8567 74.4652 55.9656 74.7564C56.0745 75.0476 56.2354 75.2784 56.4485 75.4489C56.6639 75.617 56.9291 75.701 57.244 75.701ZM63.8739 78.5455V71.0455H64.9109V71.9297H64.9996C65.0612 71.8161 65.15 71.6847 65.266 71.5355C65.382 71.3864 65.543 71.2562 65.7489 71.1449C65.9549 71.0312 66.2272 70.9744 66.5657 70.9744C67.006 70.9744 67.399 71.0857 67.7447 71.3082C68.0903 71.5308 68.3614 71.8516 68.5579 72.2706C68.7567 72.6896 68.8562 73.1939 68.8562 73.7834C68.8562 74.3729 68.7579 74.8783 68.5614 75.2997C68.3649 75.7187 68.0951 76.0419 67.7518 76.2692C67.4085 76.4941 67.0167 76.6065 66.5763 76.6065C66.2449 76.6065 65.9738 76.5509 65.7631 76.4396C65.5548 76.3284 65.3915 76.1982 65.2731 76.049C65.1547 75.8999 65.0636 75.7673 64.9996 75.6513H64.9357V78.5455H63.8739ZM64.9144 73.7727C64.9144 74.1562 64.9701 74.4924 65.0813 74.7812C65.1926 75.0701 65.3536 75.2962 65.5643 75.4595C65.775 75.6205 66.033 75.701 66.3384 75.701C66.6557 75.701 66.9208 75.617 67.1339 75.4489C67.3469 75.2784 67.5079 75.0476 67.6168 74.7564C67.7281 74.4652 67.7837 74.1373 67.7837 73.7727C67.7837 73.4129 67.7293 73.0897 67.6204 72.8033C67.5138 72.5168 67.3529 72.2907 67.1374 72.125C66.9244 71.9593 66.658 71.8764 66.3384 71.8764C66.0307 71.8764 65.7702 71.9557 65.5572 72.1143C65.3465 72.273 65.1867 72.4943 65.0778 72.7784C64.9689 73.0625 64.9144 73.3939 64.9144 73.7727ZM71.1076 73.2614V76.5H70.0458V69.2273H71.0934V71.9332H71.1609C71.2887 71.6397 71.484 71.4065 71.7468 71.2337C72.0096 71.0608 72.3529 70.9744 72.7766 70.9744C73.1507 70.9744 73.4774 71.0514 73.7567 71.2053C74.0385 71.3591 74.2563 71.5888 74.4102 71.8942C74.5664 72.1972 74.6445 72.576 74.6445 73.0305V76.5H73.5827V73.1584C73.5827 72.7583 73.4798 72.4482 73.2738 72.228C73.0678 72.0054 72.7814 71.8942 72.4144 71.8942C72.1635 71.8942 71.9386 71.9474 71.7397 72.054C71.5432 72.1605 71.3881 72.3168 71.2745 72.5227C71.1632 72.7263 71.1076 72.9725 71.1076 73.2614ZM78.359 76.6101C77.8477 76.6101 77.4014 76.4929 77.0202 76.2585C76.6391 76.0241 76.3432 75.6963 76.1325 75.2749C75.9218 74.8535 75.8164 74.361 75.8164 73.7976C75.8164 73.2318 75.9218 72.737 76.1325 72.3132C76.3432 71.8894 76.6391 71.5604 77.0202 71.326C77.4014 71.0916 77.8477 70.9744 78.359 70.9744C78.8704 70.9744 79.3166 71.0916 79.6978 71.326C80.079 71.5604 80.3749 71.8894 80.5856 72.3132C80.7963 72.737 80.9016 73.2318 80.9016 73.7976C80.9016 74.361 80.7963 74.8535 80.5856 75.2749C80.3749 75.6963 80.079 76.0241 79.6978 76.2585C79.3166 76.4929 78.8704 76.6101 78.359 76.6101ZM78.3626 75.7188C78.694 75.7188 78.9686 75.6312 79.1864 75.456C79.4042 75.2808 79.5652 75.0476 79.6694 74.7564C79.7759 74.4652 79.8292 74.1444 79.8292 73.794C79.8292 73.446 79.7759 73.1264 79.6694 72.8352C79.5652 72.5417 79.4042 72.3061 79.1864 72.1286C78.9686 71.951 78.694 71.8622 78.3626 71.8622C78.0288 71.8622 77.7518 71.951 77.5316 72.1286C77.3138 72.3061 77.1516 72.5417 77.0451 72.8352C76.9409 73.1264 76.8888 73.446 76.8888 73.794C76.8888 74.1444 76.9409 74.4652 77.0451 74.7564C77.1516 75.0476 77.3138 75.2808 77.5316 75.456C77.7518 75.6312 78.0288 75.7188 78.3626 75.7188ZM84.633 71.0455V71.8977H81.6536V71.0455H84.633ZM82.4526 69.7386H83.5144V74.8984C83.5144 75.1044 83.5452 75.2595 83.6067 75.3636C83.6683 75.4654 83.7476 75.5353 83.8446 75.5732C83.9441 75.6087 84.0518 75.6264 84.1678 75.6264C84.253 75.6264 84.3276 75.6205 84.3915 75.6087C84.4554 75.5968 84.5051 75.5874 84.5407 75.5803L84.7324 76.4574C84.6709 76.4811 84.5833 76.5047 84.4696 76.5284C84.356 76.5545 84.214 76.5687 84.0435 76.571C83.7641 76.5758 83.5037 76.526 83.2623 76.4219C83.0208 76.3177 82.8255 76.1567 82.6763 75.9389C82.5272 75.7211 82.4526 75.4477 82.4526 75.1186V69.7386ZM88.0465 76.6101C87.5352 76.6101 87.0889 76.4929 86.7077 76.2585C86.3266 76.0241 86.0307 75.6963 85.82 75.2749C85.6093 74.8535 85.5039 74.361 85.5039 73.7976C85.5039 73.2318 85.6093 72.737 85.82 72.3132C86.0307 71.8894 86.3266 71.5604 86.7077 71.326C87.0889 71.0916 87.5352 70.9744 88.0465 70.9744C88.5579 70.9744 89.0041 71.0916 89.3853 71.326C89.7665 71.5604 90.0624 71.8894 90.2731 72.3132C90.4838 72.737 90.5891 73.2318 90.5891 73.7976C90.5891 74.361 90.4838 74.8535 90.2731 75.2749C90.0624 75.6963 89.7665 76.0241 89.3853 76.2585C89.0041 76.4929 88.5579 76.6101 88.0465 76.6101ZM88.0501 75.7188C88.3815 75.7188 88.6561 75.6312 88.8739 75.456C89.0917 75.2808 89.2527 75.0476 89.3569 74.7564C89.4634 74.4652 89.5167 74.1444 89.5167 73.794C89.5167 73.446 89.4634 73.1264 89.3569 72.8352C89.2527 72.5417 89.0917 72.3061 88.8739 72.1286C88.6561 71.951 88.3815 71.8622 88.0501 71.8622C87.7163 71.8622 87.4393 71.951 87.2191 72.1286C87.0013 72.3061 86.8391 72.5417 86.7326 72.8352C86.6284 73.1264 86.5763 73.446 86.5763 73.794C86.5763 74.1444 86.6284 74.4652 86.7326 74.7564C86.8391 75.0476 87.0013 75.2808 87.2191 75.456C87.4393 75.6312 87.7163 75.7188 88.0501 75.7188ZM95.8617 72.3771L94.8993 72.5476C94.8591 72.4245 94.7952 72.3073 94.7076 72.196C94.6223 72.0848 94.5063 71.9936 94.3596 71.9226C94.2128 71.8516 94.0293 71.8161 93.8091 71.8161C93.5085 71.8161 93.2575 71.8835 93.0563 72.0185C92.8551 72.151 92.7544 72.3227 92.7544 72.5334C92.7544 72.7157 92.8219 72.8625 92.9569 72.9737C93.0918 73.085 93.3096 73.1761 93.6103 73.2472L94.4767 73.446C94.9786 73.562 95.3527 73.7408 95.5989 73.9822C95.8451 74.2237 95.9682 74.5374 95.9682 74.9233C95.9682 75.25 95.8735 75.5412 95.6841 75.7969C95.4971 76.0502 95.2355 76.2491 94.8993 76.3935C94.5655 76.5379 94.1784 76.6101 93.7381 76.6101C93.1273 76.6101 92.629 76.4799 92.2431 76.2195C91.8572 75.9567 91.6204 75.5838 91.5328 75.1009L92.5591 74.9446C92.623 75.2121 92.7544 75.4145 92.9533 75.5518C93.1522 75.6868 93.4114 75.7543 93.731 75.7543C94.079 75.7543 94.3572 75.6821 94.5655 75.5376C94.7739 75.3909 94.878 75.2121 94.878 75.0014C94.878 74.831 94.8141 74.6877 94.6863 74.5717C94.5608 74.4557 94.3678 74.3681 94.1074 74.3089L93.1841 74.1065C92.6751 73.9905 92.2987 73.8059 92.0549 73.5526C91.8134 73.2992 91.6926 72.9785 91.6926 72.5902C91.6926 72.2682 91.7826 71.9865 91.9625 71.745C92.1425 71.5036 92.391 71.3153 92.7083 71.1804C93.0255 71.0431 93.3889 70.9744 93.7985 70.9744C94.388 70.9744 94.852 71.1023 95.1905 71.358C95.5291 71.6113 95.7528 71.951 95.8617 72.3771Z" fill="#333333"/>
</svg>
