<svg width="86" height="86" viewBox="0 0 86 86" fill="none" xmlns="http://www.w3.org/2000/svg">
<circle opacity="0.3" cx="42.9987" cy="43" r="35.4167" fill="#FAFAFA"/>
<circle cx="42.9987" cy="43" r="35.4167" stroke="#FAFAFA" stroke-width="1.5"/>
<path d="M51.8371 34.1458C51.8371 39.0358 47.8673 43 42.9703 43C38.0733 43 34.1035 39.0358 34.1035 34.1458C34.1035 29.2558 38.0733 25.2917 42.9703 25.2917C47.8673 25.2917 51.8371 29.2558 51.8371 34.1458Z" fill="white"/>
<path d="M27.0625 60.7083C35.3206 52.059 50.5906 51.6517 58.9375 60.7083M51.8368 34.1458C51.8368 39.0358 47.867 43 42.97 43C38.073 43 34.1032 39.0358 34.1032 34.1458C34.1032 29.2558 38.073 25.2917 42.97 25.2917C47.867 25.2917 51.8368 29.2558 51.8368 34.1458Z" stroke="#545454" stroke-width="1.5" stroke-linecap="round"/>
</svg>
