<svg width="32" height="32" viewBox="0 0 32 32" fill="none" xmlns="http://www.w3.org/2000/svg">
<path d="M12.211 7.61631L11.6741 6.40833C11.3231 5.61851 11.1476 5.22357 10.8851 4.92135C10.5561 4.54259 10.1273 4.26392 9.64757 4.11713C9.26478 4 8.83261 4 7.96828 4C6.70388 4 6.07168 4 5.54097 4.24305C4.91582 4.52936 4.35125 5.15104 4.1263 5.8008C3.93534 6.35239 3.99005 6.91924 4.09944 8.05293C5.26388 20.1203 11.8798 26.7361 23.947 27.9005C25.0807 28.01 25.6477 28.0647 26.1991 27.8737C26.849 27.6488 27.4706 27.0841 27.757 26.4591C27.9999 25.9283 27.9999 25.2961 27.9999 24.0317C27.9999 23.1673 27.9999 22.7352 27.8829 22.3524C27.7361 21.8727 27.4574 21.4439 27.0786 21.1149C26.7765 20.8524 26.3815 20.6769 25.5917 20.3259L24.3837 19.7889C23.5283 19.4088 23.1006 19.2188 22.6661 19.1775C22.2501 19.1379 21.8307 19.1963 21.4414 19.3479C21.0346 19.5063 20.6751 19.8059 19.9559 20.4051C19.2402 21.0016 18.8823 21.2999 18.445 21.4596C18.0573 21.6012 17.5447 21.6537 17.1365 21.5935C16.6758 21.5256 16.3231 21.3372 15.6177 20.9601C13.423 19.7873 12.2127 18.5771 11.0398 16.3823C10.6629 15.6769 10.4744 15.3241 10.4065 14.8636C10.3463 14.4552 10.3988 13.9427 10.5404 13.5551C10.7002 13.1177 10.9984 12.7598 11.5949 12.044C12.1942 11.3249 12.4938 10.9654 12.6522 10.5585C12.8038 10.1693 12.8622 9.74987 12.8226 9.33397C12.7813 8.89936 12.5912 8.47168 12.211 7.61631Z" stroke="#E4E4E4" stroke-width="2" stroke-linecap="round"/>
</svg>
