<svg width="48" height="49" viewBox="0 0 48 49" fill="none" xmlns="http://www.w3.org/2000/svg">
<g clip-path="url(#clip0_238_2468)">
<rect y="0.5" width="48" height="48" rx="24" fill="#DFE8FF"/>
<g clip-path="url(#clip1_238_2468)">
<path d="M37.9059 24.0506C37.9059 24.7134 37.333 25.2529 36.6243 25.2529H13.2421C12.5334 25.2529 11.9604 24.7134 11.9604 24.0506L18.9561 16.5005C19.6189 15.7688 20.432 15.2976 21.1381 15.2976L34.0525 14.7923C34.7612 14.7923 35.3341 15.3317 35.3341 15.9945L37.9059 24.0506Z" fill="#C2C2C2"/>
<path d="M35.6085 22.3129C35.6085 22.7755 35.1629 23.1522 34.6156 23.1522H16.4532C15.9059 23.1522 15.4609 22.7755 15.4609 22.3129L20.4209 17.0629C20.9354 16.5563 22.0221 16.2275 22.5694 16.2275L32.679 16.026C33.2263 16.026 33.6712 16.4007 33.6712 16.8621L35.6085 22.3142" fill="#3F5AA1"/>
<path d="M27.1065 23.0833C27.1175 23.1567 27.1138 23.2315 27.0957 23.3034C27.0776 23.3754 27.0455 23.4431 27.0011 23.5025C26.9568 23.562 26.9011 23.6121 26.8373 23.65C26.7735 23.6878 26.7029 23.7127 26.6294 23.7232C26.556 23.7342 26.4811 23.7307 26.409 23.7128C26.3369 23.6948 26.2691 23.6628 26.2094 23.6186C26.1497 23.5744 26.0994 23.5189 26.0612 23.4552C26.023 23.3915 25.9978 23.3209 25.987 23.2474L24.937 16.0818C24.9259 16.0085 24.9294 15.9337 24.9474 15.8617C24.9654 15.7898 24.9974 15.7221 25.0416 15.6626C25.0858 15.603 25.1414 15.5528 25.2051 15.5149C25.2688 15.4769 25.3393 15.4519 25.4127 15.4413C25.561 15.4195 25.7118 15.4573 25.8322 15.5465C25.9527 15.6356 26.0328 15.7689 26.0552 15.9171L27.1065 23.0833Z" fill="#BBBABA"/>
<path d="M21.8121 22.095C21.9348 19.8631 22.8785 17.9062 24.2015 16.2012L22.5694 16.2229C22.0221 16.2229 20.9347 16.5517 20.4209 17.0583L15.4609 22.3083C15.4609 22.7709 15.9059 23.1476 16.4532 23.1476H21.8272C21.7987 22.797 21.7936 22.4449 21.8121 22.0937" fill="#5978BA"/>
<path d="M43.7793 27.0963C43.7793 28.2026 43.3399 29.2636 42.5577 30.0459C41.7754 30.8283 40.7145 31.2679 39.6082 31.2681H8.08194C6.97551 31.2681 5.9144 30.8285 5.13204 30.0462C4.34968 29.2638 3.91016 28.2027 3.91016 27.0963C3.91016 25.9899 4.34968 24.9287 5.13204 24.1464C5.9144 23.364 6.97551 22.9245 8.08194 22.9245H39.6016C40.1496 22.9243 40.6922 23.0321 41.1985 23.2417C41.7048 23.4513 42.1648 23.7585 42.5524 24.1459C42.9399 24.5333 43.2473 24.9933 43.457 25.4995C43.6668 26.0057 43.7747 26.5483 43.7747 27.0963" fill="#E3E4E3"/>
<path d="M44.6852 28.5656C44.6852 30.096 42.7328 31.3396 40.3218 31.3396H7.35836C4.94861 31.3396 2.99561 30.096 2.99561 28.5656C2.99561 27.0313 4.94861 25.7903 7.35836 25.7903H40.3218C42.7342 25.7903 44.6852 27.0313 44.6852 28.5656Z" fill="#243438"/>
<path d="M16.7649 31.2694C16.7649 34.0125 14.5376 36.2392 11.7906 36.2392C9.0481 36.2392 6.82275 34.0105 6.82275 31.2694C6.82241 30.6168 6.95065 29.9705 7.20015 29.3675C7.44965 28.7644 7.81553 28.2165 8.27686 27.7549C8.7382 27.2933 9.28597 26.9272 9.88886 26.6773C10.4918 26.4275 11.138 26.2989 11.7906 26.2989C12.4436 26.2986 13.0903 26.4269 13.6937 26.6765C14.2971 26.9261 14.8454 27.2922 15.3074 27.7537C15.7693 28.2153 16.1358 28.7633 16.3859 29.3666C16.636 29.9698 16.7648 30.6164 16.7649 31.2694ZM40.6492 31.2103C40.6492 33.9547 38.4225 36.1801 35.6741 36.1801C32.9343 36.1801 30.7063 33.9528 30.7063 31.2103C30.7067 29.8928 31.2301 28.6292 32.1617 27.6975C33.0932 26.7657 34.3566 26.2419 35.6741 26.2412C36.3272 26.2405 36.9739 26.3685 37.5774 26.6179C38.181 26.8673 38.7294 27.2332 39.1915 27.6947C39.6535 28.1562 40.0201 28.7042 40.2702 29.3074C40.5203 29.9107 40.6491 30.5573 40.6492 31.2103Z" fill="white"/>
<path d="M15.8821 31.2694C15.8816 32.3535 15.4505 33.393 14.6837 34.1593C13.9169 34.9256 12.8771 35.356 11.793 35.3558C10.7094 35.3553 9.67027 34.9246 8.90402 34.1584C8.13777 33.3921 7.70706 32.353 7.70654 31.2694C7.70672 30.1855 8.13727 29.1461 8.90355 28.3795C9.66984 27.613 10.7091 27.1821 11.793 27.1816C12.3299 27.1815 12.8616 27.2872 13.3576 27.4926C13.8537 27.6979 14.3045 27.999 14.6842 28.3786C15.0639 28.7582 15.3651 29.2088 15.5706 29.7048C15.7762 30.2008 15.882 30.7325 15.8821 31.2694Z" fill="#243438"/>
<path d="M14.4431 31.2103C14.4431 31.9135 14.1638 32.5878 13.6666 33.085C13.1694 33.5822 12.495 33.8616 11.7919 33.8616C11.0887 33.8616 10.4144 33.5822 9.91716 33.085C9.41995 32.5878 9.14062 31.9135 9.14062 31.2103C9.14167 30.5081 9.42154 29.835 9.91871 29.3391C10.4159 28.8431 11.0896 28.5649 11.7919 28.5656C12.1396 28.5651 12.4841 28.6331 12.8056 28.7658C13.127 28.8984 13.4192 29.0931 13.6654 29.3387C13.9116 29.5843 14.107 29.876 14.2405 30.1971C14.3739 30.5183 14.4428 30.8626 14.4431 31.2103Z" fill="#969796"/>
<path d="M39.7698 31.2694C39.7698 32.3538 39.339 33.3938 38.5722 34.1606C37.8055 34.9274 36.7655 35.3581 35.6811 35.3581C34.5966 35.3581 33.5566 34.9274 32.7899 34.1606C32.0231 33.3938 31.5923 32.3538 31.5923 31.2694C31.5923 30.185 32.0231 29.145 32.7899 28.3782C33.5566 27.6114 34.5966 27.1806 35.6811 27.1806C36.7655 27.1806 37.8055 27.6114 38.5722 28.3782C39.339 29.145 39.7698 30.185 39.7698 31.2694Z" fill="#243438"/>
<path d="M38.3287 31.2103C38.3287 31.9135 38.0493 32.5878 37.5521 33.085C37.0549 33.5822 36.3806 33.8616 35.6774 33.8616C34.9754 33.8598 34.3027 33.5797 33.8069 33.0827C33.3111 32.5857 33.0327 31.9123 33.0327 31.2103C33.0332 30.5091 33.312 29.8367 33.8079 29.3408C34.3038 28.8449 34.9761 28.5661 35.6774 28.5656C36.0252 28.5651 36.3696 28.6331 36.6911 28.7658C37.0126 28.8984 37.3047 29.0931 37.551 29.3387C37.7972 29.5843 37.9926 29.876 38.126 30.1971C38.2594 30.5183 38.3283 30.8626 38.3287 31.2103Z" fill="#969796"/>
<path d="M5.26807 26.0456C5.26807 27.133 4.82838 28.0144 4.28304 28.0144C3.74097 28.0144 3.29932 27.133 3.29932 26.0456V26.003C3.29932 24.9149 3.74032 24.0342 4.28304 24.0342C4.82838 24.0342 5.26807 24.9149 5.26807 26.003V26.0456Z" fill="#E3E4E3"/>
<path d="M44.7638 26.3213C44.7638 27.4073 44.3235 28.2887 43.7788 28.2887C43.2374 28.2887 42.7944 27.4073 42.7944 26.3213V26.2753C42.7944 25.1892 43.2374 24.3092 43.7788 24.3092C44.3235 24.3092 44.7638 25.1892 44.7638 26.2753V26.3213Z" fill="#DF394C"/>
<path d="M26.9453 25.7779L25.7686 30.5383C25.6918 30.8487 25.9045 31.1663 26.2398 31.2484C26.5745 31.3317 26.9098 31.1493 26.984 30.8382L28.2348 25.7792H26.9453V25.7779Z" fill="white"/>
</g>
</g>
<defs>
<clipPath id="clip0_238_2468">
<rect y="0.5" width="48" height="48" rx="24" fill="white"/>
</clipPath>
<clipPath id="clip1_238_2468">
<rect width="42" height="42" fill="white" transform="translate(3 -3)"/>
</clipPath>
</defs>
</svg>
