<svg width="32" height="32" viewBox="0 0 32 32" fill="none" xmlns="http://www.w3.org/2000/svg">
<path d="M2.66602 29.3333H29.3327" stroke="#E4E4E4" stroke-width="2" stroke-linecap="round" stroke-linejoin="round"/>
<path d="M18.666 5.33325H13.3327C11.1265 5.33325 10.666 5.79369 10.666 7.99992V29.3333H21.3327V7.99992C21.3327 5.79369 20.8723 5.33325 18.666 5.33325Z" stroke="#E4E4E4" stroke-width="2" stroke-linejoin="round"/>
<path d="M10.6667 17.3333H6.66667C4.46044 17.3333 4 17.7937 4 19.9999V29.3333H10.6667V17.3333Z" stroke="#E4E4E4" stroke-width="2" stroke-linejoin="round"/>
<path d="M25.334 17.3333H21.334V29.3333H28.0007V19.9999C28.0007 17.7937 27.5403 17.3333 25.334 17.3333Z" stroke="#E4E4E4" stroke-width="2" stroke-linejoin="round"/>
<path d="M16 5.33341V2.66675" stroke="#E4E4E4" stroke-width="2" stroke-linecap="round" stroke-linejoin="round"/>
<path d="M16 29.3334V26.6667" stroke="#E4E4E4" stroke-width="2" stroke-linecap="round" stroke-linejoin="round"/>
<path d="M14.666 20.0001H17.3327M14.666 15.3334H17.3327M14.666 10.6667H17.3327" stroke="#E4E4E4" stroke-width="2" stroke-linecap="round" stroke-linejoin="round"/>
</svg>
