<svg width="40" height="40" viewBox="0 0 40 40" fill="none" xmlns="http://www.w3.org/2000/svg">
<path d="M19.9472 35.0272C28.2422 35.0272 34.9666 28.3028 34.9666 20.0078C34.9666 11.7128 28.2422 4.98834 19.9472 4.98834C11.6522 4.98834 4.92773 11.7128 4.92773 20.0078C4.92773 28.3028 11.6522 35.0272 19.9472 35.0272Z" fill="#FCEA2B"/>
<path d="M20.0031 32.1711C26.7137 32.1711 32.1537 26.7311 32.1537 20.0206C32.1537 13.31 26.7137 7.87 20.0031 7.87C13.2925 7.87 7.85254 13.31 7.85254 20.0206C7.85254 26.7311 13.2925 32.1711 20.0031 32.1711Z" fill="white"/>
<path d="M30.6165 14.1C32.0491 16.6684 32.5012 19.6692 31.8888 22.5457C31.2765 25.4221 29.6413 27.9786 27.2869 29.7408C24.9325 31.503 22.0186 32.3511 19.0863 32.1277C16.1539 31.9043 13.4022 30.6246 11.3418 28.526C9.28151 26.4275 8.05253 23.6528 7.883 20.7168C7.71348 17.7808 8.61492 14.8831 10.42 12.5614C12.2251 10.2397 14.8113 8.65174 17.6984 8.09232C20.5856 7.5329 23.5777 8.03998 26.1193 9.51945" stroke="black" stroke-width="1.11111" stroke-linecap="round" stroke-linejoin="round"/>
<path d="M34.9666 19.9983C34.9662 23.5718 33.6922 27.0282 31.3733 29.7471C29.0544 32.466 25.8424 34.2694 22.3137 34.8337C18.7851 35.3979 15.1708 34.6861 12.1196 32.826C9.06848 30.9658 6.78015 28.0791 5.66537 24.684C4.55059 21.2888 4.68234 17.6075 6.03698 14.3007C7.39161 10.994 9.88044 8.27823 13.0568 6.64096C16.2331 5.00368 19.889 4.55206 23.3683 5.36714C26.8476 6.18222 29.9225 8.21063 32.0411 11.0883" stroke="black" stroke-width="1.11111" stroke-linecap="round" stroke-linejoin="round"/>
<path d="M26.3301 11.9878L32.4623 11.3433L31.8179 5.21112M27.764 20.1967H19.9395V10.2889M19.9395 29.9506V27.8145M11.7462 20.1967H10.0479" stroke="black" stroke-width="1.11111" stroke-linecap="round" stroke-linejoin="round"/>
<path d="M19.9394 22.2728C21.086 22.2728 22.0155 21.3433 22.0155 20.1967C22.0155 19.0501 21.086 18.1205 19.9394 18.1205C18.7928 18.1205 17.8633 19.0501 17.8633 20.1967C17.8633 21.3433 18.7928 22.2728 19.9394 22.2728Z" fill="black"/>
<path d="M27.0522 27.4539C27.5063 27.4539 27.8744 27.0858 27.8744 26.6317C27.8744 26.1776 27.5063 25.8094 27.0522 25.8094C26.5981 25.8094 26.23 26.1776 26.23 26.6317C26.23 27.0858 26.5981 27.4539 27.0522 27.4539Z" fill="black"/>
<path d="M12.8261 14.5539C13.2802 14.5539 13.6484 14.1858 13.6484 13.7317C13.6484 13.2776 13.2802 12.9095 12.8261 12.9095C12.372 12.9095 12.0039 13.2776 12.0039 13.7317C12.0039 14.1858 12.372 14.5539 12.8261 14.5539Z" fill="black"/>
<path d="M12.8261 27.4539C13.2802 27.4539 13.6484 27.0858 13.6484 26.6317C13.6484 26.1776 13.2802 25.8094 12.8261 25.8094C12.372 25.8094 12.0039 26.1776 12.0039 26.6317C12.0039 27.0858 12.372 27.4539 12.8261 27.4539Z" fill="black"/>
</svg>
