<svg width="65" height="64" viewBox="0 0 65 64" fill="none" xmlns="http://www.w3.org/2000/svg">
<g clip-path="url(#clip0_396_4786)">
<path d="M58.8723 22.5063C55.4478 23.631 50.0008 25.961 47.9443 26.9408C46.7903 24.594 45.2768 22.4558 43.4746 20.5972C44.9985 18.8395 49.8244 13.8392 52.0167 12.0647C54.9761 15.0143 57.3246 18.5599 58.8723 22.5063Z" fill="#20AE3A"/>
<path d="M51.2725 11.3441C49.4298 13.1658 45.3537 17.2164 42.8255 19.9574C40.8741 18.0819 38.6172 16.5194 36.1328 15.3544C37.7212 9.8895 39.7473 6.54253 40.8842 4.95996C44.7802 6.38763 48.303 8.5763 51.2725 11.3441Z" fill="#2ABD45"/>
<path d="M39.6413 4.53885C38.6435 6.84874 36.2306 12.4214 35.1649 14.9232C32.7587 13.9097 30.1557 13.2632 27.4338 13.0477C27.478 10.5661 27.4271 5.58604 27.3965 3.21556C28.3365 3.12801 29.2903 3.08423 30.2541 3.08423C33.529 3.08423 36.6819 3.59267 39.6413 4.53885Z" fill="#51D769"/>
<path d="M26.7637 13.0042C26.3157 12.9806 25.8679 12.9671 25.413 12.9671C23.1561 12.9671 20.9706 13.2635 18.8902 13.819C17.9671 12.0782 16.7758 8.28002 16.2227 6.44491C19.3755 4.8354 22.8473 3.75117 26.5193 3.31006C26.4923 5.7277 26.482 10.169 26.7637 13.0042Z" fill="#8BEA9B"/>
<path d="M18.1599 14.0243C15.5296 14.8123 13.0793 16.0177 10.8937 17.5666C9.9367 16.3477 8.36877 14.4688 7.35742 13.26C9.57696 10.7919 12.197 8.68737 15.1122 7.04419C15.886 9.00051 17.4777 12.9334 18.1599 14.0243Z" fill="#BEF4C7"/>
<path d="M10.1158 18.1358C8.80576 19.1392 7.59758 20.2671 6.51495 21.5029C5.08278 20.7319 4.15967 19.4421 3.61328 18.4118C4.51603 16.846 5.55792 15.3645 6.72198 13.9907C7.49576 15.1827 8.92454 17.1053 10.1158 18.1358Z" fill="#DEFAE2"/>
<path d="M60.8628 31.281C57.788 29.4661 51.8591 29.5132 49.0761 29.648C48.8725 29.0587 48.6452 28.4796 48.3906 27.9104C50.9326 26.897 56.6273 24.6477 59.3151 23.7183C60.1365 26.1191 60.6693 28.6545 60.8628 31.281Z" fill="#1A7B2C"/>
<path d="M0.621094 41.467V41.4602" stroke="#B9FFA2" stroke-miterlimit="10"/>
<path d="M0.620665 41.467C0.620665 41.467 0.617236 41.4636 0.620665 41.4602" stroke="#B9FFA2" stroke-miterlimit="10"/>
<path d="M59.9637 47.4875C59.3223 46.7838 58.3855 45.8511 57.1333 44.9081C50.2032 39.6959 42.4212 40.7969 40.1201 41.541C39.3397 41.7936 38.7526 42.1539 38.2808 42.6454C37.7106 43.2381 37.2796 44.2246 37.1609 46.1743C36.9267 49.9557 36.8486 54.2825 36.8486 54.2825C36.8486 54.2825 36.4617 57.3701 41.5965 56.057C46.7347 54.7437 53.1354 47.5515 54.0482 45.6321C54.0482 45.6321 58.0937 46.2516 58.9523 48.9521C58.9523 48.9521 49.3785 64.8587 31.0146 63.7779C12.6475 62.697 4.2445 51.1139 0.42989 37.9887C0.42989 37.9887 5.12689 41.541 7.82494 41.4399C7.82494 41.4399 13.3738 54.4609 24.373 56.7775C24.373 56.7775 27.3833 56.572 27.329 54.0501C27.2781 51.5281 27.1763 43.7027 27.1763 43.7027C27.1763 43.7027 27.0203 40.9249 23.0257 40.0998C23.0257 40.0998 4.65855 39.5848 0.42989 32.2779C0.42989 32.2779 -0.320137 28.8266 2.76482 19.7688C2.76482 19.7688 8.83629 31.197 36.5397 30.1128L33.7365 31.8906C33.4108 31.9277 32.9356 31.985 32.3653 32.0691C31.2691 32.2342 30.7195 32.3149 30.3902 32.4294C29.2974 32.8066 28.2963 33.7931 27.8755 35.0289C27.7703 35.3353 27.4342 36.3724 27.8483 37.6014C28.3098 38.9685 29.3822 39.6285 29.6639 39.7901C30.1052 39.9618 31.3304 40.3625 32.7557 39.9416C35.1618 39.2311 35.9526 36.8168 36.0205 36.598C36.2276 36.0391 36.577 35.2376 37.1642 34.3756C37.1642 34.3756 37.9787 33.1804 41.2842 30.4193C41.2842 30.4193 55.0596 31.1163 55.606 30.9613C56.1491 30.8065 62.8416 32.1197 63.5407 33.4296C64.2432 34.7427 61.9864 45.8611 59.9637 47.484V47.4875Z" fill="#175023"/>
<path d="M45.5406 24.0921C44.6243 24.8801 43.708 25.6713 42.7915 26.4593C41.726 25.0518 40.0868 23.2168 37.7146 21.5299C34.3987 19.1828 31.1645 18.203 29.1451 17.762C26.8408 17.4555 21.4447 17.0682 15.8144 19.9438C13.1096 21.3244 11.1717 23.0383 9.88548 24.4021C9.52235 24.1966 9.15581 23.9879 8.78589 23.7689C8.05963 23.3379 7.3605 22.9036 6.69531 22.4692C7.99175 20.9877 10.1468 18.8664 13.3234 17.0918C15.5735 15.8359 20.0193 13.8122 25.877 13.9233C27.5196 13.9536 31.0797 14.1826 35.1115 15.9066C40.1919 18.0784 43.2328 21.422 44.4647 22.806C44.9229 23.3211 45.2895 23.7689 45.5406 24.0921Z" fill="#FBBC05"/>
<path d="M63.9544 31.9142C63.9544 31.9882 63.9544 32.0625 63.951 32.1365C63.537 31.8874 62.9805 31.5708 62.2236 31.17C62.1965 30.6381 62.1524 30.1061 62.0946 29.5707C60.228 12.3038 44.6064 -0.191832 27.2032 1.66011C19.6656 2.46151 13.0341 5.82195 8.08594 10.7784C13.9436 4.26631 22.4688 0.168457 31.9578 0.168457C49.6292 0.168457 63.9544 14.3813 63.9544 31.9142Z" fill="#072C0F"/>
<path d="M45.302 25.5872C43.9921 26.8902 42.8653 27.8938 42.0814 28.5705C41.8608 28.7591 39.3188 30.9377 36.984 33.0287C36.1525 33.7728 35.7791 34.2072 35.5755 34.5675C34.89 35.783 35.2464 36.517 34.486 37.6047C34.2859 37.8909 33.804 38.5779 32.9284 38.8641C31.8016 39.2344 30.3254 38.8438 29.5482 37.7394C29.4769 37.6349 28.7642 36.6046 29.1171 35.3991C29.4904 34.1264 30.8886 33.1937 32.5958 33.1668C33.2406 32.9613 34.2078 32.6213 35.3244 32.0859C37.6085 30.9916 38.7758 29.9241 41.2771 28.18C42.2137 27.5267 43.5781 26.6142 45.2953 25.5872H45.302Z" fill="#4847EB"/>
<path d="M31.9646 37.113C32.437 37.113 32.8199 36.7332 32.8199 36.2646C32.8199 35.796 32.437 35.416 31.9646 35.416C31.4924 35.416 31.1094 35.796 31.1094 36.2646C31.1094 36.7332 31.4924 37.113 31.9646 37.113Z" fill="white"/>
</g>
<defs>
<clipPath id="clip0_396_4786">
<rect width="64" height="64" fill="white" transform="translate(0.125)"/>
</clipPath>
</defs>
</svg>
