<svg width="20" height="20" viewBox="0 0 20 20" fill="none" xmlns="http://www.w3.org/2000/svg">
<path fill-rule="evenodd" clip-rule="evenodd" d="M7.44015 3.72552C6.3808 3.60712 5.28421 3.60712 4.22486 3.72552C3.96745 3.75429 3.76446 3.95811 3.7355 4.20566C3.609 5.28728 3.609 6.37995 3.7355 7.46157C3.76446 7.70912 3.96745 7.91294 4.22486 7.94171C5.28421 8.06011 6.3808 8.06011 7.44015 7.94171C7.69756 7.91294 7.90055 7.70912 7.92951 7.46157C8.05601 6.37995 8.05601 5.28728 7.92951 4.20566C7.90055 3.95811 7.69756 3.75429 7.44015 3.72552ZM4.08602 2.48325C5.23764 2.35454 6.42737 2.35454 7.57899 2.48325C8.40469 2.57554 9.07339 3.22553 9.17104 4.06045C9.30883 5.23854 9.30883 6.42868 9.17104 7.60678C9.07339 8.4417 8.40469 9.09169 7.57899 9.18398C6.42737 9.31269 5.23764 9.31269 4.08602 9.18398C3.26032 9.09169 2.59162 8.4417 2.49397 7.60678C2.35618 6.42868 2.35618 5.23854 2.49397 4.06045C2.59162 3.22553 3.26032 2.57554 4.08602 2.48325Z" fill="#4A5154"/>
<path fill-rule="evenodd" clip-rule="evenodd" d="M7.44015 12.0588C6.3808 11.9405 5.28421 11.9405 4.22486 12.0588C3.96745 12.0876 3.76446 12.2914 3.7355 12.539C3.609 13.6206 3.609 14.7133 3.7355 15.7949C3.76446 16.0424 3.96745 16.2463 4.22486 16.275C5.28421 16.3934 6.3808 16.3934 7.44015 16.275C7.69756 16.2463 7.90055 16.0424 7.92951 15.7949C8.05601 14.7133 8.05601 13.6206 7.92951 12.539C7.90055 12.2914 7.69756 12.0876 7.44015 12.0588ZM4.08602 10.8166C5.23764 10.6879 6.42737 10.6879 7.57899 10.8166C8.40469 10.9089 9.07339 11.5589 9.17104 12.3938C9.30883 13.5719 9.30883 14.762 9.17104 15.9401C9.07339 16.775 8.40469 17.425 7.57899 17.5173C6.42737 17.646 5.23764 17.646 4.08602 17.5173C3.26032 17.425 2.59162 16.775 2.49397 15.9401C2.35618 14.762 2.35618 13.5719 2.49397 12.3938C2.59162 11.5589 3.26032 10.9089 4.08602 10.8166Z" fill="#4A5154"/>
<path fill-rule="evenodd" clip-rule="evenodd" d="M15.7735 3.72552C14.7141 3.60712 13.6175 3.60712 12.5582 3.72552C12.3008 3.75429 12.0978 3.95811 12.0688 4.20566C11.9423 5.28728 11.9423 6.37995 12.0688 7.46157C12.0978 7.70912 12.3008 7.91294 12.5582 7.94171C13.6175 8.06011 14.7141 8.06011 15.7735 7.94171C16.0309 7.91294 16.2339 7.70912 16.2628 7.46157C16.3893 6.37995 16.3893 5.28728 16.2628 4.20566C16.2339 3.95811 16.0309 3.75429 15.7735 3.72552ZM12.4194 2.48325C13.571 2.35454 14.7607 2.35454 15.9123 2.48325C16.738 2.57554 17.4067 3.22553 17.5044 4.06045C17.6422 5.23854 17.6422 6.42868 17.5044 7.60678C17.4067 8.4417 16.738 9.09169 15.9123 9.18398C14.7607 9.31269 13.571 9.31269 12.4194 9.18398C11.5937 9.09169 10.925 8.4417 10.8273 7.60678C10.6895 6.42868 10.6895 5.23854 10.8273 4.06045C10.925 3.22553 11.5937 2.57554 12.4194 2.48325Z" fill="#4A5154"/>
<path fill-rule="evenodd" clip-rule="evenodd" d="M15.7735 12.0588C14.7141 11.9405 13.6175 11.9405 12.5582 12.0588C12.3008 12.0876 12.0978 12.2914 12.0688 12.539C11.9423 13.6206 11.9423 14.7133 12.0688 15.7949C12.0978 16.0424 12.3008 16.2463 12.5582 16.275C13.6175 16.3934 14.7141 16.3934 15.7735 16.275C16.0309 16.2463 16.2339 16.0424 16.2628 15.7949C16.3893 14.7133 16.3893 13.6206 16.2628 12.539C16.2339 12.2914 16.0309 12.0876 15.7735 12.0588ZM12.4194 10.8166C13.571 10.6879 14.7607 10.6879 15.9123 10.8166C16.738 10.9089 17.4067 11.5589 17.5044 12.3938C17.6422 13.5719 17.6422 14.762 17.5044 15.9401C17.4067 16.775 16.738 17.425 15.9123 17.5173C14.7607 17.646 13.571 17.646 12.4194 17.5173C11.5937 17.425 10.925 16.775 10.8273 15.9401C10.6895 14.762 10.6895 13.5719 10.8273 12.3938C10.925 11.5589 11.5937 10.9089 12.4194 10.8166Z" fill="#4A5154"/>
</svg>
