<svg width="10" height="14" viewBox="0 0 10 14" fill="none" xmlns="http://www.w3.org/2000/svg">
<path d="M1 5.40332C1 3.19418 2.79086 1.40332 5 1.40332C7.20914 1.40332 9 3.19418 9 5.40332V5.64425C9 6.52816 8.72382 7.38998 8.21006 8.10924L5.0079 12.5923C5.00403 12.5977 4.99597 12.5977 4.9921 12.5923L1.78994 8.10924C1.27618 7.38998 1 6.52816 1 5.64425V5.40332Z" fill="#C2CCDE" fill-opacity="0.25"/>
<path d="M5.78183 3.80368C5.28776 3.56575 4.71224 3.56575 4.21817 3.80368C3.7241 4.04161 3.36527 4.49157 3.24324 5.0262C3.12122 5.56082 3.24928 6.12192 3.59119 6.55065C3.93309 6.97939 4.45163 7.2291 5 7.2291C5.54837 7.2291 6.06691 6.97939 6.40881 6.55065C6.75072 6.12192 6.87878 5.56082 6.75676 5.0262C6.63474 4.49157 6.2759 4.04161 5.78183 3.80368Z" fill="#C2CCDE" fill-opacity="0.25"/>
<path d="M1 5.40332C1 3.19418 2.79086 1.40332 5 1.40332C7.20914 1.40332 9 3.19418 9 5.40332V5.64425C9 6.52816 8.72382 7.38998 8.21006 8.10924L5.0079 12.5923C5.00403 12.5977 4.99597 12.5977 4.9921 12.5923L1.78994 8.10924C1.27618 7.38998 1 6.52816 1 5.64425V5.40332Z" stroke="#5A5A5A" stroke-linecap="round" stroke-linejoin="round"/>
<path d="M5.78183 3.80368C5.28776 3.56575 4.71224 3.56575 4.21817 3.80368C3.7241 4.04161 3.36527 4.49157 3.24324 5.0262C3.12122 5.56082 3.24928 6.12192 3.59119 6.55065C3.93309 6.97939 4.45163 7.2291 5 7.2291C5.54837 7.2291 6.06691 6.97939 6.40881 6.55065C6.75072 6.12192 6.87878 5.56082 6.75676 5.0262C6.63474 4.49157 6.2759 4.04161 5.78183 3.80368Z" stroke="#5A5A5A" stroke-linecap="round" stroke-linejoin="round"/>
</svg>
