<svg width="32" height="32" viewBox="0 0 32 32" fill="none" xmlns="http://www.w3.org/2000/svg">
<path d="M2.66602 6.66675L11.8834 11.8996C15.2509 13.8114 16.7477 13.8114 20.1153 11.8996L29.3327 6.66675" stroke="#E4E4E4" stroke-width="2" stroke-linejoin="round"/>
<path d="M13.9993 25.9999C13.3776 25.9918 12.7551 25.9799 12.1311 25.9642C7.93312 25.8587 5.83412 25.8059 4.32596 24.2911C2.81779 22.7763 2.7742 20.7315 2.68704 16.6418C2.65902 15.3267 2.659 14.0195 2.68703 12.7045C2.7742 8.61476 2.81778 6.56989 4.32595 5.0551C5.83412 3.54032 7.93312 3.48756 12.1311 3.38203C14.7184 3.31699 17.2803 3.317 19.8676 3.38204C24.0656 3.48757 26.1645 3.54035 27.6727 5.05513C29.1809 6.5699 29.2245 8.61477 29.3116 12.7045C29.3245 13.3099 29.3315 13.5953 29.3326 13.9999" stroke="#E4E4E4" stroke-width="2" stroke-linecap="round" stroke-linejoin="round"/>
<path d="M25.334 22.6667C25.334 23.7713 24.4385 24.6667 23.334 24.6667C22.2295 24.6667 21.334 23.7713 21.334 22.6667C21.334 21.5622 22.2295 20.6667 23.334 20.6667C24.4385 20.6667 25.334 21.5622 25.334 22.6667ZM25.334 22.6667V23.3334C25.334 24.4379 26.2295 25.3334 27.334 25.3334C28.4385 25.3334 29.334 24.4379 29.334 23.3334V22.6667C29.334 19.353 26.6477 16.6667 23.334 16.6667C20.0203 16.6667 17.334 19.353 17.334 22.6667C17.334 25.9805 20.0203 28.6667 23.334 28.6667" stroke="#E4E4E4" stroke-width="2" stroke-linecap="round" stroke-linejoin="round"/>
</svg>
