<svg width="55" height="50" viewBox="0 0 55 50" fill="none" xmlns="http://www.w3.org/2000/svg">
<path d="M2.68613 49.375C1.20264 49.375 0 48.1701 0 46.6845V3.31546C0 1.82956 1.23313 0.625 2.68613 0.625H51.4805C52.9642 0.625 54.1667 1.83007 54.1667 3.31546V46.6845C54.1667 48.1703 52.9336 49.375 51.4805 49.375H2.68613ZM48.75 33.125V6.04167H5.41667V43.9583L32.5 16.875L48.75 33.125ZM48.75 40.7852L32.5 24.5352L13.077 43.9583H48.75V40.7852ZM16.25 22.2917C13.2585 22.2917 10.8333 19.8666 10.8333 16.875C10.8333 13.8835 13.2585 11.4583 16.25 11.4583C19.2415 11.4583 21.6667 13.8835 21.6667 16.875C21.6667 19.8666 19.2415 22.2917 16.25 22.2917Z" fill="black"/>
</svg>
